<svg id="Layer_1" data-name="Layer 1" xmlns="http://www.w3.org/2000/svg" viewBox="0 0 595.28 841.89"><defs><style>.cls-1{fill:#302254;}</style></defs><title>rare_ruminare_web_grass_svg-02</title><path class="cls-1" d="M299.78,366.37a4.17,4.17,0,0,1,1.76-2c1.44-1.1,1.76-3,3.14-4.12,1.59-1.22,2.31-3,3.22-4.62.12-.21.32-.5.61-.35a.48.48,0,0,1,.1.78,16.58,16.58,0,0,0-1.71,3,3.85,3.85,0,0,0-.29,3.58,1.82,1.82,0,0,1-.16,1.43,21.45,21.45,0,0,0-2.32,5.07c-.75,2.28-3,3-4,4.79a.94.94,0,0,1-.51.31c-3.74,1.21-5.36,4.32-6.79,7.59l-1,2.23c1.5-.28,2.3-1.34,3.24-2.23a50.87,50.87,0,0,0,7-8.25c.24-.35.42-.85.89-.52s0,.82-.22,1a15.93,15.93,0,0,0-1.86,2.53c-.52.92-2.29,1.52-1.39,3.22.13.25-.53,1.61-1.64,1.62-.75.13-1.11.69-1.46,1.3l-.24-.88c-.4.77-1.13,1.52.11,2.12,0,0,0,.28-.07.43a53.86,53.86,0,0,0-10.45,10.13,1.34,1.34,0,0,1,.69-2,1.22,1.22,0,0,0,.65-.64c.17-.51.25-.91,1-.9.5,0,.29-.67.24-.81-.67-2.06,0-4.14-.14-6.19l.09-5.38c-2.2,4.92-2,10-3.46,14.75.14-.91-.47-1.63-.45-2.52-.48.2-.91.51-.82.79a42,42,0,0,0,1.57,4c.24.52.65.48,1.12.06a24.48,24.48,0,0,1,2.08-2c3-2,5.1-4.85,7.34-7.56a1.76,1.76,0,0,0,.53-1.8c.32,0,.81.51.79-.32,0-.59.45-.83.87-1.08.32,1.27-.65,2.14-1.13,3.06a16.36,16.36,0,0,1-2.85,3.56c-2.35,2.42-4.79,4.77-7.31,7.26a3.18,3.18,0,0,1,2.24,1.38c-1.1-.57-.81.64-1.35.84-.56-.28.19-.78,0-1-2.19,1.33-2.71,3.92-4.49,5.73.09-1,.2-1.78.25-2.6a.9.9,0,0,0-.71-.91c-.48,0-.68.4-.32.87-.67.31.13,1.3-.7,1.56-.05,0-.09.31,0,.41.76,1.39.75,2.21-.37,3.21-.82.73-.43,1.87-.38,2.34.23,1.89-.68,3.45-1.11,5.08a17.55,17.55,0,0,1-1.58,4c-.46.83-.32.44-.56,0a.37.37,0,1,0-.17.71c1.34.71.3,1.73,0,2.07a13,13,0,0,0-2.9,5.2c-.71,2.18-1.84,4.19-2.66,6.32s-1.16,4.56-2.13,6.73c-.11.25-.23,1,.23,1.17s.49-.49.76-.72c.54-.46.08-2,1.58-1.43h0a5.94,5.94,0,0,0-1.47,2.78c-.07.46-.62,1.07,0,1.25s1.49.18,1.83-.6c.89-2,2-4,3-6,.87-1.85,2.2-3.49,2.92-5.45.84-2.3,2.37-4.29,2.84-7.08.71,1,.06,1.89.72,2.45-1.82,3.08-2.48,6.62-4.2,10,.88-.39.87-1,1.19-1.48,2.19-3,4.92-5.67,5.31-9.67a4.43,4.43,0,0,1,.78-1.48,15.7,15.7,0,0,0,1.38-3.52,4.32,4.32,0,0,0-1,1.64c-.57,1.16-1,2.5-2.46,2.88a15.52,15.52,0,0,0,3.37-6.54c1.83,1.8-1.08,3.67.32,5.36.51-.34.57-1,1.46-1.2a81.56,81.56,0,0,0-5.88,10,8.38,8.38,0,0,0,4.61-4.16,33.19,33.19,0,0,0,3.39-7.35,1.61,1.61,0,0,0,0-1.3c-.12-.24,0-.59,0-.89,1.38.14,1-1.66,2.4-1.94a7.88,7.88,0,0,0-1.41,4.07c-.36,2.45-2.06,4.3-2.63,6.63-.1.42-.79,1,0,1.33s.49-.61.81-.81c2.12-1.33,3.42-3.52,5.33-5,1.45-1.16,2-2.88,3.08-4.23-.34,3.52-3.24,5.44-5.24,8l.37.13c.72.27,1.88-.85,2.06,0,.23,1.13-.92,2.18-1.7,2.94a24.1,24.1,0,0,0-1.77,1.89,2.93,2.93,0,0,1-2.46,1.07c1.48-1.56,3.39-2.72,4.69-4.75-6,2.08-11.09,5.06-14.8,10,1.66-1.09,3.6-1.81,5.11-2.93s3.46-1.07,4.58-2.6c.13-.18.34.1.43.28s.62.31.15.46c-.86.26-1.36,1-2.24,1.4.71.39,2.35-.59,1.7,1.24-.22-.09-.48-.31-.66-.26-3.77.92-7.44,2.1-10.51,4.61a7.74,7.74,0,0,0-2.11,2,17,17,0,0,0,4-.34c2.28-.76,4.61-1.56,6.38-3.31.94-.93,2.54-1.17,2.86-2.74.28.11.35.7.89.16,1-1,2.07-1.84,3.12-2.75l.34,1a1.37,1.37,0,0,1-.84,1.22c-2.49,1.56-4.61,3.6-7.11,5.19-2.07,1.31-4,2.82-6.34,3.6l-4.12,1.39c-2.22.75-5.1.74-6.4,3.57a5.2,5.2,0,0,0-.43,2.23,55.44,55.44,0,0,1-1.11,12.35c-.48,2.21-1.1,4.46-1.45,6.65-.42,2.62-1.67,4.81-2.37,7.24a32.79,32.79,0,0,1-3.06,6.65,9,9,0,0,0-.64,2.33c-.46,1.73-1.53,3.27-1.65,5.1,0,.41-.51.78.34,1.11.48.19-.15,1-.41,1.45-.81,1.46-1.94,2.8-1.5,5a55.57,55.57,0,0,1,14.67-21.94c-.87,1.9-2.31,3.5-2.9,5.53-.07.43-.27.87,0,1.3l-1.1,2c-1.19-1-.66.39-.86.66-1.16,1.5-1.2,3.5-2.24,5.06-.22.33-.36.69,0,1s1.06,0,.52.66c-.21.26-.25,1.11-1,.68-.13-.07-.67-.07-.42.28.4.56-.57,1.09,0,1.51.25.17.55-.08.83-.25,2.75-1.62,4.3-4.23,5.77-6.91,2-3.57,2.5-7.75,4.9-11.17-.52.31-1.05.34-1.57.7-1.26.91-1.78,2.4-3,3.31l-.36-.36c1.18-2.11,3.18-3.5,4.7-5.3,1.3-1.55,3-2.6,4.44-4.19l.37,1.81a.64.64,0,0,0-.77.23,42.93,42.93,0,0,0-2.9,4.11c-1.87,2.51-2.33,5.52-3.53,8.28,5-2.89,6.75-7.88,8.71-13a17.29,17.29,0,0,0-3.82,4.81c-.86,1.92-2.22,3.61-2.77,5.69,0,.1-.23.87-.59.71s-.22-.69-.05-1.07c.74-1.65,1.69-3.2,2.47-4.83a29.89,29.89,0,0,1,3.22-5,7,7,0,0,0,1.71-2.14,1.65,1.65,0,0,1,1.32-.84c-1.69,1.23-.6,3.2-1.34,4.71,1.42-.66,1.74-2.3,2.93-3.15a11.68,11.68,0,0,0,3.46-4c.16-.3.56-.52.82-.29s0,.46-.27.71c-1.43,1.36-1.54,3.36-2,5.07a12.23,12.23,0,0,1-1.92,3.32c-2.26,3.62-4.23,7.43-6.89,10.8-.16.21-.53.55-.25,1a5.64,5.64,0,0,1,1-.91c1-.54,1.43-2.2,3.09-1.64.21.07.67-.58,1-.92a7.58,7.58,0,0,1,1.17-1.1c-.21,1.59-1.56,2.4-2.39,3.55-3.06,4.25-7.33,7.23-11.52,10.17-3.57,2.5-6.78,5.43-10.27,8a13.79,13.79,0,0,0-5,8.32,5.43,5.43,0,0,1-.95,1.81c-.74,1.15-.36,2.47-.31,3.7a21.9,21.9,0,0,1-1,8.51,2,2,0,0,0-.21,1.61c-.52,0-.37-.72-.94-.49.65,1,0,2-.06,3.11s.36,2.38-.89,3.16c-.06,0,0,.2,0,.3-.26,2-1.51,3.78-1.53,5.83,0,1.23-1.22,1.76-1.34,3-.2,2-1.68,3.72-1.94,5.82a4.62,4.62,0,0,1-1,1.95c-.61.84-.47,2.1-1,3.16a30.57,30.57,0,0,0-2.78,8.23,24.41,24.41,0,0,0-.38,5.74c.88-.83.63-2,1.15-2.85.81-1.34,1.69-2.69,1.64-4.37a.7.7,0,0,1,0-.3c2.26-.17,1.73-2.55,2.85-3.7s1.64-2.82,2.37-4.29c.13-.26.09-.7.41-.76s.17.39.32.57a.24.24,0,0,0,.24,0c.44-.41,1.09-.54,1.35-.1a5.29,5.29,0,0,1,.3,1.91s-.09.09-.09.12c.15.69-.52,1.74.28,2,.61.2.64-1,1-1.47,1.3-1.76,1.15-3.89,1.57-5.87a3.2,3.2,0,0,1,.39-.77,2.13,2.13,0,0,0,.19-1.71c-.52-1.22-.57-1.24.35-1.84.45-.29,1-.4,1-1.1,0-.18.33-.7.79-.47a.74.74,0,0,1,.28,1,2.39,2.39,0,0,0-.17,1.79c.61-.21.93-1,1.66-.93,0,.12.07.28,0,.3-.57.33-1.36.79-.86,1.42.33.42,1-.34,1.42-.7a11.82,11.82,0,0,1,3.07-2.24c1.21-.54,1.21-2.22,2.12-3.11.5-.49.48-1.61,1.6-1.43.28.9-.66,1.2-.95,1.81-.45,1-.59,2-1,2.93-.52,1.11-1.79.63-2.52,1.29-.37.33-1.29.27-.59,1.16.28.35-.26.38-.35.4-1.53.31-2.29,1.46-3.33,2.47-1.42,1.38-2.05,3-3,4.9A12.64,12.64,0,0,0,256,552c.89-.83,2-1.51,2.39-2.81.12.58-.18,1.16.1,1.71a1.25,1.25,0,0,0,.85-1.41c1,1.31.82,1.56-.15,2.63-.72.79-2,1.31-2,2.68,0,.19-.44.37-.68.56-.24-.4.51-.69.1-1.14-.83.74-1.65,1.47-2.49,2.2-.2.17-.29.81-.6.46-1-1.12-1.23,1-2,.42-.52,1.16-1.81,1.6-2.47,2.54a7.79,7.79,0,0,0-1.82,3.9,28.75,28.75,0,0,1,4.14-3.73c1.88-1.39,4-2.51,5.22-4.7,0,1.32-.17,2.62-1.41,3.42-.32.21-.62.34-.57.78l0-.05a3.69,3.69,0,0,0-2.15,1c-.79.54-.84,1.58-1.66,2-4.05,2.17-5.68,6.31-8,9.89a.7.7,0,0,0,.07.78A26.61,26.61,0,0,1,247,569.8a8,8,0,0,0,2.66-2.74,25.29,25.29,0,0,1,2.87-3.44c.87-.82,1.16-2.16,2.4-2.61l0,0c.43.44.42.48-.08.82-.07,0-.17.11-.17.16.07,2.57-2.3,3.73-3.43,5.57-.87,1.41-2.48,2.57-3.7,3.89-1.8,2-3.79,3.75-5.65,5.63a6.75,6.75,0,0,0-2,2.66c-.11.35-.13,1.05-.92.73-.25-.1-.58.28-.52.44.8,2-.59,3.6-.93,5.36-.59,3-1.6,6-1.88,9.09-.09,1-.23,2-.24,3,0,.37.31,1.5-.88,1.28-.26,0-.22.15-.23.28a71.24,71.24,0,0,1-1.51,8.49c-.49,2-.78,4.1-1.44,6.09a33.83,33.83,0,0,0-.88,4.5c-.38,2.06-1.53,3.94-1.8,6-.37,2.78-1.74,5.15-2.58,7.73a60.22,60.22,0,0,0-2,7.8c-.34,1.88-.62,3.83-.86,5.76a22.75,22.75,0,0,0-.49,3.78c.08,1.84-.72,3.55-.92,5.34a65.29,65.29,0,0,1-1.61,9.09,23.4,23.4,0,0,1-1,3c-.2.49-.35.88.13,1.23s.77-.15,1-.42c1.5-1.8,3.81-2.73,5.06-4.86.32-.55,1.49-1.77,2.55-.29.2.27.6.09.81-.36.94-2,2.8-3.2,4-5,.33-.47,1.45-.14,1.71-1.05.08.06.17.11.24.17.33.28.13.53,0,.81-.67,1.19-1.33,2.4-2.07,3.75,1.45-.18,2.29-1.64,4.09-1.26-1.69.73-2.46,2.22-4.21,2.44-1.29.17-.79,1.7-1.41,2.6,1.25-.62,2.5-.68,3.51-1.68,1.77-1.75,3.79-3.26,5-5.51.07-.13.06-.35.16-.41,2.23-1.26,2.27-1.3,3.38-3.32a7.59,7.59,0,0,1-2,4.39c-2.06,2.09-4.15,4.16-6.22,6.24-.3.3-.37.9-1,.75-.08,0-.44,0-.26.16,1.66,1.37-.93.35-.59,1.05.17.34-.79-.09-.54.5.08.19.39.29.59.44.22-.48.76.48.89-.18.08-.43.36-.57.84-.88-.25,1.22-.67,2-1.81,2.07-.25,0-.54.25-.4.52.27.51.4.12.57-.13,0-.06.32,0,.38,0a.41.41,0,0,1,0,.4c-1.41,1.36-1.46,3.55-3,4.84-2.4,2-4.52,4.21-7.42,5.68-3.42,1.73-7.2,2.8-10.24,5.35a8.38,8.38,0,0,1-2.36,1.52,2.07,2.07,0,0,0-.8,2.63c1.18,1.43,0,2.36-.47,3.27-.36.74-.83,1.33-.59,2.19.3,1.08-1.36,1.86-.5,3.05a.5.5,0,0,1-.48.17c-.48-.09-.59.3-.57.69,0,.7.61.15.86.21,0,.85-1.81.82-.69,1.94-.36.38-.61-.4-1.06,0a1.5,1.5,0,0,1,.85,2.24c-.58-.36-.55-.92-.65-1.49,0,1.23-1.07,2.2-.62,3.46a2.14,2.14,0,0,0,.09.3A3.38,3.38,0,0,0,206,709a1,1,0,0,1,.11.41c-1.56.51-.19,1.84-.75,2.67a1.16,1.16,0,0,0,0,1.64c.28.26.14.69-.2.95-.15.12-.32.21-.49.31.95.93.07,1.74-.13,2.62-.13.59-.48,1.19.2,1.8s-.45.74-.49,1.34c-.11,1.69-.81,3.37-.74,5,.05,1.39-1,2.27-.95,3.61a10.25,10.25,0,0,1-1,5.18c-.49,1-.41,2.3-1.62,2.89a.4.4,0,0,0-.11.09c1.12,1.74-1.42,2-1.29,3.22.11,1,.13,1.76-1,2.18.46.22,1.16-.05.74.78a19.76,19.76,0,0,1-1.79,2.48,12.19,12.19,0,0,0-1.48,3.92c-.38,1.45-.22,3-.75,4.44a25.22,25.22,0,0,1-3,6.08c-.06.09-.61,0-.36.33,1.21,1.46-.27,2.3-.84,3.16a38.18,38.18,0,0,0-2.87,6c1-1.66,1.31-1.43,1.16-.19-.29,2.44-2.07,4.25-2.65,6.57-.07.27-.17,2-1.55,1-.2-.14-.09.25-.14.39-.25.8.08,1.73-.48,2.45a13,13,0,0,0-1.08,1.22c-.2.35.19.18.35.26,1.12.57,0,1.35,0,2,0,.44-.33-.65-.95-.38.53.71,1.26,1.38.85,2.38H178c.21-1.55.34-3.11.68-4.63a4.26,4.26,0,0,1,.94-2c1-1.15,1-2.8,1.47-4.22,1-3,1.83-6.08,2.67-9.14,1.36-5,3.81-9.48,5.49-14.3a71,71,0,0,1,3.5-8.73,47.84,47.84,0,0,0,2.54-6.27,2.32,2.32,0,0,0,.13-1.5,23.82,23.82,0,0,0-2.93-6.78c-.19-.26-.74-.6-.2-.84,1.54-.7.26-2,.1-2.22-.9-1.14-.57-2.6-1.25-3.77-1.46-2.56-1.58-5.53-2.36-8.31a6.21,6.21,0,0,1-.1-2,11.77,11.77,0,0,0-1.86-6.5,4.51,4.51,0,0,1,0-5c.62.54.22,1,.2,1.53a9.31,9.31,0,0,0,1.3,4.62c.14.28.27.45.56.24a.68.68,0,0,0,.3-.77c-.12-.85-1.17-1.38-.82-2.58l2.07,3.18c.44-.79,0-1.29-.16-1.93a29.59,29.59,0,0,0-1.71-3.78c-.24-.58-.11-1.84.25-2,1-.52.93.86,1.3,1.3.57.68.61,1.08,1,0,.34-.85,1.42-.32,1.9-1l1.2,3.68a2.94,2.94,0,0,0,.3,1.48,3.16,3.16,0,0,1,0,2.53,6.31,6.31,0,0,0,.76,5.17c.21-.54.08-1.37.37-1.56,1.48-1,.57-2.17.47-3.31-.13-1.48-1.19-2.76-.9-4.32a2,2,0,0,1,1.13,1.39c.58,2,1.54,3.81,2.11,5.69.68,2.26,2,4.31,2.17,6.73.87-3.07.77-6.18.82-9.28,0-2.74.87-5.34,1.35-8,.39-2.16.94-4.27,1.5-6.37a31.55,31.55,0,0,1,2-5.42c.36-.75.29-1.74.93-2.25,1.94-1.55,1.47-4.4,3.33-6a1.36,1.36,0,0,0,.51-.9,3.22,3.22,0,0,1,1.25-3c1.38-1,.55-3.13,1.78-4.33,0,0-.64-.2-.39-.61s.54.17.8,0,.32-.28.3-.33c-.71-1.38.86-2,1.09-3.08s.89-2.45,1.11-3.71.15-2.82.5-4a31,31,0,0,0,1.08-8.65c0-4.75-.14-9.51-.33-14.26a4.57,4.57,0,0,0-1-2c-1.82-2.77-2.53-5.92-3.38-9.07-1.08-4,.05-8-.19-11.94-.06-1-.46-2.2.32-3.48.2,1.57.38,2.89.54,4.23.06.5-.13,1,.79,1,.53,0,.59.88.92,1.26.68.77.72,1.78,1.42,2.51-.83,0-.79-.9-1.56-1l1,2.67c.68-1.3,1.39-2.41.12-3.68-.54-.54-.35-1.44-.31-2.07a19.83,19.83,0,0,0-.58-3.34c-.06-.57-.14-1.35.33-1.4.67-.08.72.76.71,1.28,0,1.18,1.21,2.12.61,3.38,1.51.69,1.12,2.43,2,3.53.91-1.11.26-2.25,0-3.29-.51-1.87-.62-3.93-2.17-5.39-.07-.07-.09-.27-.13-.26-2.09,0-.83-1.84-1.47-2.65a3.34,3.34,0,0,1-.34-1.15c1.15-.31,1.1-.29,1.73,1.05.35.75.51,1.66,1.42,2.2.24-2.13-.61-4-.81-6.06,2.34,1.38,1.29,3.81,2.12,5.5a13,13,0,0,0,.1-4.36c-.27-.6.49-.44.42-.8l0,0c.74.35.73-.34,1-.69.39-.56.82-.91,1.47.11.12-1.42-1-2.54-.14-4a16.56,16.56,0,0,1,1.45,4.74q.22,2.51.32,5a1.62,1.62,0,0,0,1.48,1.7c.69.14.36.47.11.73-1.37,1.45-1.51,3.16-1.36,5.06a9.07,9.07,0,0,1-.69,2.78c.49.39.61-.53,1.12-.2a5.1,5.1,0,0,0-.19,2.94c1.48-5.93,3.09-11.42,4.14-17.07.6.14.25.68.5.73s.45-.35.48-.58c.65-4.17,1.77-8.26,2-12.51.18-3.13-.08-6.26.68-9.42.63-2.61,0-5.51.25-8.24a30.63,30.63,0,0,1,.94-4.32c.36-1.44,0-2.8.15-4.2a31,31,0,0,1,2-8.76c1.74-4,2.56-8.36,4.42-12.34a8.14,8.14,0,0,0,0-5.59c-.06-.22-.37-.33-.26-.66.79-2.28-.91-3.84-1.69-5.64a7.33,7.33,0,0,1-.79-1.79c-.45-3.23-2.18-6-3.36-8.9a41.64,41.64,0,0,1-2.84-10.72,5.4,5.4,0,0,1,1.64-4.08,3.3,3.3,0,0,0,.72-3.25c-.24-1-.21-1.75,1-2,.3,2-.54,4.15,1.08,5.89a1.57,1.57,0,0,1,.31,1c0,2.66,1.19,5,2.2,7.31-.75,1.66,1,2.19,1.45,3.31-.17-.79-.69-1.47-.47-2.32l2.63,3.87c-.12-.61.54-1,.37-1.6-.54-1.85-.73-3.77-1.24-5.64-1.22-4.52-4.22-7.89-6.35-11.8-1.09-.84-1.41-2.22-2.27-3.23-.23-.27,0-.72.39-.9s.5.25.6.47a33.14,33.14,0,0,0,3.31,5.1,32.75,32.75,0,0,1-2.57-15.66,33,33,0,0,0,5,10.56c.64-1.54.24-3.12.87-4.76l1.92,6c1-.64,0-2.08,1.2-2.72.25,1.24.49,2.45.73,3.66a2.44,2.44,0,0,0-.92,1.42,32.18,32.18,0,0,0-.19,6.7c.06,1.07-.8,1.83-.55,2.89a17.05,17.05,0,0,1,.93,4.74,16.2,16.2,0,0,0,.55-2.51,24.17,24.17,0,0,0,.07-4.53c-.14-2.91,0-5.84.08-8.76,1.24-.76,1,.3,1.09.93.42,0,.55-.25.6-.59,0-.13.1-.55.23-.22s.72,0,.64.34c-.32,1.7.22,3.35.19,5-.07,3.94,0,7.89.17,11.84a67.35,67.35,0,0,0,1.08-9.84,8.08,8.08,0,0,1,.79-3.57c.65-1.15.49-2.77.64-4.19a46.57,46.57,0,0,1,2.56-9.83c.19-.56.85-1,.12-1.83-.35-.38.56-1.13.86-1.68.8-1.46,1.49-3,2.31-4.42a6.86,6.86,0,0,0-.76-8.27,19.29,19.29,0,0,1-2.85-5.26,45.15,45.15,0,0,0-2.84-6,56.36,56.36,0,0,1-5.2-11.11,1.89,1.89,0,0,1-.13-.75,9.89,9.89,0,0,0-1.2-5.93,1.53,1.53,0,0,1-.19-1c.06-.22-.29-.66.24-.69.28,0,.69-.15.79.25s.15.86.6.62a1.05,1.05,0,0,0,.31-1.28c-.53-1-.71-2.13-1.2-3.13-.62-1.28-.19-1.72,1.12-1.62a1.17,1.17,0,0,0-.21,1.06,54.85,54.85,0,0,0,1.57,6.54c.46,1.4.61,1.74,2.16,2.07-1.27-1.73-.47-3.95-1.58-5.71a11,11,0,0,1-1.95-4c-.33-1.75-1-3.45-.54-5.35.24,3,1.82,5.38,3.16,8.18a19.35,19.35,0,0,0,.33-2.57c0-.64.39-.81.8-1a1,1,0,0,1,1.36.39,9.74,9.74,0,0,1,1.17,2.78c.16,1.12.63,1,1.34.61.1.95-.2,2,1.19,2.24.18,0,.3.61.42.94.29.82.28.85,1,1,.45.09.56.42.7.73A63.1,63.1,0,0,1,259,455.52a12.48,12.48,0,0,1,.62,4.89c0,.1,0,.26,0,.3,2.19,1.48,1.08,3.91,1.71,5.84,0,0,.07.07.23.21a9.5,9.5,0,0,0,.51-2.72c-.19-3.89,1-7.62,1.34-11.44.13-1.48.33-3,.46-4.43a54.64,54.64,0,0,1,1.16-7.57,70.19,70.19,0,0,1,3.51-12.09,29,29,0,0,1,3.15-6.27,4,4,0,0,0,.21-4.37c-.48-.85-.74-1.78-1.24-2.62-.4-.67-.32-.65.3-1.12.37-.28.23-.8.12-1.14-.94-2.87-1.17-6-2.69-8.63-1.84-3.14-2-6.57-2.56-9.94a7.08,7.08,0,0,0-1.27-2.73c-1.34-2.23-2.52-4.56-3.79-6.85a3.17,3.17,0,0,1-.37-2c2.15,3,3.57,6.12,6.47,8.18,0-.92-1-1.58-.15-2.35-.56-.3-.65-.9-.86-1.41a3.63,3.63,0,0,1-.09-2.89c.33-.77-.76-1.31-.16-2.29.41,1.35,2.19,1.43,2.62,3-1.28-4.88-.49-9.82-.55-14.75a23.91,23.91,0,0,0,.79,4c.4,1.43-.15,2.8-.11,4.17a18.21,18.21,0,0,0,2,8.78,3.6,3.6,0,0,1,.2,1c.7-.89.36-1.87.48-2.75a7.23,7.23,0,0,0-1.4-5.61,2,2,0,0,1-.41-2.41c.59,1.48,2,2.39,2,4.1,1.17-1.82.83-3.82.95-5.9,1.76,1.58,2,3.67,2.06,5.75,0,.55.64.3.72.93.18,1.46,1,2.81,1,4.39.25-1.75,0-3.52.54-5.25.54,2,1.45,3.89,1.51,6,.11,3.88.3,7.76.45,11.63-.3,2.48-1,4.93-.64,7.89,1-1.79.14-3.57,1.33-4.81-.74-.91.62-2.3-.7-3.08.33.09.73.35.73-.31,0-3.68.8-7.29.74-11a42.93,42.93,0,0,1,1.48-11.42c.58-2.24-.35-4.3-1.6-6.07a75.34,75.34,0,0,1-5.28-8.83l4.7,6.53.34-.18c-2.28-6.69-6.5-12.61-8.24-20,1.35,1.92,1.27,4,2.63,5.49.69-.75.15-1.51.05-2.17-.26-1.83.25-3.6.22-5.38,0-1.59-.65-1.85-2.06-1.1.8-1.52.8-1.52,3.41.49-.35-4.84-2.47-9.17-2.25-13.92,0,1.9,1.51,3.32,1.51,5.18,0,1,.6,1.25,1.19,1.59s.41-.78,1-.69c-.07.83-.08,1.93.67,2.2,1.49.53,1.17,1.87,1.68,2.82.16.29.17.72.74.85-.3-1.4-.92-2.74-.06-4.16.28-.46-.57-.58-1-.72s-.67-.21-.38-.57c.14-.17.16-.77.86-.37a3.49,3.49,0,0,1,1.55,1.38,56.49,56.49,0,0,1,4.8,10.42c.16.52-.11,1.15.48,1.66.77-.89.8-2.05,1.22-3a5.31,5.31,0,0,1,1.3-1.87c.31-.29.53-.6,1-.19a.75.75,0,0,1,.12,1.17,18.39,18.39,0,0,0-1.95,2.9c-.7,1.25-.7,2.68-1.29,4-.27.59.21,1.77.18,2.69,0,.61.31,1.35-.59,1.71-.44.18-.09.52,0,.78.32,1.19,1,2.23,1,3.55,0,.83-.17,1.39-1,1.42-.23,0-.59.11-.61-.27s.29-.24.53-.25c.64,0,.23-.34.08-.5a3.61,3.61,0,0,1-.78-2.34,11.9,11.9,0,0,0-1.17,5.27c.1,1.21.15,2.46-.81,3.41-.23.23-.26.27,0,.3.92.08.75.83.91,1.6,1-1.36,2.56-2.08,2.67-3.94s1.33-3,2.07-4.51c1.41-2.83,1.63-6,2.33-9a12.67,12.67,0,0,0,.3-4.18,17,17,0,0,1-.93,2.29c-.73,1.26.08,2.69-.59,4a5.06,5.06,0,0,0-.8,2.76c.23-1.12-.8-2.13-.19-3.24.12-.23-.39-1.24.64-.54.25.17.12-.21.08-.38a4.78,4.78,0,0,1,.79-4.29,3.32,3.32,0,0,0,.42-1.84c.38.05,0-1.69,1-.38.24.35.23-.1.27-.21.16-.43.29-.86.44-1.31.66.27.38,1,.63,1.5.81-.51.46-1.3.63-2,.54-2.19.83-4.48,2-6.51.63-1.14-.1-2.45.15-3.57.77-3.34-1.13-5.92-2.26-8.7a16.89,16.89,0,0,1-.34-2.27,20.52,20.52,0,0,1-1.07-6.26c0-.86-.71-1.48-.83-2.4a33.59,33.59,0,0,0-.57-3.78c-.45-1.81-1.21-3.53-1.81-5.3a3,3,0,0,1,0-.76,2.24,2.24,0,0,1,.91,1.69c0,.31-.2.81.4.83.8,0,0-.64.27-.7a1.32,1.32,0,0,0,1.1-1.45c.71.11.89.89,1.62,1.12.31-1.64-1.72-2.07-1.74-3.62.29.25.5.42.69.61s.42.39.66.19a.68.68,0,0,0,.11-.58c-.65-2.42-.27-4.86.06-7.24.11-.81-.41-1.76.61-2.89a95.1,95.1,0,0,0,.93,14.32,18.38,18.38,0,0,0,.75-10.22h0c.81.4.81.4.69,1.56a4.59,4.59,0,0,0,.73-3.27c0-1.14,0-2.28,0-3.59a2.32,2.32,0,0,1,.93,2c-.34,3.69.4,7.34.36,11,0,1.18-.6,2.3-.2,3.79,1.33-3.54,1.16-7,1.12-10.42.79.4.88,1.12,1.1,1.78-.38,2.74-.65,5.5-1.17,8.21-.4,2.09-1.25,4.08-1.54,6.21,0,.06-.1.11-.18.2l-.2-.83c-.35,2.4.53,4.64.62,7,1-1,1-2.34,1.68-3.35,1.49-2.3,1.53-5,1.37-7.43s-.41-5-.45-7.53a7.47,7.47,0,0,0-.14-2.48c.85.74.6,1.84.71,2.73.31,2.56.37,5.16.93,7.73.73-2.82-.31-5.69.29-8.53.53,5.24,1.86,10.44.45,15.79a14,14,0,0,0,1.06-4.37c.61,1.55,0,3.11,0,4.69a16.27,16.27,0,0,0,2.34-7.05c.15-4.56-.18-9.12.78-13.66.43-2,1.08-4.23.81-6.17-.5-3.61-.17-7.29-1.23-10.85a69.36,69.36,0,0,1-1.55-7.93c-.17-1-.81-1.79-.63-2.82.28,0,.75-.19.79.16.21,2,1,3.8,1.4,5.73a17.39,17.39,0,0,0,1,3.65,3.44,3.44,0,0,1,.57,2.29,2.28,2.28,0,0,0,.12.59L310,289c.36-1.31,1-2,1.32-3.12a29.64,29.64,0,0,1,1.72-5.92,21.58,21.58,0,0,0,1.77-4.34c.57-2.39,1-4.8,1.66-7.19.23-.91.68-2-.26-3.26,0,.77.15,1.27,0,1.59-1.35,2.46-2.14,5.2-3.65,7.57-.38.6-1,1.07-1,1.85,0,3-.9,5.91-1,8.86-.71,0-.9-.38-.92-1s.44-1.41.48-2.07a46.56,46.56,0,0,0,0-8.83c-.68.13-.27.88-.64,1.16-.86-1.12,0-2.15.08-3.21.08-3.34-1.64-7.49-4.22-10.85a1,1,0,0,1-.05-.61,9.83,9.83,0,0,0-.89-4.16c.55,2.28-.2,4.68.81,7.18l.13-1.69c1,1.8-.26,3.63.61,5.31,1.71,3.34,1.89,7.26,3.81,10.55.08.14.57.88-.05,1.14s-.77-.18-1-.67a29.11,29.11,0,0,1-1.89-5.94,7.91,7.91,0,0,0-1.26-3.15c-.26.87.45,1.53-.27,2-.63-1-.35-2.2-.43-3.29-.26-3.36-1.1-6.66-1.14-10,0-.81,0-2,.66-2.11s.82,1.12,1.08,1.79c.44,1.12.68,2.31,1.15,3.41.13.31.16,1.26,1.1.78.23-.11.41.36.4.69a2.9,2.9,0,0,0,.8,2.08,61.49,61.49,0,0,1-.63-8.79c.67.43.41,1.11.45,1.7a26.26,26.26,0,0,0,.79,5.66c.39-3.36-.35-6.67-.16-10.08-.74.41-.61,1-.64,1.55s.18,1-.45,1.18a2.25,2.25,0,0,1,.26-2.47c1.32-1.74,1.11-3.69,1.13-5.63a4.44,4.44,0,0,1,.45-2.52c.06,1.11.38,2.23.41,3.27.07,3.22,1.59,6.12,1.8,9.31a41.21,41.21,0,0,1,.45,5.63c1.4-.58,1.17-1.88,1.36-2.74.3-1.36,1.08-2.65.82-4.13,0-.06.05-.18.09-.18.19,0,.37-.06.53.18a2.82,2.82,0,0,1,.08,2.56c-.84,1.14.27,1.49.43,2.42a5.71,5.71,0,0,0,1-2.88c.4,1.38-.39,3,.73,4.22-1.35,1.26,0,2.57-.12,3.8a21.42,21.42,0,0,1-.44,4.67,60.84,60.84,0,0,0,2.2-11.37,66.3,66.3,0,0,1,3-15.58,4.06,4.06,0,0,0-.07-3.32c-1-1.88-.27-3.49.69-5,.36-.57-.17-.38-.19-.59-.32-3.94-1.53-7.69-2.42-11.51a25.21,25.21,0,0,1-1.05-7.67c1,2,.58,4.55,2.46,6.35a13.47,13.47,0,0,0-.68-3.61c-.6-2.94.06-5.8.09-8.69,0-1.12.72-.22,1.19-.46-1.87-1.17-.82-2.84-1-4.73,1.12,2,.8,4.08,2.1,5.57,1.39-4.09.3-8.46,1.63-12.61.57.27.84.75.7,1.13-1.15,3.11-.35,6.36-.74,9.52-.28,2.28.78,4.15,1.42,6.16a6.35,6.35,0,0,1,.47,2.75c-.73.1-.66-.8-1.37-1.19.76,1.76.52,3.49,1.34,5.19a3,3,0,0,0,0-1.41c.08-.88-1.2-1.76,0-2.6.09.58.74.95.46,1.72.27-.18.5-.26.5-.33a24.58,24.58,0,0,1,.09-6.76.4.4,0,0,0-.19-.34c-1.29-.26-.81-1.45-.6-1.85,1.14-2.25.37-4.32-.3-6.44a1.61,1.61,0,0,1,0-.92,14.42,14.42,0,0,1,1.55,6,13.51,13.51,0,0,0,1.12-4.41c0-.39.1-.77.53-.79.2,0,.38.29.41.59.37,3.73.78,7.45,1.11,11.18a16.2,16.2,0,0,1-.17,2.5,1.29,1.29,0,0,0,.49,1.31c-.05-.76.94-.39,1.1-1.07a6.94,6.94,0,0,0,.25-3.41c-.56-2.11-.12-4.17.21-6.24a55.69,55.69,0,0,1,1.12-6.32c.44-1.57.47-3.32,1.67-4.66.44-.49.1-1.09-.17-1.59a43.89,43.89,0,0,1-3.74-8.12,36,36,0,0,1-1.72-6.34,4.08,4.08,0,0,0-.85-2c-.18-.2-.91-1.07.3-1.18a.87.87,0,0,0,.07-.58c-1-2.54-.63-5.25-1-7.87,0-.14-.07-.34,0-.41,2.18-2.13.55-5.15,2-7.45.19.05-.2.54.13.68.5-.89.19-1.88.4-2.9.27,1,1.91,1.21,1.59,2.62-.69.06-.27-.55-.79-.85a11,11,0,0,0,.32,4.07,67.43,67.43,0,0,0,1.59,6.79c.95,3.13,1.39,6.41,2.07,9.63a12.66,12.66,0,0,0,.49,1.41,35,35,0,0,0,.22-10.16c-.36-3.33-2.52-6.06-2.7-9.38,2.64,4,3.73,8.46,4.24,13.14a22.15,22.15,0,0,0,.85-6.71c.85.33.49,1.11.81,1.71.45-1.33-.32-2.74.62-4v9a3.81,3.81,0,0,0,1.68-2.71c.5-3.21,1.68-6.32,1.75-9.59,0-2.45,1.18-4.79.52-7.32a36.26,36.26,0,0,0-2-5.53,78.61,78.61,0,0,0-4.67-8.69c-.67-1.1-1.86-1.74-2.5-3.07a6.13,6.13,0,0,1,3,3c.8,1.66,2.26,2.83,3.28,4.35.62.92-.34,2.11.76,2.78a4,4,0,0,1,.44.39c0-1-.83-1.83-.4-2.87a2.51,2.51,0,0,0,.19.36c1.6,2.06.89,4.81,2.06,7,.4.75,1.47.77,1.64,1.72,0,0,.46-.13.51-.62.23-2.1-.9-3.73-1.74-5.46-.31-.64-.64-1.27-1-1.91l0,0c.55-.15,1.51-.23,1.56-.48a6.64,6.64,0,0,0-.09-2.58c-.58-2.93-1.77-5.76-1.67-8.82,0-1,.23-1.93.36-2.92.56.28,0,.95.51,1.26l.13-2.63c.9,4.73-.34,9.45,2.39,13.41,1-.41-.09-1.32.79-1.87-.13,1.73,1.42,3,.81,4.75a1.86,1.86,0,0,0,.79-2.44,29.88,29.88,0,0,1-.36-3c-.61-2.45-1-5-1.69-7.35a28.15,28.15,0,0,0-1.29-4.09c-.15-.33-.36-.68-.82-.41-.16.1.06.6-.31.41-.15-.08-.22-.67.13-.79,1.9-.61.85-1.85.58-2.85a3.65,3.65,0,0,1-.08-1.5,15.35,15.35,0,0,1,2,4.33c0-3.32.84-6.48,1.51-9.66,1.35.51.58,1.74.37,2.45a23.41,23.41,0,0,0-.85,6.94c0,1.89-.31,3.8.4,5.65a.67.67,0,0,0,.48.48c.56-2.94,2.6-5.43,2.19-8.71-.36-2.87-1.41-5.61-1.45-8.53,1.45,4.27,3.47,8.42,2.54,13.21a4.77,4.77,0,0,0,1.13-3.83c.52.33.2.81.62,1.36,0-2.29,2.62-1.86,3.33-3.78.55-1.48,1.31-3,2.1-4.64-.88.31-.76,1.33-1.64,1.36a17.62,17.62,0,0,0,1.2-2.61c.73-2.41,2.08-4.61,2.42-7.11.09-.64-.65-1.58-1.16-2.06-1.44-1.34-1.38-3.29-2.31-4.83s-1.31-3.73-2.43-5.43a4.88,4.88,0,0,1-1-3.19c0-.55-.73-1.4-.79-2.17-.14-1.71.26-3.47-.58-5.1-.15-.3.06-.53.22-.69a2.25,2.25,0,0,0,.4-2.75c-.11-.25-.2-.67.24-.74a.43.43,0,0,1,.49.46c-.1,1.42.55,3.11.23,4.12-.6,1.88.76,3.09.74,4.68,0,.52.61,1.11.17,1.8-.14.22-.13.59.12.7.69.32.65,1,.81,1.55a15.75,15.75,0,0,0,3,5.83c.61.7.54,1.87,1.81,2.52a62.72,62.72,0,0,0-5-16.24l-.42,1.45c-.93-4.62.5-8.87.27-13.17a7.12,7.12,0,0,1,.48,3.33c-.14,1.16-.18,2.34-.27,3.58.61-.31.12-.89.7-1.28.38,1.6-.85,3.09-.25,4.57s.61,3,2,4.12a12.71,12.71,0,0,1,2.74-10c.4.24.11.72-.16,1.22a4.31,4.31,0,0,0-.38,4,1,1,0,0,1-.39,1.46c-1.48.69-1.21,2-1.17,3.29s.78,2.45.43,3.79c-.07.27.1,1,.75,1s.36-.61.44-1a1.08,1.08,0,0,0,0-.31c-.1-1.06.09-1,.84-1.84a3.34,3.34,0,0,0,.34-3,1.11,1.11,0,0,1,0-.82,2.14,2.14,0,0,0-.16-1.66.63.63,0,0,1,.41-1c.7-.09.37.55.43.87a4.19,4.19,0,0,1,0,.78c0,1.35-.27,2.77.92,3.83-.88-.35-.8.16-.9.81a33.08,33.08,0,0,0-.08,4.77,29.18,29.18,0,0,1-.82,5.51,8.58,8.58,0,0,0,.81,6.07c.31-.89-.47-2.43,1.31-2.69,0-1.5.42-3,.2-4.44-.26-1.6.36-3.11,0-4.69-.12-.6-.55-1.47.06-2.16.67,1,.29,2.09.41,3.14.05.48.39.77.45,1.21.18-3.83-.23-7.67.43-11.49.09,3.74.52,7.44.8,11.23A54.85,54.85,0,0,1,371.35,95c-.34,6.28-3.13,11.81-5.71,17.46,1.26-1.39,3.08-2,3.81-4,.6-1.64,2-3,3.15-4.43a10.7,10.7,0,0,1,2.68-2.88c.14,1.3-1.52,1.58-1.46,2.75-.25,0-.47,0-.65.26-1.13,1.81-2.33,3.58-3.44,5.4a27.18,27.18,0,0,0-2.69,7.13c-.1.38-.09.64.23.76s.48-.21.58-.5c.17-.49.1-1.18.91-1.18a6.09,6.09,0,0,1-1.4,3,8.62,8.62,0,0,0-1,3.55c1.86-2.24,3.49-4.42,6-5.91,1.4-.81,2.22-2.82,2.89-4.65-.9,0-1,.83-1.47,1.25l-.36-.3a16.86,16.86,0,0,1,2.57-2.95c.92-.67,1.07-.45,1.48-1.63.37,2.92-2,4.75-3,7.19.26.47.68-.47.89-.15-4.52,3.6-9.11,7.05-10.89,12.86.93,0,4.38-3.21,5.15-4.85.91.66.93,1.2,0,2.14-.81.8-1.72,1.5-2.54,2.29a55.11,55.11,0,0,0-5.42,5.95c-.33.43-1.45.41-1.55,1.11a24.09,24.09,0,0,1-.75,2.64c-.28,1.08-.54,2.17-.83,3.25-1,3.7-2.86,7.05-4.57,10.46-.6,1.21-2,2.11-1.89,3.53.17,1.75-.78,3.47.05,5.23a2.52,2.52,0,0,1-.31,2,1.75,1.75,0,0,0-.07,1.61c1.52-4.56,3.38-9,3.84-14.27.49,1.08,0,1.83.13,2.31a3.47,3.47,0,0,1-.24,2.11c2.79-1.83,3.41-5.27,6.37-6.63a3.2,3.2,0,0,1-1.27,2.81c-2.41,1.94-4.49,4.51-4.69,8.1,1.09-.88,1.54-2.26,2.55-2.81,1.42-.78,1.78-3.25,4.17-2.57.32.09,1.22-.84,1.59-1.6.19-.39,0-1,.67-1.18,0,.12,0,.25,0,.37.2,2-1.22,2.81-2.61,3.58a7.82,7.82,0,0,0-4.22,5.32,1.24,1.24,0,0,1-.57.71c-1.72,1-2.22,2.91-3.43,4.29-.07.08,0,.29,0,.46,2-1.07,3.5-2.65,5.34-3.83.08-.05.23-.05.28-.12,1.47-2.08,3.81-2.81,5.92-4a22.33,22.33,0,0,1,3.31-1.86c-.36.8-.62,1.63-1.72,1.6-.3,0-.61.34-.91.54a65.88,65.88,0,0,0-11.11,9.45,26.66,26.66,0,0,1-5.54,4c-1.54,1-1.9,2.84-2.4,4.52a18.82,18.82,0,0,0,6.33-4.15c1.35-1.28,2.74-2.57,4-4,1.51-1.72,3.4-3.12,4.89-4.9a8.94,8.94,0,0,0,1.78-2.44c.41-1.17.63.53.86,0,.58.55-.17.2-.24.34-1.69,3.42-4.84,5.56-7.28,8.32a52.29,52.29,0,0,1-6.82,6.21c-1.06.84-2.6.94-3.63,2.07a4.23,4.23,0,0,0-1.49,2.93c-.08,2.05-1,4-1.83,5.88-.67,1.62-1.65,3.17-1.91,5-.3,2.1-1.91,3.59-2.56,5.49a38.86,38.86,0,0,0-2.16,8.24c1.16-1.43,1.45-3.22,2.09-4.86a26.64,26.64,0,0,1,3.31-6.54c.63-.84,1-1.91,1.69-2.73.27-.3.41-.84.91-.47s0,.71-.28.92a3.72,3.72,0,0,0-1.27,2.36l1.75-2c.31.09-.05.78.45.69.87-1.86,1.52-3.77,2.9-5.27.15-.17.23-1.05.83-.4.46.5.38,1.31-.08,1.47-1.56.52-1.65,2-2.18,3.11-.87,1.87-1.66,3.77-2.5,5.71l-.67-.95c-.27.45-.28,1-.77,1.34-.13-.94.71-1.69.5-3a43.61,43.61,0,0,0-4.94,9.32c-1.16,3.19-2.15,6.38-1.85,9.84,1.49-1.23,1.83-3.18,2.47-4.86,1-2.77,1.66-5.69,2.84-8.43.35,1.6-.78,2.85-1,4.3-.1.54-.38,1.05-.46,1.6,0,.26-.37.77.45.81s.64-.5.62-.7a1.35,1.35,0,0,1,.74-1.35,2.24,2.24,0,0,0,1.61-1c1.13-1.21,1.89-2.75,2.92-3.94,2-2.36,2.76-5.2,3.94-7.89a5.59,5.59,0,0,1,.75-1.53c-.51,1.34.33,2.79-.38,4-.34.58-.3,1.51-1.22,1.8-.31.1,0,.91.39,1.13.79.4.37.76,0,1.16-1.61,1.68-3.31,3.28-4.82,5.07a23.12,23.12,0,0,0-3.56,4.77c-.09.18-.43.25-.65.37-.52-.45.25-.92,0-1.39-2.37,2-2.76,5-4.23,7.46,3.62-2.89,7.43-5.57,10.45-9a19.47,19.47,0,0,0,3.52-6.19c.34-.94.33-2.07,1.5-2.52.08,0,.14-.28.11-.4-.38-1.47,1-2.13,1.42-3.26,0,2.23-1.22,4-2.07,5.95-1.51,3.42-3.05,6.89-6,9.37-1.57,1.31-3.14,2.64-4.69,4-2.66,2.28-5.06,4.81-6.23,8.35a89.53,89.53,0,0,1-3.59,8.4c-1.47,3.28-3.09,6.5-4.45,9.82a44.41,44.41,0,0,0-2.15,6.86c-.24,1.06-1,1.89-1,3s-.44,2.51.31,3.71c.22.36-.09.7-.27,1a3,3,0,0,0-.2,2.21c3.56-4.86,4.52-10.71,7.71-15.8-.92.2-.75,1-1.36,1.07,0-1.12,1.1-1.53,1.23-2.72.68.8-.29,1.39.28,1.91a17,17,0,0,1,4.82-4.31c-.83,1.36-1.3,2.92-2.48,4.06-.8.78-.78,2-1.47,2.8-.09.1,0,.42-.1.43-2.12.49-1.21,2.65-2.11,3.8a2.13,2.13,0,0,0-.09.3l-2.14,6.7c2.18-2.17,4.94-3.48,6.22-6.48a94,94,0,0,0,3.72-9.64c.15-.5.74-.75.6-1.4-.6-.24-.71.38-1.18.71.06-1.87,2.38-2.84,1.71-4.84,1.58,1.66.56,3.55.56,5.47,1.92-.77,2.87-2.87,4.85-3.54.24,1-.58,1.36-1.07,1.79a21.07,21.07,0,0,0-7,10.91c-.09.37.13.83-.46,1a1.07,1.07,0,0,0-.65.78,27.18,27.18,0,0,0,6.74-6.25c.48,1.77.34,2-1.5,2.38l1,.63c-3.91,3.84-8.68,6.68-12.47,10.67-.47-.34.28-1.38-.56-1.3a1.26,1.26,0,0,0-1.14,1.78c-.8-.15,0-.88-.62-.88s-.27.46-.38.71c-.3.69-.59,1.39-.93,2.07-.11.22-.37.57-.48.55-1.73-.43-1.13,1-1.36,1.71s.39,1.41-.51,1.94c-.31.18.16.75.36,1.07.33.52.55-.12.82-.14,2.74-.29,4.25-2.69,6.51-3.82,1.44-.72,2.59-2,4-2.83.2-.11.23-.52.51-1.23a84,84,0,0,1-8.71,3.84c.3-.93.64-1.26,1.26-1.42a19.14,19.14,0,0,0,9.28-5,49,49,0,0,0,6.23-7.38,2.12,2.12,0,0,1-.9,2.44,21.45,21.45,0,0,0-3.38,4c-.07.09-.49,2.66-.57,2.76a12.65,12.65,0,0,1-2.08,2.23c-2.31,1.62-4.3,3.69-6.68,5.15S326,265.16,324,267a13.57,13.57,0,0,0-4,7c-1,4.07-2,8.13-4.16,11.85a11.24,11.24,0,0,0-1.55,4.82c.67-.2.22-.74.75-1a16.23,16.23,0,0,0-.2,4.24c1.22-2,1-4.35,2.33-6.14-.71,5-3.41,9.77-2.65,15.12.57-.31,1.07-.57,1.56-.85,1.8-1,1.57-3,1.5-4.48-.12-2.56.65-4.95.83-7.43a34.34,34.34,0,0,1,.77-3.37c.11-.65.33-1.38-.48-1.77-.3-.15-.21-.35-.09-.44,1.47-1.16,1.41-3.19,2.71-4.52-1,1.27-.18,2.7-.69,4.31,1.36-1,1.78-2.39,2.52-3.49.2-.31.35-.44.67-.46.39.77-.45,1.07-.66,1.61-1.09,2.84-2.41,5.59-3.47,8.45a14.87,14.87,0,0,0-.87,5.66,3.28,3.28,0,0,0,1.52-1.58,75.5,75.5,0,0,0,4.05-9.13c.16-.39.19-.79.68-.9l0,0a46.55,46.55,0,0,1-1.93,5.67c3.27-2.2,7.65-9.06,7.43-11.36-1.4.12-1.71,2.09-3.32,1.94l0,0a4,4,0,0,1,1.84-2.16,12.9,12.9,0,0,0,3.43-4.09c.5-.81.86-1.71,1.3-2.57.11-.22.21-.53.53-.41s.2.5.08.75a33.52,33.52,0,0,0-2.43,5.08c-.44,1.5-1,3-1.41,4.46-.27,1-1.42,1.85.09,2.73.24.14,0,.2-.11.27-1.74,1.22-1.83,3.48-3.15,5a41.85,41.85,0,0,0-3.13,4.86,18.31,18.31,0,0,0-1.76,4A27.19,27.19,0,0,1,315.73,309a44.22,44.22,0,0,0-6.14,6.77c-2.08,3.06-3.08,6.63-4.26,10.11,1.38-2,3.36-3.39,4.76-5.37-.56,2.27-2.16,4.05-2.17,6.56,1.51-1.08,2.43-2.67,3.9-3.67,1.07-.74,2.31-1.36,2.57-2.88.08-.48.5,0,.49.06-.37.68.72,1.36-.24,2.23-.75.67-.84,2.07-1.12,3.2,2-2.18,3.85-4.4,6.08-6.45.07.79-.5,1.21-.63,1.79s-.1.52.55.45c.38,0,.53.14.45.4a30.17,30.17,0,0,1-2,4.52c-.44.85-1.27,1.54-1.28,2.61-.25,0-.71-.1-.73,0-.48,1.38-1.86,2.07-2.49,3.31-.18.35-.74.7-.15,1.16-.74,0-1.45,0-1.73.91a.58.58,0,0,1-.86.39c-.49-.29-.17-.66,0-.92a17.78,17.78,0,0,1,2.48-3.67,23.08,23.08,0,0,0,4.68-6.35c.25-.56,1-1.47.4-2.47a12.91,12.91,0,0,1-2.18,3c-.47.37-1,.82-1,1.18,0,1.12-1,1.55-1.38,2.43s-.55,2.2-2,1.16a2.74,2.74,0,0,0-.25.39c-.84,2-1.7,3.93-2.49,5.92-.27.67-1.24,1.58-.65,2,.92.62,1.24-.77,1.82-1.26,1.06-.9,2.38-1.52,3.17-2.74a36.24,36.24,0,0,0,3.35-4.46c.86.91,0,1.9-.31,2.42-1.77,2.85-3.67,5.62-5.4,8.51a22.7,22.7,0,0,0-1.88,2.89c.74.08,1.1-.4,1.5-.79,2.39-2.31,3.85-5.27,5.57-8,.18-.3.17-1,.72-.78.7.25.21.81.05,1.16a31,31,0,0,1-4.15,6.7,35.6,35.6,0,0,1-7.62,7.32,15.92,15.92,0,0,0-2.43,2.53c-.71.77-1.62,1-2.28,1.71s-2,.73-1.4,2.15a.65.65,0,0,1-.2.54c-1.93,1.76-2.9,4.17-4.26,6.32-.53-.53.44-1,0-1.49a4.44,4.44,0,0,0-.81,1.52,17.75,17.75,0,0,1-2.87,5.51c-.05.06,0,.24,0,.36,1.17-.19.6,1.15,1.47,1.56-.28-.93,1.21-1.62-.1-2.51-.26-.17.1-.56.28-.6.8-.18.44-1.11,1-1.41.51.53,0,1-.2,1.42s-.37.67.08.91.49-.33.57-.45c.83-1.23,2.14-2,3-3.3a3.28,3.28,0,0,1,1.46-1.37c.4-.15.51-.28.81.37.45,1,1,1.7,0,2.57.38.35-.23,1.16.61,1.28a5,5,0,0,1-1.36,3.15A13,13,0,0,0,297,372a1,1,0,0,0,.12,1.16c.19.21.4.32.67.13,1.05-.74,2.38-1,3.09-2.36a40.83,40.83,0,0,1,2.87-4c2.23-3.21,2.47-4.24,1.52-6.91-.87,3.2-3.29,5-5.07,7.42Zm-21.59-18.44a11.84,11.84,0,0,0,2.32,3.62c-.41-1.44-.64-3-2.35-3.59a8.18,8.18,0,0,0-.57-2.18c-.26-.78-.72-.17-1.06-.2s-.71.32-.4.56C276.83,346.72,277,347.93,278.19,347.94ZM270.6,392.1a3.56,3.56,0,0,0-1.48-2.07,6.71,6.71,0,0,0,1.17,5v-1.59c.68.18.46.79.64,1.23.51,1.24.55,2.69,1.72,3.75-.64-1.16,1.42-1.8.34-3.18C272.19,394.2,272.12,392.61,270.6,392.1Zm22.78-16.18c-.64,1.7-2.38,2.83-2.46,4.82,0,.2-.11.36-.41.23s-.51.09-.54.45a6.13,6.13,0,0,0,.37,3.21c0-1.74,2-2.41,1.92-4.44,0-1.05,1.13-2.75,2.3-3.76.85-.73.44-1.57.52-2.38-.8.53-.94,1.52-1.76,1.93,0-1.36,1-2.25,1.68-3.27,1.35-2.05,1.58-4.78,3.79-6.31.05,0,0-.26,0-.39a2.27,2.27,0,0,1,.66-2.11,1.45,1.45,0,0,0-1.89,1.44c0,.31-.28.73-.57.38s-.33-.39-.64-.12-.23.54,0,.89a.82.82,0,0,1-.18,1.29c-2.49,2-3.35,4.77-3.66,7.79C292.4,376.54,293,376,293.38,375.93ZM306,334.58a4.47,4.47,0,0,1-.26-3.38c.25-1.3,1.08-2.49.78-3.9-.36.3-1,.56-1,.89-.27,2.24-1.51,4.23-1.48,6.56,0,2,.34,4.12-.57,6.08-.44-1.06-.68-2.1.23-3.06-1.09-1.23-.4-2.78-.66-4.27-2.31,3.68-4.88,15.92-4.07,19.26,1.11-1,3-1.5,2.41-3.67-.1-.4.31-.94.53-1.4a1.54,1.54,0,0,0,.29-1c-.42-1.85.82-3.4.93-5.15.09.43,0,1.11.78.59a22.49,22.49,0,0,0,1.83-1.52c.3-.26.18-.5-.05-.78-.54-.64-.58-4.45-.07-5.17.07-.09.29-.08.44-.11l.33,4c.41,0,.55-.71,1.06-.42s.39-.14.37-.33.22-.39-.25-.5c-.84-.19-1.35-.72-.65-1.62a19.26,19.26,0,0,0,2.66-4.94c.73-1.86,2.27-3.34,2.61-5.54a16.35,16.35,0,0,0-5,5.68C306.42,332.06,306.84,333.51,306,334.58ZM256,467c.38.1.81.43.75.69-.38,1.44,1.58,1.41,1.57,2.62,0,.33.4,0,.62,0,.44-.14.26-.37.19-.7a21.76,21.76,0,0,1-.21-5.49c.1-2.13-1.44-4-.6-6.16-1.47-1-.59-2.68-1-4a6.33,6.33,0,0,1-.56-3.16c.12-.71-.5-1.5-1-2.14-.6,1.09.53,2,0,3a2.66,2.66,0,0,1-1.21-1.4c-.75-1.75-1-3.62-1.75-5.36-.14-.34-.14-.81-.58-.73s-.39.54-.39.92c0,2.3-.25,4.59,0,6.9.25,2.56,1.46,4.76,2.38,7.33.3-1.41-.32-2.66.6-3.77-.67.83.38,1.17.37,2,0,2.14-.1,4.35.82,6.39.47,1,.08,2.07.05,3.1a2.86,2.86,0,0,1-.68-2.23,2.23,2.23,0,0,0-.59-1.87,34.74,34.74,0,0,1-3.75-4.89c-1.78-2.4-3.63-4.8-5.22-7.36-.15-.25-.48-.39-.77-.61-.17.72.22,1.11.45,1.55a56.4,56.4,0,0,1,2.68,5.24,31.37,31.37,0,0,0,1.43,3.15,44.81,44.81,0,0,0,5.15,7.1C255.28,467.79,255.61,467.22,256,467ZM322,209.7c-.16,7.32.41,14.49,3.5,21.32.9-.72,1.92-2,1.76-2.65-.59-2.32-.56-4.73-1.19-7-.83-3-1.73-6.06-2.48-9.11C323.3,211.19,323.31,210.09,322,209.7ZM234.49,513.9a11.88,11.88,0,0,0,.67,5.07c1,2.79,2.57,5.37,3.75,8.1a19,19,0,0,1,1.5,3.21c.08.33.55.6.88.83s.46-.21.46-.26a24.54,24.54,0,0,1-.06-6.37c0-.06-.34-.1-.38-.21-.3-.72-1.18-1.48-1.14-2,.19-2.07-1.16-3.4-2.07-4.89A14.06,14.06,0,0,0,234.49,513.9Zm8.64,19.87c1.35-1.47,1.42-3.39,2-5a15.24,15.24,0,0,0,.81-6.26c-.1-1.85.43-3.73.43-5.62a35.9,35.9,0,0,1,0-4,4,4,0,0,0-.81-3.57c.21,1.19.64,2.18.26,2.92-.73,1.4-.33,3-1.16,4.42a3.22,3.22,0,0,0,.07,3.18,1,1,0,0,1-.88,1.37c-.36,0-.67,0-.69.29-.06.72.37.27.68.28s.29.39,0,.68c-.7.67-.69.7-.25,1.4.17.28,0,.45-.08.69-.82,2-1.52,4-.73,6.18a.81.81,0,0,1,0,.61C242.15,532.23,242.74,532.92,243.13,533.76Zm92.94-341.12c.11-7.72-.65-15.22-5.76-21.55A119.36,119.36,0,0,0,336.07,192.64Zm-58.9,199.22c-3.56,6.29-3.64,13-2.5,20.3A43.38,43.38,0,0,0,277.17,391.86ZM353.76,144.1c-.29-1.71.63-2.77.94-4s.86-2.59,1.13-3.91a40.75,40.75,0,0,1,.54-4c.42-1.32-.08-2.52,0-3.85-3.12,4.58-6,17.13-4.82,20.77,1.19-2.25,2.9-4.17,3-6.85Zm-108,413.55c-.48.25-.93.3-1.13.84-.74,2-2,3.84-2.86,5.77-.32.68-1.08,1.23-1,2,.12,2.47-1.3,4.43-2,6.63-.26.85-1,2-.18,2.57.41.3,1.52-.54,2-1.42a40.15,40.15,0,0,0,4.94-13.83A4.39,4.39,0,0,0,245.77,557.65Zm25.41-65.89c-.47-.42-.83.05-1.09.23a29.36,29.36,0,0,1-4.47,2.21,16.35,16.35,0,0,0-4.67,3.74c-.09.09-.45.34-.11.43,1.13.33.33.27.12.81-.39,1-1.59,1.67-1.55,3.24.5-1,1.32-.91,1.91-1.37,3.75-2.94,7.55-5.83,11.4-8.63,1.41-1,2.72-2.14,4-3.29.34-.3.47-.48.3-.85a.41.41,0,0,0-.38-.05c-1.5,1.63-4.12,1.82-5.14,4.07a1,1,0,0,1-1.34.42C270.34,492.23,271.16,492.4,271.18,491.77Zm-3.93-98.93a2.35,2.35,0,0,1-.1,2c-.16.54.6.64.58.7-.49,1.1,1.15,1.9.41,3,1.5,1.74,1.26,4.13,2.27,6,.89,1.68.69,3.84,2.29,5.22.06.05-.11.72.35.72s.31-.54.34-.84a18.11,18.11,0,0,0-.59-4.88,31.67,31.67,0,0,0-1.48-4.7,29.34,29.34,0,0,0-2.67-6C268.34,393.61,268.32,392.8,267.25,392.83Zm8.5-40.47c.09,3.34,1.35,6.17,2.62,9s2.78,5.49,4.18,8.23c.59-1.33-.35-2.28-.4-3.4-.1-2.08-.83-4.05-1.07-6.13a6.68,6.68,0,0,0-2.95-4.62A7.18,7.18,0,0,1,275.75,352.36ZM218.22,633.49c.17-.16.32-.25.39-.38.81-1.53.25-3.34-.75-4.79a4.1,4.1,0,0,1-.39-2.84c.24-.78-.09-1.14-.13-1.69s-.66-.81-.59-1.29c.32-2.17-1.42-3.8-1.53-5.86a2.35,2.35,0,0,0-.19-.53C213.68,618.94,214.9,629.2,218.22,633.49ZM293,307.89c-1.79,3,1.41,14.27,3.59,18.2.84-5.15-.59-9.69-3.17-14.26,1,.46,1,1.3,1.75,1.51A12,12,0,0,0,293,307.89Zm37.29-100.63c-.47,0-.52.24-.58.44a28.2,28.2,0,0,0-1.24,7.14c-.08,2.19.1,4.4-.06,6.58-.1,1.36.72,2.86-.53,4.11-.18.18-.27.92.16,1.09.25.1.71,0,.9-.64a32,32,0,0,0,1.68-6.27C331,215.55,330.26,211.41,330.28,207.25Zm32.17-82.72c-.42-.28,0-1-.53-.91s-.62.6-.64,1.07c0,1.48,0,3-.85,4.28-.23.34.1.58.36.72.85.46,2-.48,2.53-1.2,1-1.28.34-2.92,1.27-4.12.15-.19-.07-.43,0-.55.38-1.43-.12-2.94.47-4.34.89-2.13,1.34-4.41,2.26-6.55a6.16,6.16,0,0,0-1.5,1.6c-.32.57-1.32.89-.94,1.7a1.53,1.53,0,0,1-.34,1.69A13.48,13.48,0,0,0,362.45,124.54ZM231,672c-.6-.52-.93-.24-1.3-.05a9.39,9.39,0,0,1-1.91.86,3.6,3.6,0,0,0-2,.85c-.55.41-.71,1.23-1.38,1.37-3.36.66-5.07,3.54-7.46,5.5a3,3,0,0,1-1.46.89,3.06,3.06,0,0,0-2.58,3c.49-.56.87-1.35,1.48-1.63,3.21-1.5,5.83-4,9.2-5.26,1.16-.42,1.85-1.79,3.12-1.8,1,0,.84-.89,1.29-1.15C229.19,673.91,229.69,672.62,231,672Zm52.44-307.15c.87-3.92,1.59-6.08-.8-8.7-.29-.31-.27-1-.9-.87-.24,0-.5.71-.53-.14-.06-1.79-1.3-3.05-2.27-4.32s-1.57-2.95-3.3-3.55a8.32,8.32,0,0,0,3.1,6.89l-1.31-3.11a18.5,18.5,0,0,1,4.1,6.22A24,24,0,0,1,283.45,364.88ZM267.53,492c3.08-1,6.11-2.08,7.75-5.27a21.31,21.31,0,0,1,1.83-2.45c.34-.48,1-1.09.51-1.59s-.75.47-1.18.68a3.34,3.34,0,0,0-.57.44c-1.22,1-2.4,2.28-3.93,2.47-1.31.16-1.52.95-2.09,1.75C268.94,489.26,268.69,490.87,267.53,492Zm43.08-190.4c.3,1,.9,2.08.55,3.08a4.69,4.69,0,0,0-.26,3.22c.2.6-.13,1.31.21,2,.62-.27,1.17-.37,1.45-1.19a7,7,0,0,0,.55-2.61,32.27,32.27,0,0,1,.9-11,2.72,2.72,0,0,0-.22-2.08,32.33,32.33,0,0,1-1.38,4.73,16.59,16.59,0,0,0-1,4.65C311.17,302,311.1,301.62,310.61,301.58Zm-47.2,186.17c-.44.25-1.37.08-1.25.24.91,1.16-.24,1.81-.67,2.41s-.26,2.15-1.74,2c.33.87-.29,1.37-.64,2s-1.06,1.06-1.1,1.51c-.22,2.37-1.87,4.33-1.86,6.74,0,.27-.72.38-.2.78a.72.72,0,0,0,1.15-.25,5.25,5.25,0,0,0,.73-1.48c.3-1.4.5-3,1.56-4a3.22,3.22,0,0,0,1.1-2,6.94,6.94,0,0,1,.85-2.59C262.12,491.37,262.73,489.55,263.41,487.76Zm87.91-330.11c-2.76,4.71-5.43,14.21-4.26,16C347.92,168,352,163.54,351.32,157.65Zm-39.47,130.5c-1.22,1.09-2.44,2.33-2.6,3.84-.22,2.05-.9,4-1.12,6-.26,2.44-.86,4.86-.44,7.37.24-.8,1.61-1.34.9-2.25-.89-1.14,0-1.95,0-3.27.54,1.07-.18,1.87.34,2.66a24.22,24.22,0,0,0,.74-3.93c0-.18.27-.7-.1-.49-.86.5-.54-.2-.5-.44.08-.47.77-.58.85-.78C311,294.08,310.45,290.92,311.84,288.15Zm-.38-22.22c.15-.53.29-1,.39-1.4.88-3.88.07-7.68-.62-11.48-.09-.48,0-1.19-.83-1.07s-.42.78-.39,1.13q.4,5.39.29,10.8c0,.26,0,.7.22.67C311.69,264.44,311,265.45,311.46,265.93Zm-38.14,114.5c-.51,1.7,0,3.38-.2,5.06-.07.55-.55,1-.23,1.71a3.58,3.58,0,0,1-.35,2.6.42.42,0,0,0,0,.3c.35,1.17.36,2.51,1.53,3.23,2.14-2.2.22-4.71.57-7.07C274.94,384.21,273.82,382.37,273.33,380.43Zm45.57-80.68c2.82-4.74,7.29-7.92,9.21-13-.78,1.08-2.43,1.44-2.53,3.11,0,.3-.34,1-.62,0-.15-.54-.4,0-.49.08-.47.57-.92,1.17-1.35,1.77-1.18,1.64-2.23,3.38-3.56,4.89A3.13,3.13,0,0,0,318.9,299.75Zm-104,378.77c.05.38,0,.78.52.56a7.26,7.26,0,0,0,3.87-4.35,9.79,9.79,0,0,0,.43-3.22c.64.08.8-.32.47-.7-.17-.2-.62,0-1,.35-1.81,1.5-2.64,3.63-3.79,5.54A6.7,6.7,0,0,0,214.92,678.51Zm87.29-360.84q-1.74,4.32-3.48,8.64c-.16.41-.33,1.19-.66,1-.86-.48-.59.14-.59.46,0,1.09.26,1.45,1.12,1.63,0,0,.07.08.08.13.34,1,.46.35.71-.06a14.26,14.26,0,0,0,1.25-3.78C301.38,323.06,302.33,320.48,302.21,317.67ZM287.61,374a3.82,3.82,0,0,0-1.6,2.1c-.75,3.05-1.59,6.12-1.32,9.31.11,1.34-.86,2.73.38,4.31C285.45,384.29,286.86,379.33,287.61,374Zm15.81-24.78c3.37-3.41,5-7.58,7.54-11.08-.5,0-.54.59-1,.57-1.87-.06-2.51,1.31-3.16,2.68s-.81,2.85-1.76,4.07A5.59,5.59,0,0,0,303.42,349.17Zm-52.67,106a13.57,13.57,0,0,0-.45-4.48c-.09-.34-.1-.58-.55-.78-1.83-.79-3.07-2.36-4.46-3.71-.23-.22-.2-.68-.37-1a7.78,7.78,0,0,0-.88-1C245,448.92,249.05,451.31,250.76,455.21Zm87.43-264.9c1.58-4.81,4-9.37,4.25-14.58C340.8,180.54,338.25,185.07,338.18,190.32Zm-143.74,534c-.6-2.74-1.77-5.32-1.43-8.19,0-.16-.18-.35-.3-.51a26,26,0,0,1-3-4.43C191.12,715.64,191.77,720.34,194.44,724.32Zm54.61-286.63c-.09,0-.6.2-.58.3.17,1.55-.33,3.09.09,4.69.23.91,1,1.83.67,2.74-.5,1.51.73,2.45.81,3.74C250.32,445.27,250.55,441.41,249.05,437.69Zm-13,55.5c-.51,1.9,2.23,8.11,3.12,10C240.18,500.45,238.86,496.19,236.1,493.19Zm22.11-16.56a4.11,4.11,0,0,0,.39-4.18c-.29-.62-1.12-1-1.06-1.13.32-.94.24-1.34-.85-1.06-.06-.75-.83-.24-1.07-.6a4.6,4.6,0,0,0-2.5-2.28c1.19,1.84,1.65,3.88,3.23,5A4.18,4.18,0,0,1,258.2,476.63ZM197,710.38a1.3,1.3,0,0,0-.57.94,11.86,11.86,0,0,0,.08,4.28c.53,2.79-.68,6.09,2.21,8.27-1.1-2-.67-4.2-1-6.28C197.29,715.24,197.31,712.87,197,710.38Zm44.8-201.12a23.12,23.12,0,0,1,.36-6.15,5.78,5.78,0,0,0-1.1-5c.55,3.1-1.33,5.68-.25,8.37-.44.31-.71-.36-1.1,0C240.27,507.36,240.43,508.54,241.83,509.27Zm15.77-25.83c.06,1-.95,1.35-1.17,2.23-.37,1.45-.79,2.91-1.26,4.35-.23.73-1.06-.36-.79.44a3.09,3.09,0,0,1-.3,2.77A6,6,0,0,0,253,496.5c0,.2-.33.48,0,.62s.48-.13.62-.45c.82-1.9,1.71-3.76,2.39-5.73.3-.86.68-1.41.29-2.42a2.47,2.47,0,0,1,.57-2.33C257.94,485.41,257.88,484.49,257.6,483.43Zm19.53-2.55c.76.07,1-.44,1.28-.74,2.21-2,3.39-4.81,5.65-6.76.23-.2.34-1,0-1.24-.58-.43-.51.34-.75.58-1.06,1.07-1.79,2.48-3.16,3.24-.74.41-1.44.83-1.51,1.78C278.56,479,277.44,479.7,277.13,480.88Zm-55,132.65c.3-.73,1.06-1,1.21-1.93.12-.73-.38-1.27-.2-1.9a13.32,13.32,0,0,0,.08-5.95C222.82,607,220.39,609.94,222.08,613.52ZM324.37,241.7c.78-2.52,2.81-4.46,2.74-7.29a1.48,1.48,0,0,0-1.51,1.08,4.1,4.1,0,0,1-2.1,2.63c-.24.1-.82.57-.47.76C324.17,239.52,323.47,240.87,324.37,241.7ZM224.25,613.25c-.5,1.42-.86,2.45-1.15,3.46-.67,2.28-1.09,4.64-1.59,7-.05.26-.12.66.32.75s.5-.16.68-.46a2.42,2.42,0,0,0,.24-1c.17-1.34.66-2.61.83-4l.18,1.21c0-.68,1.14-1.13.53-1.73-.93-.92-.64-1.83-.27-2.78A3.58,3.58,0,0,0,224.25,613.25ZM282.61,347.8c-1.31,1.93-.36,6.81,1.94,9.15C283.38,353.78,284.42,350.57,282.61,347.8ZM231,661.81c-1.28,2.53-3,4.85-3.2,7.94.93-.48,1.15-1.79,2.36-1.63.06,0,.26-.34.23-.48C229.91,665.62,230.65,663.75,231,661.81Zm119.86-519.5a49.48,49.48,0,0,1,2.14-9.62C350.54,136.16,350.33,137.16,350.85,142.31Zm-3.9,21.52c1.58-3,3-5.57,4.34-8.16.17-.31.47-.61,0-.93s-.63.19-.81.39a10.6,10.6,0,0,0-2.3,4.43C347.86,160.85,346.87,161.95,346.95,163.83ZM290.81,368.68c-2.42,2.45-2.69,5.4-2.91,8.71A24.17,24.17,0,0,0,290.81,368.68ZM224.67,621.86a13.09,13.09,0,0,0-2.51,7.79C223.35,627.15,224.9,624.76,224.67,621.86ZM222,672.52c.08-.07.2-.13.23-.21.65-1.5,2.29-2.26,2.86-3.81.2-.55,0-1.48.6-1.61.95-.21.23-.51.15-.75-.23-.63-.46-.08-.59.05a19.68,19.68,0,0,0-3.55,5.67C221.54,672.29,221.7,672.41,222,672.52Zm85.56-365.85a9.28,9.28,0,0,0-.22,2.57c.07,1.3,1.27,2.7-.08,4-.26.25.15.42.41.33s.54.1.28.28c-.79.57.18.56.23.59.41.24.53,0,.53-.4a13,13,0,0,0-.11-3.86C308.24,309,309,307.59,307.58,306.67ZM193.88,717.72c.47,2.85.93,5.73,2.92,8.24C196.59,722.83,195.11,720.33,193.88,717.72ZM296.35,312.41c1.08-4.37,1.43-9.6.86-11.43-.41.38-.19.82-.11,1.22a7.75,7.75,0,0,1-.53,4.82C295.59,308.94,296.22,310.6,296.35,312.41Zm-102.62,399c-1.92-1.45-2.19-4-4-5.49C190.2,708.35,190.45,710.93,193.73,711.43Zm87-362.06a29.2,29.2,0,0,0-3.19-8.53C278.11,343.73,278.64,346.62,280.76,349.37ZM266.81,449.94c-.39.64-1.2.49-1.09,1.09a34.4,34.4,0,0,1,.12,5.94c0,.23-.14.8.62.76A73.78,73.78,0,0,0,266.81,449.94ZM253.06,508c0,.4,0,.82.4.92s.62-.31.78-.6c.4-.71.53-1.53,1-2.25.15-.23-.4-1.21-.84-1.48s-1,.29-1,.81A6.45,6.45,0,0,1,253.06,508ZM285.3,354.94a12.53,12.53,0,0,0-1.91-8.77Zm62.94-202.26c-.51-2.85.66-5.53-1.23-7.81C347.47,147.34,346.58,150,348.24,152.68ZM192.81,751.46l-.3-.17c-1,1.59-2,3.15-2.84,4.79-.17.32-.54,1.11,0,1.35s1-.31,1.19-.82C191.52,754.91,192.15,753.18,192.81,751.46Zm88.68-352.66c0-3.14,1-6.24.32-9.42a48.4,48.4,0,0,0-.52,4.89C281.19,395.76,280.6,397.32,281.48,398.81Zm15.15-45c.14-3.07,1.06-6.07,1.19-9.15C296.55,347.61,296.6,350.71,296.64,353.82ZM348.71,151.4c.41.25-.27,1.38.42,1.06a2.86,2.86,0,0,0,1.69-2.17c0-.66-.72-1.87-1.17-1.89-.91,0-.48,1.11-.73,1.72A6.16,6.16,0,0,0,348.71,151.4Zm-36,116c-2.11,1.71-1,4.09-1.69,6C311.59,271.49,313.19,269.92,312.69,267.41Zm5.9,6.74c-.57,1-.36,2.27-1.54,2.93a.6.6,0,0,0-.16.55c.51,1.3-1.16,2.07-.78,3.32-.53-.06-.65.27-.39.59s.62-.05.74-.25A19.09,19.09,0,0,0,318.59,274.15Zm19.24-87.51c-.07-1.63,1.75-3.2.32-4.92C336.8,183.3,337.09,185,337.83,186.64ZM234.57,506.88l-.56,2.51c-.21.93.33,1.48,1,2,.48.38.81-.05.74-.29C235.31,509.83,235.38,508.42,234.57,506.88Zm105.58-333c-.61,2.9-1.32,5.45-.84,8.16C339.26,179.37,340.81,176.93,340.14,173.86Zm-5.81,36.85c.43-2.09,1.25-4.13.91-6.6A11.91,11.91,0,0,0,334.34,210.71ZM314.8,260.55c-1.28,1.3-.55,3-1,4.44-.14.41.26.5.55.59.59.18.34-.35.41-.54C315.21,263.57,314.5,262.06,314.8,260.55ZM199.12,714.83a17.84,17.84,0,0,0,.1,5.75C201,718.41,199.23,716.66,199.12,714.83Zm-2.83,15.36c0,.5-1,.28-.82,1,.07.37.32.84.64.76,1.17-.29,1,.46,1,1.13a3.06,3.06,0,0,0,.52,1.55C197.78,733,198.09,731.37,196.3,730.19ZM187.4,764.7c.55-.6.59-1.36,1-2,.95-1.36.8-1.59-1-1.82.32.48.5,1.53.18,1.31-.86-.57-.44.2-.58.35C186.24,763.41,187.63,763.9,187.4,764.7Zm73.35-287.4c-.31-.26,0-.68-.44-.83a11.73,11.73,0,0,1-1,3.19c-.08.19-.19.28,0,.45a.42.42,0,0,0,.55.11c.75-.36,1.82-3.28,1.48-4.19Zm7.64-32.37c-1.48-.57-2-.19-1.93,1.33.05.74.07,1.48.14,2.3C267.73,447.51,267.24,445.85,268.4,444.93Zm-4.71,25.93c.65-2.7,1.65-5.31,1.69-8.12C265.07,465.51,263.54,468,263.69,470.86ZM314.05,308c.75-1,1.72-1.55,2.1-2.59.11-.3,0-1-.26-.71-.58.75-2.6.33-1.86,2.17A3.8,3.8,0,0,1,314.05,308ZM251.6,507.6c-1.17,1.37-.54,3.12-1,4.66,0,.1.25.39.39.4s.13-.3.19-.46C251.8,510.72,251.31,509.13,251.6,507.6ZM332,225.66a17.09,17.09,0,0,0,2.08-5.43C332.78,222.07,331.69,223.52,332,225.66ZM236.55,566.82c0,1.63-1.46,3.22-.17,4.92C236.25,570.09,237.05,568.51,236.55,566.82ZM293,358.74c-.41,1.38-1.75,2.53-1.15,4.37A5.51,5.51,0,0,0,293,358.74Zm-71.83,269c-2.15.38-.82,2.09-1.16,3.2,0,.06.21.2.32.3a2.51,2.51,0,0,0,.19-.32C221,629.88,221.56,628.91,221.19,627.72Zm55.63-185.44-.12-.41c-2,.28-3.32,1.85-5.14,2.44l.18.38Zm22.65-108.78c1-1.27,2.33-2.34,2.51-4.1A13,13,0,0,0,299.47,333.49Zm22.29-67.69c.87-.14.67-1.26,1.25-1.36s.49-.37.24-.46c-.41-.15-.26-1.12-.82-.66-.29.23-1.13-.07-.81.42C322.08,264.46,321.5,265.14,321.76,265.8Zm-85,315.47c.87-.43.51-1.74,1.53-2-.23-.42.28-1-.19-1.3-.63-.34-.83.38-.89.73A7.71,7.71,0,0,0,236.78,581.27ZM275.1,439.85c1.33-1.1,2.83-1.62,2.21-3.34A9.42,9.42,0,0,0,275.1,439.85Zm47-213,.57-.14-1.6-5.52C320.64,223.61,322.23,225,322.1,226.89Zm-6.84,76.91c1.94-.23,2.37-.55,2.64-2C317.11,302.52,315.88,302.67,315.25,303.8ZM219,623.63c.5-1.53.35-2.09-.86-3.58A7.09,7.09,0,0,0,219,623.63Zm65.68-246.84c1.1-1.21.31-2.73,1.08-3.85l-.37-.25c-.28-.19-.38,0-.37.22C285,374.15,284.42,375.34,284.64,376.78ZM334.5,216.56c-1.16.53-.09,1.89-.93,2.55a1,1,0,0,0,.18.23c.23.17.39,0,.49-.16C334.82,218.36,335.29,217.52,334.5,216.56ZM236.11,513.2a7.8,7.8,0,0,1-2-1.69C233.63,513.18,234.22,513.74,236.11,513.2Zm12.29,40.1c-.09,1.16-.87,2.2-.39,3.47A4.32,4.32,0,0,0,248.4,553.3ZM244,544.49c1.14-1.46,1.13-2.95,1.39-4.35A13.83,13.83,0,0,0,244,544.49Zm-43.85,180a5.79,5.79,0,0,0-.63-3.56C198.83,722.38,199.82,723.35,200.12,724.48ZM289.82,367c.28-.92,1.37-1.44,1.39-2.55C289.65,364.72,289.69,365.82,289.82,367ZM277,434.18c-.44,1-1.6,1.58-1.65,3A3.83,3.83,0,0,0,277,434.18ZM210.5,686.63c1.22-.89,1.13-2.41,1.69-3.62C211.11,684,211.15,685.46,210.5,686.63Z"/><path class="cls-1" d="M375.93,86.66c-.46,1.53-1.92,2.27-2.77,3.51-.61.89-.81,2.15-2,2.6l0,0a2.07,2.07,0,0,1,.48-1.11c1.47-1.51.46-3.7,1.44-5.35-1.33-2.69-.48-5.67-1-8.5-.36-1.81-.29-3.8-.9-6.09,2.11,2.25,1.23,4.89,2.18,7.1l.21-1.32c1.09.85-.29,1.84.15,2.74,0,.08-.24.31-.2.38.32.64-.13,1.69.78,1.94.74.2.92-.72,1.32-1.15,1.15-1.21.37-2.77.63-4.16a6,6,0,0,1,.95-2.66v2.51c1.28-1.24,2.74-2.07,2.88-3.9,0-.35.28-.09.44-.09,2,0,3-1.46,3.88-3,.14-.22-.16-.84.55-.46s.05.43,0,.64a76.59,76.59,0,0,1-5.61,11.44,22.56,22.56,0,0,0-1.46,2.7c-.39-.19-1,.22-1.21-.4s.18-.75.51-1.12a18.73,18.73,0,0,0,2.35-3.2,16.6,16.6,0,0,0,2.27-5.25c-2.9,3.5-6,6.88-7.73,11.14a4.61,4.61,0,0,0,2.22-1.82,2,2,0,0,1-1,1.87,3.68,3.68,0,0,0-1.2,1.74c-.09.22-.13.36.05.53s.36,0,.5-.11Z"/><path class="cls-1" d="M370,114.12l1.59-2.23c-.81.44-1.32.16-1.49-.37-.26-.81.63-.55.91-.64.8-.27.94-1,1.09-1.53.51-1.86,1.83-3.48,1.62-5.54l1.39.16,0,0a30.74,30.74,0,0,0-2,6.87,3.47,3.47,0,0,1-1.91,2.5C370.7,113.53,371,114.8,370,114.12Z"/><path class="cls-1" d="M353.28,185.29c-.33-.24-.27,1.09-.8.18-.32-.55-.48.06-.55.21a1.31,1.31,0,0,1-1.28.89,37.22,37.22,0,0,0,4.84-10.66c.12,3-1.12,5.81-1.5,8.76l-.67-.74a1.48,1.48,0,0,0,0,1.36Z"/><path class="cls-1" d="M371.16,92.76c-.12,1.65-1.1,3-1.49,4.58-.06.22-.3.26-.52.22s-.28-.25-.28-.55a33.63,33.63,0,0,0-.31-6.54c-.08-.47-1-1.67.64-1.78.13,0,.19-.93.49-1.41,0,2,0,3.92,0,5.88,0,.42-.51.92.13,1.18s.54-.54.83-.81a4.54,4.54,0,0,0,.56-.73Z"/><path class="cls-1" d="M344.4,202.62a2.24,2.24,0,0,1-1.61,1c.43-1.66,1.83-2.77,2.43-4.37,1.17-3.12,3.21-5.9,3.57-9.33a3,3,0,0,1,.37-.84c.13.07.31.1.39.2.29.34-.11.53-.18.79a31.67,31.67,0,0,1-1.08,3.35c-1.18,2.93-2.11,6-3.87,8.62C344.32,202.15,344.4,202.41,344.4,202.62Z"/><path class="cls-1" d="M220.9,602.25c-1.07.37-1.59,0-1.61-1.15,0-1-.67-1.77-.69-2.83,0-1.3-.25-1.29.86-2.75.21,2.43.3,4.72,1.4,6.77Z"/><path class="cls-1" d="M292.93,419.87a3.06,3.06,0,0,1,2-2.22c.72-.18.63-.67.88-.93.89-.9,2.09-.94,3.14-1.34.62-.24.49.49.4.69a6.57,6.57,0,0,1-.91,1.17c-.23-.44.26-1-.29-1.12s-1,.39-1,.51C296.1,418.23,294.29,418.75,292.93,419.87Z"/><path class="cls-1" d="M325,283c.14-1.25-.43-2.49.16-3.91-.85.39-.74,1.31-1.44,1.47a4.7,4.7,0,0,1,1.2-2.55c.29-.43.66-1.2,1.31-1,.22.08.36,1.19.12,1.56C325.48,279.95,325.42,281.51,325,283Z"/><path class="cls-1" d="M292.8,433.14l-.34-1a2.82,2.82,0,0,0,.71-.53c.57-.81,1-.41,1.37.31,0-1.57.45-2,2.37-2.44A7.42,7.42,0,0,1,292.8,433.14Z"/><path class="cls-1" d="M376.31,66.53c0-3.63-.9-7,0-10.45,0,1,0,2,0,3.07a18.89,18.89,0,0,0,.55,4.87A2.4,2.4,0,0,1,376.31,66.53Z"/><path class="cls-1" d="M375.14,104c.51-1.33.39-3,2.13-3.65.6-.24.27-1.62,1.45-1.58-.77,2-2.42,3.47-3.62,5.19Z"/><path class="cls-1" d="M254.62,559.46a13.59,13.59,0,0,1,1.94-.71c.73-.15.72.54.49.82-.54.67-.81,1.87-2.12,1.4l0,0-.31-1.61Z"/><path class="cls-1" d="M345.18,237.51c.12,1.13.4,2.3-.89,3,0,0-.12.06-.12.09.09.68-.15,1.63-.78,1.29-.84-.45.06-1.22.39-1.76a12.33,12.33,0,0,1,1.4-2.61Z"/><path class="cls-1" d="M325,284.6c.22-.41.38-.83,0-1.24,1.21-.42,1.06-2,2.19-2.52l0,0c.11.35.58.64.09,1.06a3.18,3.18,0,0,0-.92,2c-.17,1.08-.72.82-1.35.68Z"/><path class="cls-1" d="M376.69,68.24c.79,1,.21,2.2,1.1,3.15.38.4-.14,1.28-.67,1.32-.83.07-.39-.74-.41-1.13C376.65,70.47,376.69,69.35,376.69,68.24Z"/><path class="cls-1" d="M375.35,91.15l3.15-6.64C377.83,86.9,377.15,89.29,375.35,91.15Z"/><path class="cls-1" d="M331.17,248.93c-.4-.05-.58-.15-.46-.51a5.22,5.22,0,0,1,1.37-2.38c.12-.11,0-.47.34-.33.11.05.24.3.21.38-.41.84-.38,1.85-1,2.59A1.22,1.22,0,0,1,331.17,248.93Z"/><path class="cls-1" d="M383.61,64.76a5.87,5.87,0,0,1-1.06,4.88Z"/><path class="cls-1" d="M345.19,237.52c.52-1.07.43-2.34,1.1-3.36.17-.26.34-.64.65-.47s.17.54,0,.83a7,7,0,0,0-.7,2.38c-.13.55-.17,1.31-1,.6Z"/><path class="cls-1" d="M272,437.94c-.15-.26-.48-.71-.42-.76,1.08-1.08,1.24-2.79,2.62-3.67-.94,1.38-1.26,3.06-2.22,4.43Z"/><path class="cls-1" d="M344.63,147.7a12.79,12.79,0,0,1-2.14-3.16c1.12.81,2.75,1.3,2.11,3.2Z"/><path class="cls-1" d="M296.07,298.48a15.45,15.45,0,0,0-1-5c.67,1.61,2.09,3.08,1,5Z"/><path class="cls-1" d="M353.27,185.3a3.45,3.45,0,0,1,0,2.38,1.09,1.09,0,0,1-.71.7c-.45.16-.32-.27-.46-.4-.39-.36-.09-.66.19-.88a2.67,2.67,0,0,0,1-1.81Z"/><path class="cls-1" d="M269,480.28l.36.36c-.14,1.2-1.62,1.39-1.88,2.5-.3-.43-.1-.86,0-1.3C268.33,481.66,268.29,480.6,269,480.28Z"/></svg>