<svg id="Layer_1" data-name="Layer 1" xmlns="http://www.w3.org/2000/svg" viewBox="0 0 595.28 841.89"><defs><style>.cls-1{fill:#302254;}</style></defs><title>rare_ruminare_web_grass_svg</title><path class="cls-1" d="M299.52,763.69c0-1.66,0-3.28,0-4.91a48.33,48.33,0,0,0-1.31-13.56c-.23-.82.79-1.13.67-2.09-.56-4.34-.12-8.76-1-13.09-.37-1.75.44-3.58.07-5.39-.63-3.08-.33-6.22-.55-9.33-.17-2.39-.37-4.8-.69-7.16-.38-2.77,0-5.56-.47-8.32-.06-.41-.23-.8-.25-1.23,0-.27-.76.52-.52-.07.74-1.82.08-3.63,0-5.39-.05-1.39.38-3-.19-4.17-.83-1.74-.67-3.39-.83-5.15a20.53,20.53,0,0,0-.86-3.88,2.26,2.26,0,0,1,.23-2.38c.34-.44.58-1.16-.49-1.37-.69-.14-.49-.89-.56-1.38a15.34,15.34,0,0,1-.33-4.13c.23-1.63-.4-3.23,0-4.7.31-1-.56-1.16-.71-1.79-.33-1.35.48-2.57.11-3.85-.5-.16-.07.72-.58.52-.33-.13-.2-2.42-.17-2.72.1-1.26.52-2.83-.06-3.72a4.65,4.65,0,0,1-.55-3.13,2.08,2.08,0,0,0-.66-1.72c-.51-.54-1-1.17-.53-2a.58.58,0,0,0-.17-.88c-1-.76.23-2-.63-2.78,1.56-1-.83-2.17.12-3.2-1.58-1.44-.6-3.42-1.07-5.12-1-3.62-.95-7.43-2.24-11.06-.45-1.25-1.26-2.78-.87-4.58.17-.8-.71-2.3-.75-3.6a42.72,42.72,0,0,0-.81-6.62c-.45-2.34-.11-4.72-.86-7.07-.66-2.06-.22-4.45-.82-6.61-.64-2.33-.38-4.78-.46-7.08-.12-3.26-.92-6.43-.8-9.75A36.27,36.27,0,0,0,279,570a20.85,20.85,0,0,1-.46-5.48,21.44,21.44,0,0,0-.29-2.57c0-.34-.17-.67-.17-1,0-4.75-.95-9.43-1.17-14.14-.1-2.13-.29-4.38-.49-6.45-.39-4.1-.28-8.24-1-12.34a22.77,22.77,0,0,1,0-5.6c.24-2.59-.48-5.05-.51-7.59s-.12-5.05-.19-7.57a24.83,24.83,0,0,0-2.86-10.7,42.18,42.18,0,0,1-2.36-4.86,23,23,0,0,0-4.74-8.43c-.9-.93-1.08-2.19-1.67-3.26A85.79,85.79,0,0,1,257,466.14a58.57,58.57,0,0,0-3.5-9.24c-.68-1.27-.86-2.8-1.45-4.13-2.27-5.17-4.14-10.51-6.51-15.65-.91-2-1.23-4.24-1.92-6.34-1-3-1.82-6-2.77-9a40.84,40.84,0,0,1-1.3-4.94c-.28-1.49-1.06-2.87-1.48-4.36-1-3.34-1.92-6.69-3.15-9.93-1.64-4.33-1.82-9-3-13.38-1.08-4.19-1.38-8.57-2.21-12.83q-1.39-7.16-3.08-14.25c-.83-3.47-1.62-7-2.1-10.52s-1.34-7.18-1.85-10.79a22.15,22.15,0,0,1-.57-4.59c.08-1.13-1-2.07-.7-3.27-1.25.35-1.71-.77-2.48-1.32a34.45,34.45,0,0,1-8.58-9.19,4.55,4.55,0,0,1-.64-2.67c0-1.25-.09-1.2-1-2.4-.39-.55.05-1.29.2-1.82-.73-.91-.66,1-1.46.24-.4-.36-.35-.53-.19-.87l-.05,0c.87-.06.9-.15.63-.75a39.21,39.21,0,0,1-2.3-5.82c.26,0,.95.61.49-.35s-.23-1.54.75-1.87l0,0c.18,2.46,2.08,4.26,2.57,6.6,1.86.45,2.62,2.29,4.1,3.24.66.42,1.25.94,1.88,1.41a.58.58,0,0,1,.16.76c-.19.38-.42.1-.68,0-1.21-.34-1.92-1.37-2.9-2s-1.82-2-3.62-2.66a18.59,18.59,0,0,1,1.78,2.39c.55,1.11,1.15.82,1.85.25-.79,1.52,0,2.29,1.33,2.85a13.8,13.8,0,0,1,1.82.89c.36.23.94.55.75,1s-.72.59-1.27.29a3.3,3.3,0,0,0-.95-.19c.87,2.16,3.15,2.67,5.09,4.08a8.82,8.82,0,0,1-7.5-5.76c-.57,2.15.89,3.35,1.88,4.81,2,2.88,4.59,5.1,7.12,7.43a3.52,3.52,0,0,0,.66.36c-.32-3.33-1.57-6.26-2.68-9.27l2.25,3a19.66,19.66,0,0,1-.41-4.38c0-.06,0-.15,0-.17-2.29-1.3-.47-3.9-1.74-5.51-.33-.42.23-.52.32-.78s0-.51-.37-.53c-.88,0-1.76-1.54-1.17-1.82,1-.45.09-1.19.53-1.6l0,0a2.45,2.45,0,0,0,1.08-2.66c-.37-2.58.3-5.19-.52-7.79-.38-1.2-1.43-1.85-1.85-3.22l-.48,1c.18-.84-.08-1.7.48-2.32l.4.4c.26.73.59,1.61,1.5,1.31a2.7,2.7,0,0,0,1.57-2.16,19.39,19.39,0,0,0,.15-5.86,15.38,15.38,0,0,1,.25-3.66c.74.56.21,1.23.46,1.64,1,1.72,2.89,3.06,2.36,5.46,2,.58,1.41,2.53,2,3.86.1.25.19.38.46.29-.2,3.22,0,6.46-.49,9.66,0,.14.27.83-.35.38-.2-.15-.66.31-.64-.37,0-2,0-4.08,0-6.11a17.25,17.25,0,0,0-1.19-5.93,6.8,6.8,0,0,0-.61,4c.26,1.91-.34,3.87-.36,5.84,0,1.2,1.13,1.43,1.17,2.46.12,2.95.39,5.89.6,8.83a10.61,10.61,0,0,0,.72-3.27,1,1,0,0,1,1-1.07c.73,0,.81.6.6,1.27a7.34,7.34,0,0,0-.17,1.41c-.73,2.27-1.4,4.56-.8,7a61,61,0,0,1,1.13-7c1.14-1.23.76-2.87.76-4.22,0-2.4,1.37-4.84-.06-7.24a.9.9,0,0,1,.39-1.21c.3-.17.6-.26.6-.71,0-1.84.66-3.63.36-5.51-.09-.56-.46-1.32.19-1.67.22-.12.84.51,1.38.86.63-3.58,1.5-7.08.63-10.81-1,2.84-1.2,5.79-2.37,8.53-.52-.65.2-1.16,0-1.7.22-1.25,1-2.48.19-3.76-.26-.44.74-.61.2-.83s-.83.73-.78.82c.62,1.22-.24,2.58.4,3.77-.42-.15-.53.16-.49.44.29,1.68-1,3.14-.69,4.8.13.81-.61,1.16-.82,1.81-.14.44-.19-.41-.49-.42a31.88,31.88,0,0,1,0-5.43c.12-.74-.8-1.34-.74-2a81,81,0,0,1,.93-8.34c.53-2.53.64-5.16,1.38-7.67.11-.36-.28-1.09.56-.92.47.09,1.1,0,1.25.77a7,7,0,0,0,.89,2c-.64-1.6,1.67-1.78,1.25-3.16,1,0,0,.9.58.89s.75-.53.65-1c-.15-.66.73-.27.71-.81s.08-1.38.84-1.07c.57.24,0,.95-.2,1.35a6.08,6.08,0,0,0-.65,4.5,7.61,7.61,0,0,1,.32,2.29c0,.52.61,1.29-.06,1.5s-.55-.62-.61-1.08c-1,.76-.68-.61-1.13-.74a.64.64,0,0,0-.32,0c0,.56-.27,1.42,0,1.65,2,1.7,1.23,4,1.43,6.08.17,1.83,0,3.69.38,5.52.06.3.12.55.72.73-.24-1.92.55-3.72,0-5.6-.42-1.51.34-3,0-4.56-.08-.34.19-.28.42-.16s.84-.33,1,.56a22.76,22.76,0,0,1,.43,6.65,19.93,19.93,0,0,1-4.23,10.22c-1.59,2-1.05,4.28-2.14,6.19-.13.24-.23.87.37,1,.77.12.57-.49.64-.91.09-.63-.44-1.86,1.08-1.16.32-.86,1.31-1.16,1.54-2.23a45.59,45.59,0,0,1,2.72-7.8,18.57,18.57,0,0,0,1.36-7.06c0-2.39,0-4.79-.19-7.19l.54-.05c.17,1.6.35,3.19.5,4.79.57,6.15-2.26,11.53-3.94,17.17-.55,1.86-.66,2.07-.2,2.23,1.45.5,1.45-1,1.71-1.57,1-2.22,1.61-4.57,2.5-6.83a15.18,15.18,0,0,0,1.09-4.7,25,25,0,0,0-.56-6.61,23,23,0,0,1-.22-2.37c1.29,1.54.46,3.32,1.47,5,.27-3.28-.94-5.89-1.79-8.56.32-.34.88,1.42,1-.1.23-2.38.4-4.77-.62-7.05-.14-.32,0-.87-.61-.82s-.38.69-.52,1.05c-.79,2.1.61,4.08.35,6.15-1,.2-.85-.88-.83-1.12.06-.68-.29-.83-.72-1.12-.49,1.23.33,2.6-.7,3.77-.78-3.63,1.29-6.94.54-10.63,1,.49.5,1.2.83,1.75.87-1.2,1.48-.84,2.23.21,1.43,2,1,4.27,1.06,6.45a2.57,2.57,0,0,0,.17.72c.22.82.77,1.64.3,2.49-1,1.76-.13,3.45,0,5.69,1-2.91,1.27-5.2.42-7.82a6.62,6.62,0,0,1,.76-5.16c.66.17.58.9.94,1.26s.54,1.42,1.53.5c.61-.57,1.22-.17,1.09.71-.19,1.27-.58,2.6.25,3.69a3.45,3.45,0,0,1,0,3.93c-1.52,2.07-.94,4.42-1.59,6.55a3.82,3.82,0,0,0-.2,2.53c1.34-3.05,1.83-6.28,3.88-8.91a37.56,37.56,0,0,1-1.74,5.11c-.83,1.66-.8,3.57-1.87,5.18s-2.6,3.13-3.21,5.13a.33.33,0,0,1-.27.17c-2.51-.65-2.17,1.61-2.78,2.8-.81,1.57-1.14,3.45-3.17,4-1.21.35-2.26.84-2.42,2.34,0,.16-.16,1.1-.82.73a.81.81,0,0,1-.21-1.16c.12-.19,0-.53-.1-.82a28.81,28.81,0,0,0-2.67,7.48,58.71,58.71,0,0,1-1.89,7.13c-1,3.5-2.1,6.91-.93,10.68.55,1.79-.06,3.85.43,5.76.29,1.13.18,2.3.59,3.48.75,2.11.29,4.47.93,6.65,0,.14-.23.37-.39.6,2-.47,2.23-.3,2.07,1.62a10.53,10.53,0,0,0,.18,2.51c.41,2.69.43,5.43.84,8.12a54.55,54.55,0,0,0,1.46,5.73,12.56,12.56,0,0,1,.52,1.95c0,.44.43,1.27-.63,1.2-.08-.72.43-1.53-.31-2.15-.25-.21-.44-.64-.82-.5s-.16.55-.17.87c-.07,1.91.87,3.61,1,5.49a3.18,3.18,0,0,0,1.24,2.73V375l.4-.4c1.31,1.12,1.06,2.83,1.51,4.25a65.5,65.5,0,0,1,1.68,7.8c.38,2.09.86,4.15,1.07,6.28.1,1,.92,1.89.3,3,1.63.44.21,2.19,1.42,3.16.78.62.6,2.6.6,4,0,.73,0,1.13.69,1.56s.46.47-.23.63a.74.74,0,0,0-.44.42c-.1.27.1.41.37.42l1.23.07a5,5,0,0,0-.25,4.4,8.41,8.41,0,0,1,2,4.12c.17.85,1.22,1.68.14,2.55s-.73,2-.46,3.08c.36,1.39.87,2.75,1.32,4.12l1.11,4.55a1.9,1.9,0,0,0,0-2.52,6.37,6.37,0,0,1-.69-2,1.08,1.08,0,0,0,.6-1.41c-.89.44-.93-.4-1.12-.74-.46-.8.21-1.79-.6-2.75.42.13.7.16.71.22.31,1.77,1.47,3.19,1.67,5.1a18.89,18.89,0,0,0,1.57,4.71c1,2.54,1.89,5.17,2.7,7.8.37,1.21,1.72,2.17,1,3.67,1.69.83,1.44,2.78,2.26,4.14,1.25,2.07,1.75,4.58,2.72,6.83a10.94,10.94,0,0,0,1.54,3.16c1,1.23,1.44,3,2,4.66a64.88,64.88,0,0,0,4.78,10.74c1.26,2.28,2.93,4.37,3.83,6.76.84,2.24,2,4.31,2.85,6.53.13.35.15.66.61.63s.41-.44.45-.76c1-6.61.74-13.26.53-19.9-.06-1.78-.16-3.57-.18-5.35,0-3.36,0-6.72-.33-10.07-.14-1.64.1-3.29,0-4.95-.38-6.78-.72-13.57-.89-20.36-.07-2.66,0-5.36,0-8a36.65,36.65,0,0,0-.43-8.16,16.84,16.84,0,0,1-.19-4.6c.28-4.78-.66-9.52-.4-14.27.14-2.57.12-5.17.33-7.75a43.52,43.52,0,0,0-.18-6.08c-.19-2.9,0-5.79,0-8.68.06-3.74.29-7.47.31-11.21,0-5.91.55-11.8.38-17.72a147.43,147.43,0,0,1,.36-15.22c.35-4.69.27-9.4.72-14.07.36-3.72-1.19-6.85-2.43-10a109.24,109.24,0,0,0-5.3-11.08c-.91-1.73-2.2-3.25-3.22-4.95-1.45-2.4-2.6-4.94-4.05-7.32-.77-1.27-1.75-2.49-2.43-3.74s-1.7-2.57-2.45-3.89-1.15-2.86-2.8-3.61c-1-.44-1.19-1.85-1.55-2.85s-.66-1.76-1.85-1.74a.41.41,0,0,1-.44-.39c0-.12.16-.38.25-.38,3-.17,2.15-2.53,1.89-3.94a19.59,19.59,0,0,0-2.67-7.19c-.59-.9-.78-2.06-1.73-3.14.18,2.33,1.93,4.28.73,6.49h-.38c-.55-1.05-.64-2.55-2.39-2.42-1.07-1-1.43-.18-1.76.71-.83-.79-.5-2.75-2.43-2.42l.05,0c-.49-.58-1.25-.71-1.84-1.1-.28-.19-1.44-.28-.34-1a1.19,1.19,0,0,0-.31-.54,41,41,0,0,0-3.6-2.17c-.61-.31-1-.54-.71-1.36,4,2,8,4,11.91,6.34-.54-.5.29-1.39-.71-1.83-.84-.37-.81-1.22-.54-2,.19-.54.73-.52,2,0-.25-.64-.48-1.2-.68-1.77a.53.53,0,0,1,.37-.68c.24-.07.36.19.51.46.6,1.14,1.31,2.22,2,3.43,0-.84.66-1.13,1-1.53s.58-.54.39-1c-.27-.62-.55-.37-.77.07a1.62,1.62,0,0,0-1.34-1.13c.26-.28.48-.74.78-.8,1.22-.23.84-.74.42-1.44a2.32,2.32,0,0,1,0-1.19c0-.31-.14-.73.35-.84a.78.78,0,0,1,1,.54c1,2.94,2.35,5.79,1.7,9.07a18,18,0,0,0,.16,3.11c-.12-1.34-2.3-1.18-1.73-3.2a1.9,1.9,0,0,0-.13,2.39c1.33,2.44,2.61,5.12,2,8-.76,3.39,1.35,5.56,3.16,7.7.44.52.88.55.52,1.28,0,.1.07.33.17.45,2.3,2.75,3.92,5.95,6,8.87.13.19.21.37.45.45,1.19.42,1.8,1.55,2.7,2.32.32.27,1.68.51.59,1.63-.21.22.66,1.44,1.52,1.67.63.17,1.06.33.6,1-.25.38-.19.76.16.81,2.57.39,1.86,2.61,2.24,4.12.27,1.07.37,1.87,1.75,1.92a1.89,1.89,0,0,1,1.4,1.16c.27,1.9,2,2.76,2.8,4.28.12.23.34.41.29.69s-.41,0-.49.13c-.36.35.05.62.19.88.34.63.49,0,.69-.16.44-.25,1.39-.4.83-1.11a10.86,10.86,0,0,1-1.39-3.14c-.4-1.06,0-2.43,0-3.68,0-3.22.32-6.45.54-9.67a96.19,96.19,0,0,0,.22-13.38c-.24-3.26-.55-6.58-1.1-9.78-.4-2.31.19-5-1.51-7,.78-1.29-.57-2.1-.7-3.15a22.6,22.6,0,0,1-.3-5.8,64.83,64.83,0,0,0,.17-10.13c0-1.33-.18-2.69-.27-4-.11-1.54-.66-3.11-.45-4.59a19.56,19.56,0,0,0-.41-6.76c-.5-2.32.22-4.53-.24-6.72a3.28,3.28,0,0,0-1.33-2.45,1.9,1.9,0,0,1-.64-1.81,5.78,5.78,0,0,0-1-4.33,7.61,7.61,0,0,0-1-1.1c-.27.56-.5,1.14,0,1.66.25.26.88.38.33.83s-.65-.39-.8-.59a14,14,0,0,1-1.69-2.79c-1.09-2.55-3.35-3.62-5.61-4.78a24.36,24.36,0,0,1-4.64-3.11c1.8,1.5,4.33.23,6.09,1.74.36.31.6-.22.74-.45.32-.53-.29-.25-.4-.4-1.07-1.41-3.61-1.5-3.5-4,0-.6-.68-.28-1-.57s-.9-.74-1-1.27-.12-.82-.89-.85-.07-.8-.18-1.22c.56-.19,1.06-.47,1.57.27.28.41.32,1.09.69,1.23,1.73.69,2.65,2.29,4,3.39a6.4,6.4,0,0,0,2.12,1.13,4.28,4.28,0,0,0-.4-2.08,1.12,1.12,0,0,1-.1-.32c-.37-1.59-2-2.4-2.41-4l.4-.4c.5-.55.85.29,1.32.17a2.21,2.21,0,0,0-.34-1.79c-.24-.29-1.09-1.1.39-1.21.64,0,.52-1,0-1.34-1.5-1.08-1.06-3.14-2.29-4.34,0,0,.22-.37.33-.57l0,0c.39.66,1.42,1,1,2.11a.45.45,0,0,0,.55.59c.17-.05.59,0,.56-.58-.12-3,0-5.94-.31-8.87-.06-.53-.39-2.25-2-2.18-.46,0-.51-.41-.32-.88.3-.74-.15-1.19-.81-1.39-.45-.14-.92-.76-1.39-.26s.37.77.48,1.17a4,4,0,0,0,1.86,2.31c.46.29.82.28.39,1.17-.56,1.17.94-.2,1.12.69,0,.37-2,.9,0,1.51.25.08.14.5-.06.52s-.42.23-.83.09c-1.5-.52-2-1.81-2.7-2.94-.43-.65.27-2.48-1.67-1.74-.18.07-.17-1.42.08-1.7.49-.54-.15-.9-.24-1.35-1.43.75-1.4-1-2.3-1.33-1.48-.49-1.94-1.73-1.59-3.25.37,0,.52.77,1.21.32-1.32-1.49-2.29-3.25-4.05-4.52a8.7,8.7,0,0,0,1-.15.38.38,0,0,0,.19-.57c-.34-.51-.27.19-.48.19-2,0-2.89-1.45-3.66-3l.4-.4a20.16,20.16,0,0,1,1.67,1.7c.25.31.38.83.83.66s.24-.69.19-1.06-.39-.45,0-1a17,17,0,0,0,6.48,7.12l-.27-1.14.4-.4a11.48,11.48,0,0,1,2.68,3.61c1.11,2,2.1,4.05,3.14,6.08a2.4,2.4,0,0,0,.84.28.38.38,0,0,1,.21.12c-.38,1,1.59,1.49.53,2.84s.52,2.3,1.17,2.94c1.06,1,.44,1.27-.22,1.78-.88-.34,0-1.75-.8-1.6-1.09.19-.22,1.26-.25,1.89,0,1.19-.57,2.66.8,3.48a5.25,5.25,0,0,1,1.7,2.1c.32.52.55,1.47,1.17.19l.44.2,0-.05c.17.59.55.66,1.05.41a.81.81,0,0,0,.07.3c-.28,1,.91.14,1,.73a3,3,0,0,0-.43,2.44c.27,1.54-.34,2.85-.53,4.25-.14,1,1.32,1.38.85,2.58-.27.69-.06.74-1,.92-.31.06-.5.66-.38.71.83.3.33,1,.26,1.49.82-.13.36-.87.91-1.16-.13,1.28.42,2.5-.75,3.52-.53.47-.37.56.52.73a1.21,1.21,0,0,1,.61,1c-.07,1.09.74,1.91.73,3,.47-.18.1-.68.43-.91.33.35.19,1.27,1,1,.15-.05.2-.93.18-1.48a26.1,26.1,0,0,1,1.22-10.84c1.33-3.5,3-7,2.9-10.83-.11-3.45.6-6.91,0-10.31a13.33,13.33,0,0,0-1.66-4.82,51.19,51.19,0,0,0-2.86-4.94,17.59,17.59,0,0,0-7.14-5.85c-.62-.25-1-1.07-1.8-.83.15.46.44,1,.1,1.39s-.6-.28-.94-.35c-1.28-.26-2.55-.6-3.81-.92s-1.58-1.66-2.48-2.45a11.61,11.61,0,0,1-3.81-6.17c1.87.32,2.29,2.11,3.08,3.29,1,1.42,2.34,2.09,3.6,3a15.21,15.21,0,0,0,3.91,1.7,3.38,3.38,0,0,0-1.59-1.35c-.38-.2-.85-.36-.4-.94a.64.64,0,0,1,1.13,0c1.53,1.89,3.79,2.62,5.82,3.71.14-.35,1.31,1.3.79-.4,0-.1.26-.38.44-.43.42-.12.5.22.44.5-.14.73.43.74.77.62.69-.26,0-.63-.09-.85a1,1,0,0,1,.4-1.4c.2,1.08.31,2.21,1.7,2.85-.05-1.44-.36-2.46-1.75-2.8,0-1.4-1.22-2.51-.9-4,.59,3.21,4.37,4.41,4.94,7.66.53-8.27-4.1-15.35-5.73-23.53,1.59,1.7,3.78,2.59,3.23,5.29a7.39,7.39,0,0,1,.68,1.27c0,.09.42.17.6.12.38-.12.07-.36,0-.5-1.07-2-1-4.32-1.9-6.37s-2.55-3.38-3.57-5.27c-.28-.51-1.95-.91-2.89-1.59a2.29,2.29,0,0,1-.79-1.36,8.73,8.73,0,0,0,4.3,1.87A13,13,0,0,0,262.3,116a16.44,16.44,0,0,1-3.69-4.83c-.15-.32-.76-.61-.11-.91.45-.21.49.47,1.15.84-.88-1.74-.2-3.75-2.46-4.62a21.3,21.3,0,0,1-3.64-2.44c-.36-.24-.89-.78-1.23,0s.4.44.7.59c1.06.5,1.08,1.63,1.17,2.49a2.6,2.6,0,0,0,1.32,2.23c.76.42.46.88.32,1.58-1.68-1.32-2.82-3.15-4.84-3.81a7.3,7.3,0,0,1,1.7,2.4,18.16,18.16,0,0,1-4.54-5.47c.61.26,1.66-.22,1.63,1,0,0,.17.63.69.2.78-.63.75-.57.69-1.1-.21-1.82-1.94-2.46-2.85-3.73-.36-.49-1.75-.66-.09-1.26a5.05,5.05,0,0,0-.16-.79c1.17-.18.65,1.46,1.6,1.5-.08-1.68-.9-3.31-.21-5l-.05,0a.89.89,0,0,1,.71,1c.08,4.46,2.12,7.2,6.19,8.33a6.91,6.91,0,0,0,3.48,2,8.23,8.23,0,0,1,3.25,2.47c.43.43,1.14.62,1.23,1.33,0,.29.49.51.09.89s-.71,0-1.06-.1-.61-.55-.8-.78a4.66,4.66,0,0,0-3.15-2.06c1.06,4.71,4.61,7.66,7.16,11.26l.45-.19-.37-3.24c1.09,1.26,1,1.26,1.08,2.48.11,3.82.63,4.76,2.38,6.5-.66-2.25-1.49-4.47-.34-6.83.26-.53.63-.87,1.1-.71.65.23.16.72.08,1.14a17.9,17.9,0,0,0,.45,8.31,22.94,22.94,0,0,1,.7,6.11c.39-1,1.77-1.69,1-3.09a.34.34,0,0,1,.17-.55c1.6-.75,1.89-1.15,1.79-2.84-.18-3.33.35-6.64.37-10,0-.32.25-.63.27-1,.05-1,.88-.72,1.34-.74.74,0,.54.79.41,1-1.58,3-1.11,6.33-1.18,9.45-.06,2.7-1,4.8-2,7.11-1.09,2.53-2.58,5.1-1.57,8.08a1,1,0,0,0,.2.25c.69-2.72.7-5.72,3.3-7.63-.94,2.71-.36,5.68-1.64,8.35a6.9,6.9,0,0,0-.31,3.19c.15,2.93-.26,5.87.1,8.8a11,11,0,0,0,.64,3.08,8.21,8.21,0,0,1,.46,3.18c0,.38-.52,1,.49,1,.44,0,.24.2,0,.3-1.26.48-.65,1.34-.59,2.23a31.12,31.12,0,0,0,1,4.56,12,12,0,0,1-.31,4.52,28.41,28.41,0,0,0-.12,5.31c.46-1.38,2.12-1.82,2.4-3.34.09-.51.59-.44.73.2a1.17,1.17,0,0,0,.36.64,15.09,15.09,0,0,0,1.09-5.65,26.26,26.26,0,0,1,.47-6.31c.27-1-.39-1.9-.49-2.88-.27-2.64-.39-5.12.84-7.58.93-1.87.54-4,1-6,.07-.28-.62-.82.24-.84a.74.74,0,0,1,.77.75,3.63,3.63,0,0,1,0,1.54c-1.14,2.77-.89,5.73-1.3,8.59-.23,1.59.52,3.22-.24,4.79-.11.23.1.67.24,1,.79,1.68.8,1.68.53,3.77-.43-.12-.07-.65-.54-.94.14,2-1.07,3.73-1,5.7,0,.47,0,.79.42.94.56.21.45-.32.53-.61s.26-.39.51-.24.56.4.42.82c-.86,2.61-1.34,5.33-3.05,7.65a21.7,21.7,0,0,0-3,5.47,2.69,2.69,0,0,0-.26,2.57c.55,1-.84,2.18-1.36,3.28-.36.75-1.09,3.75-1.34,4.59a19.35,19.35,0,0,0-.89,4.84c0,.91-.3,1.91-.33,2.78-.12,3.35-.41,6.72.2,10.08.21,1.13-.37,2.42-.11,3.53a7.7,7.7,0,0,1,.08,3.77c-.59,1.93-.06,3.79-.13,5.66a45.78,45.78,0,0,0,.67,9c.23,1.38,1,2.7.94,4.22a.88.88,0,0,0,.69-1,9.41,9.41,0,0,1,.17-1.16,46.44,46.44,0,0,1,2.63-8.24c.9-2.53,1.2-5.26,2.69-7.58,1-1.51,1.75-3.15,2.62-4.72.72-1.3,1.71-2.42,2.33-3.78a2.19,2.19,0,0,0,.22-1.65c-1.09-2.69.24-5.19.55-7.75.17-1.42.9-2.77,1.16-4.2s1.31-2,2.15-2.9a.45.45,0,0,1,.81.13c.13.29.8.59.09,1a5.19,5.19,0,0,0-2,2.84c-.19.52,0,1,.28,1.11s.5-.28.57-.86c.24-2.14.76-2.54,2.86-3-1.63,3.46-3.18,7-3.19,11,.09-1.42,1.42-1.8,2.22-2.5a6.69,6.69,0,0,0,2.14-3.78c.19-1.25,1.16-1.26,1.57-1.72a9,9,0,0,0,2.56-4.9c0-.34.22-1-.38-.94-1.2.08-.89.14-.52-1a13.9,13.9,0,0,0,.95-6.71c-.22-1.31.5-2.51.69-3.89-.89.74-2.59.75-1.78,2.54.09.2-.43.61-.47.52-.34-.69-1.36,0-1.52-.73s.67,0,.83-.41c0,0,.54.27.46-.06-.42-1.64,1.09-1.7,1.86-2.26A3.42,3.42,0,0,0,299,181a8.45,8.45,0,0,1,2.61-4c1.59-1.3,1.48-3.85,3.29-5.07,1.64-1.11,2.3-3.25,4.63-3.8,1.27-.3,2.19-2,3.49-2.79.56-.35.82-.83,1.69-.35s1.72-.58,2.13-1.12c.59-.79,1.42-.83,2.09-1.29.2-.14.66,0,.66-.37,0-2,1.39-1.06,2.25-1,.48,0,1-.6,1.4,0-.72.39-.06,1.36-.8,1.81s-1.3,1.12-2,1.53a27.32,27.32,0,0,0-7,5.75c-.35.39-1.09-.08-1.34.63s-.51,1.11-.78,1.68c.4.27.56-.06.62-.26.17-.53.57-.63.91-.37s.12.67-.09,1c-.41.71-1.13,1.07-1.66,1.64s-1,1-1.46,1.55c-1.14-1.74,1.23-2.23,1.34-4-1.07,1.4-2.4,1.71-3.46,2.44a2.44,2.44,0,0,0-.88,3c-1.85-1.69-.18-2.6.45-3.29a53.73,53.73,0,0,1,6.11-6c.21-.17.68-.36.24-.78a.51.51,0,0,0-.74-.07c-1.85,1.23-3.78,2.34-4.89,4.42a22.87,22.87,0,0,1-1.73,2.37c-2.2,3.08-5.61,5.23-6.92,9a8.17,8.17,0,0,0-.69,3.27c.1,1.16-.46,2.11-.68,3.21a6.87,6.87,0,0,1,2.81-1.44c.1,0,.27-.06.29-.12.74-2.28,3.17-3.72,3.12-6.38l.4-.4c1.34-.18,1.78-1.26,2.25-2.3,1.18,1.13.76,2.9-.5,3.93a17.59,17.59,0,0,0-4,5.46c-.53,1-1.75,1.84-1,3.28-1.09-.1-.84-.93-1.1-1.49.26,1.17-1.12.71-1.48,1.68-.49,1.3.15,2.21.12,3.28,0,.89.18,1.71-.85,2.4-.47.32-.38,1.68-1.09,2.09-1.39.82-.36,2.74-1.69,3.46-2,1.07-1.92,3.6-3.57,4.89-.46.36-.16.83-.18,1.32,3-1.41,4.63-4.08,6.43-6.51a1.87,1.87,0,0,1,2-.95,1.59,1.59,0,0,0,2.07-1.25c.21-.73.36-1.25,1.19-1.53,1.12-.39,1.21-1.77,2-2.5.47.41.65,1.51,1.52,1a14.13,14.13,0,0,0,2.44-1.35c2.23-2.11,2-1.46.59-4.52A2,2,0,0,1,310,190c.74-.62.75-1.17.31-2-.35,1.89-2,2.95-2.46,4.65l-.74,1.09c-1-.29-1.6.53-2.1,1s-1,.57-1.41.06a.88.88,0,0,1,.42-1.26c2-1.15,3.28-3,4.51-4.92.38-.58.89-1.14.74-1.95,0-.21.33-.55-.22-.55-.31,0-.34.07-.39.45-.11.82-1.38.93-1.54,1.62-.58,2.51-3,3.61-4,5.82-1.33-1.65.27-2.65.74-3.65,1.39-3,3.2-5.72,6.18-7.45,1.53-.89,2.28-2.44,3.14-3.88.07-.12-.1-.47-.25-.61-.34-.32-.46.08-.59.27a8.45,8.45,0,0,1-3.72,3.5c-.48-1,.53-2.2.73-2.31a5.47,5.47,0,0,0,2.74-3.33c0-.11.34-.11.42-.23.47-.73,1.05-1.43,1.95-.87s.38,1.53,0,2c-.6.72-.12,1.1.15,1.8.7-1.7,2-2.87,2.41-4.57a5.55,5.55,0,0,0,.12-1.69.79.79,0,0,1,.58-.89c.36-.12.41-.45.5-.8.84-3.36,3.39-5.69,5.14-8.51.28-.45.88-.88,1.27-.4s-.07.67-.71.69,0,.69-.15,1.1c-.44,1.6-1.92,2.35-2.66,3.76-1.65,3.14-2.94,6.43-4.49,9.6a8.31,8.31,0,0,1-2.8,3.49c-.55.38-1.5.74-1.27,1.78-1.48-.32-.77.92-1.12,1.43-.62.94,0,1.55.14,2.67,2.07-2.53,3.77-4.95,5.81-7a15.65,15.65,0,0,0,4-6.9c.31-1.12,1.24-2.53-.52-3.32,1.63-.61,2.72-1.6,2.53-3.67,1,.71-.14,2.47,1.24,2.32.83-.09,1.4-1.29,1.7-2.24.63,0,.54.5.46.74-.51,1.46.19,2.8.33,4.2.08.74-.13,1.54-1.32,1.3-.29-.36,1-1.19-.11-1.35-.48-.07-1.54.11-1.32,1.28.06.34.36,1.37-.75.7-.13-.08-.33.07-.23.55.32,1.6-1.34,2.33-1.53,3.69-1.28-.19,0,1.54-1.36,1.71-.72.09-.76,1.6-.45,2.6a1.43,1.43,0,0,0,1.19-.55,18.32,18.32,0,0,0,2.53-5.05c.33-1,1.31-1.65,1.64-2.7.09-.3.66.32,1,0,0,.27.49.45-.18.85-.9.53-1.7,1.5-.51,2.74.37.38.55,1.26-.53,1.36-.36,0-.63.24-.35.5.76.72-.5.69-.36,1.14-1.33.29-1.47,1.79-2.26,2.37-1.9,1.4-.38,3.14-.88,4.65a11.82,11.82,0,0,1-4.34,5,4.23,4.23,0,0,0-1.89,2.76c-.52,2.51-.61,5.25-2.57,7.25s-3.64,4.21-6.17,5.57a7.38,7.38,0,0,1-2,.67,17,17,0,0,0-5.87,3c-.48.33-.85.62-1.29.13s.42-.69.49-.78a11.28,11.28,0,0,1,3.95-2.62,24.3,24.3,0,0,0,3.28-2.25c-1.09-.31-1.53.43-2.24.73a3.17,3.17,0,0,1,1.93-2.83c-1.53-1.26-3.39-.28-5.18-.45-1.06-.1-1.49,1.17-1.72,2.07-.37,1.43-1,2.44-2.59,2.68-.18,0-.52-.16-.5.21,0,.12.5.21.5.31,0,.59-2.47,2.25-3.08,2.21s-1.49-.06-1.82.68c-2.05,4.6-4.56,9-6.38,13.71a19.32,19.32,0,0,0-.29,2.29c-.32,1.16-.26,2.44-1.55,3.12a.8.8,0,0,0-.4.53c-.11,2.76-2,4.95-2.33,7.68a82.41,82.41,0,0,1-1.56,8.84,29.64,29.64,0,0,0-.66,7.94c0,.23.09.6,0,.67-1.94,1.26-.39,3.24-1,4.76-.07.18,0,.41-.36.62v-6.85l-.48,0c-.32,2.51-.77,5,.48,7.5.59,1.18,0,2.46.17,3.71.13.86.7,2-.3,2.84,1.14,1.32-.13,2.44-.2,3.64a3.46,3.46,0,0,0,.34,1.69c-1.45.18,0,1.08-.4,1.7a2.06,2.06,0,0,0,.29,2.54c.37.42-.77,1.09-.25,1.81-1.24,1.52.66,3.19-.36,4.73.78,0,.62-.68.87-1,.46.17-.14,1,.55.93s.48-.5.39-.93c0-.17.18-.4.28-.6.91,1.57.15,3.26.32,4.9.32,3.11-.52,6.18-.67,9.29,0,.21-.2.54-.12.62,1.81,1.79,0,3.56,0,5.32.12,4.5-1.06,8.84-1.47,13.26-.38,4-.06,8-.53,12-.66,5.56-.21,11.12-.37,16.67-.06,1.88-.16,3.81-.18,5.68,0,3.9.45,7.8.74,11.69,0,.08.16.15.42.37-.19-1.4,1.2-1.17,1.71-1.44,1.55-.84,1-2.62,2.13-3.5s1.44-2.56,2.27-3.64c2.67-3.47,4.53-7.4,6.73-11.12,1-1.7,2.34-3.2,3.09-5.08,1.21-3,3.74-5.21,5.24-8.09a22,22,0,0,1,3.77-5.75c1.65-1.59,1.49-4.12,3.41-5.47.26-.18-.32-1.22.07-1.88.09-.15-.31-.53-.06-.56,1.42-.15,1-1.63,1.44-2,1-.93.95-2.09,1.48-3.07,1.87-3.44,2.91-7.29,5.14-10.55,1.51-2.21,1.08-4.82,1.68-7.22.66-2.65,1.47-5.3.92-8.12-.06-.29.92-.78-.18-1,0,0,0-.61.05-.63,2.61-.74.58-2.35.51-3.44a15.66,15.66,0,0,1-.27-2.91c.3-2.37-1.18-4.06-1.86-6.07-.88.37.08,1-.55,1.24-.07,0-.2,0-.23,0a2.39,2.39,0,0,1-.34-2.84c.36-.65-.12-1.32-.18-1.89-.3-3.39-1.76-6.75-.49-10.24.35-1,1.15-.37,1.55-.69s.37.12.48.23c.61.62-.1.86-.36,1.24a5.09,5.09,0,0,0-.71,4.56c.24.7-.48,1.3.26,2.05.19-1,.46-2,.55-3a9.78,9.78,0,0,1,2.84-6.24c.2-.2.34-.66.78-.43s.21.73.36.87c1.39,1.28-1.16,2.41-.09,3.63-.52.08.09.8-.75,1s.37,1.46-.13,2.26c0,.07-1,.94.23,1,0,0,.25.94-.13,1.25s-.82,0-1.18-.34a1.55,1.55,0,0,1-.46-1c-1.56,2.16.39,3.47,1.1,5.15-1.88.75-.81-1.72-2.06-1.73.49.73-.15,1.78,1.07,2.33.63.28.42,1.17.1,1.76,0,.08-.45.06-.46.42s.31.33.54.37c-.37,1.92,1.27,2.73,2.19,3.94l.05,0c-.46.13-1-.47-1.36.06s.57.42.6.83a2.13,2.13,0,0,1,0,.51c-.33,2,1.05,3.71.73,5.7a1.35,1.35,0,0,0,.68,1.25l0-.06c.09.87-.25,1.77.58,2.57.61.59-.41,1.46.17,2.42-.09-2.76,2.81-2.84,3.75-4.65l1.09,0c.82,1.14-.36,1.83-.68,2.68-.09.24-.39.48-.39.83a21.36,21.36,0,0,1-.06,2.41c-.1.73-1.41.61-.92,1.92-.84-.57-.09-1.07-.55-1.36-.06,0-.15.07-.19.13a8.06,8.06,0,0,0-1,2.65c-.2.9-.22,1.84-1.33,2.29-.51.21-2.16,4.41-2.21,5.24l-.73-1.37c-.26,2.39-1.78,4-3.27,5.65-.43.48-1,.85-1.41,1.33-.06.07-.64.66.08.71,1.67.12.65.91.31,1.36-.82,1.1-.83,2.48-1.41,3.67a42.3,42.3,0,0,1-3.93,6.5c-2.22,3-3.27,6.58-4.77,9.93a55.94,55.94,0,0,1-5.4,9.3c-1.55,2.19-2.41,4.73-3.9,6.94-1,1.56-2.16,3.09-3.2,4.64a59.05,59.05,0,0,0-4.62,8.16,8.15,8.15,0,0,1-1.7,2.54c-1.65,1.61-1.87,3.88-2.25,6-.66,3.71-1.31,7.42-1.92,11.14-.24,1.47-.2,3-.54,4.42-.54,2.26,0,4.58-.76,7.09-.76-3.82-.11-7.39.21-11.06a3.2,3.2,0,0,0-1.48,2.65c0,1.91.11,3.84,0,5.74a120.11,120.11,0,0,0-.38,13.31c.11,3.12-.29,6.22.07,9.33.24,2-.21,4.17.81,6.12a.49.49,0,0,1-.1.42c-.08.1-.27.23-.35-.07s0-.62-.38-.63c-.09,0-.24.08-.25.15-.08.38-.27.88.14,1.1,1.9,1,.79,2.36.66,3.76-.08.81-.44,2,.31,2.93s.39,2.35.53,3.55c.35,2.95.85,5.89,1,8.85a58.58,58.58,0,0,1-.11,9.27,23.9,23.9,0,0,0,.1,5.42c.24,2.17-.24,4.4,0,6.61.12,1.18.34,2.35.39,3.53,0,.61.27,1.21-.38,1.87s-.44,2-.62,3l-.46-.15a14.8,14.8,0,0,1-.21,3.67c-.1,1,.85,0,1,.55.08.27-.15.67.36.86,0-.53-.09-1-.15-1.5-.11-1-1-2-.14-3,.56-.23.1-.87.49-1.19.43,0,.51.36.51.71,0,3,.17,5.94-.06,8.88a18.94,18.94,0,0,0,.4,5.65,9,9,0,0,1-.21,3.76c-.48,2.17.08,4.16.37,6.16.5,3.5,1,7,1.23,10.51.1,1.81.08,3.62.3,5.44a40.86,40.86,0,0,1,0,6.46c0,.95.46,1.72.46,2.69,0,2.35.28,4.7.45,7.05-.83-.29-.56-1.47-1.47-1.82a4.19,4.19,0,0,0,1,2.23,1.65,1.65,0,0,1,.35,2.12c-.09.14-.25.4-.2.45,1.09,1.19,0,2.68.57,4s-.2,3,0,4.45c0,.2-.24.45-.19.64a5.62,5.62,0,0,1-.41,3.51,5.75,5.75,0,0,0,.1,4.36c.54,1.17-.07,1.5-1.3,1.24.8.62,1.89.89,1.79,2.11l-.35,2.15c-.12,2,.64,4.12-.3,6.13-.11.24.36.34.37.45.1.68.93,1.41-.35,2-.72.35-.05,4.1.72,4.64.31.22.24.47.17.74a11.15,11.15,0,0,0,.13,4.4,15.83,15.83,0,0,1,.22,4.78c-.32,1.87.55,3.51.5,5.31a24.92,24.92,0,0,0,0,2.83c.32,3.71.87,7.42.88,11.14,0,2.44.89,4.8.45,7.26a2.41,2.41,0,0,0,.86,2c-.32-5.58-.55-10.86-1.18-16.12-.24-2,0-4.08-.09-6.11-.18-3-.68-6-.73-9,0-2.18-.78-4.44.23-6.91,1.41,1.63,1,3.45,1.41,5s-.1,3.55.46,5.29a1.18,1.18,0,0,1,0,.85c-1.07,1.79.4,3.49.14,5.26-.33,2.33.5,4.58.58,6.9.06,1.77.62,3.56.8,5.38.09.92.18,1.86.19,2.77,0,3.25.45,6.47.65,9.7a153.45,153.45,0,0,0,1.83,15.55,38.15,38.15,0,0,0,2.57,8.71c-.52-2.48.58-4.76,1-7a52.26,52.26,0,0,0,.92-6.08c.23-3.18,1-6.24,1.29-9.4.17-2,1.11-4,1.11-6.08,0-3.48.84-6.86,1.14-10.31.25-2.91.66-5.85,1-8.78.4-3.66,1.38-7.23,1.41-11,0-2,.87-4,1.17-6s.56-4.2.92-6.26a27.84,27.84,0,0,1,.65-4.55c.82-2.4.6-5.1,1.14-7.64.69-3.24.37-6.58,1.37-9.87.67-2.19.41-4.82.93-7.15.67-3,1-6,1.61-9a40.32,40.32,0,0,0,.68-6.1,47.2,47.2,0,0,1,.89-5c.59-4.06,1.82-8.05,2.14-12.12.39-4.89,1.74-9.61,2-14.54.19-4.14,1.45-8.23,1.83-12.38.49-5.31,2-10.41,2.63-15.69.29-2.51,1.11-5,1.21-7.54s.73-4.93.24-7.4a5.82,5.82,0,0,1,.24-2c.4-3.41-.28-6.64-.93-10a67.12,67.12,0,0,1-1.52-10.71c-.07-2.31.11-4.53-1.34-6.69-1.79-2.67-2.13-6-3.44-9-.3-.67-1.33-1.32-.46-2.39a25,25,0,0,1,2.34,3.58,9.85,9.85,0,0,0-1.18-3c-.44-.84-2.74-2-.71-3.59.58-.45-.74-.83-.33-1.44l.3-.37a1.41,1.41,0,0,0,1.6-1.4c-.18-.89,0-2.35-1.64-2.38l.05,0a3.72,3.72,0,0,0,.06-3.09c-.53-1.38.67-2.34,1.56-3.34a9.69,9.69,0,0,0,.58,5.5c.1,0,.27-.06.29-.11.13-.58-.47-1.61.52-1.61.8,0,.47,1,.38,1.53a20.13,20.13,0,0,0,.13,4c0,.11-.09.28,0,.32,2.42,2.37.75,5.71,2,8.37a8.55,8.55,0,0,1,.33,2.09c.07.41.32.87.75.76s.54-.56.41-1.08c-.32-1.26.21-2.36.5-3.51l.45,0a19.57,19.57,0,0,0,0,2.1c0,.41-.45,1.26.74,1,.36-.07.26.51.06.88a4.1,4.1,0,0,0-.2,3.6,2.3,2.3,0,0,1,0,1.34c0,.16-.61.37-.72.28-.41-.32.05-.36.23-.52s-.1-.45-.17-.45c-.42,0-.59.26-.61.65a27.28,27.28,0,0,0,.4,3.36,31.67,31.67,0,0,1,.37,5.29c0,.23.25.5.39.76,2.39-2,2-4.82,2.25-7.44.09-1.24-.71-1.26-2-.5,1.19-2,.53-4.1,1.07-5.85s.21-3.57.64-5.31a4,4,0,0,0-.57-2.71c-.2-.41-.94-.74-.26-1.13s1.05.16,1.13.86c0,.1.12.18.18.27v0c1,3.71-.07,7.42.05,11.13,0,.31-.16.62-.13.92a.64.64,0,0,0,.45.41.35.35,0,0,0,.3-.47c-.7-2,.69-3.71.57-5.58a4.59,4.59,0,0,1,.52,4.76c-.1.28,0,.51.17.54a.91.91,0,0,0,.75-.19,4.34,4.34,0,0,0,.94-2.27c0-1,.61-2.4.39-3-.74-2,.52-4.06-.64-5.89-.14-.21-.11-.21.46-.44.12,0,.2-.25.24-.39,1-3.81,2.79-7.48,2.73-11.51a8.5,8.5,0,0,1,.54-3.34,7.72,7.72,0,0,0,0-4.93c1.83,1.2,1.57,2.82,1.33,4.24a6.2,6.2,0,0,1-.91,2.85c-.1.13-.27.34-.22.42,1.47,2.89-.69,5.19-1.17,7.76-.24,1.26-.89,2.43-.46,3.94a5.62,5.62,0,0,1-.52,4.65c-1,1.82.1,3.86-.72,5.75a11.85,11.85,0,0,1,1.73-.4c1.16-.09.93-1.16.87-1.62-.14-1.16-.22-2.06.46-2.26s1.08-.77.95-1.14c-.24-.66-.59-1.51-1.61-1.39a25.68,25.68,0,0,1,2.3-6.17c1.07-2.14.83-4.29.86-6.5a13,13,0,0,1,.86-3.37,17.31,17.31,0,0,0,.2-1.74c1.15.2.84.09,1.36-1.42.79-2.3.16-4.71.92-7,0-.09-.15-.24-.4-.61a11.66,11.66,0,0,1-2,4.33,12.66,12.66,0,0,1,.75-3.59c.3-.71-.19-1.69-.06-2.61.24-1.64.26-3.32.38-5,0-.26-.11-.65.28-.67a1.45,1.45,0,0,1,.63.38,2,2,0,0,1,.51,2.45c-.33,1,.17,2.15-.22,3.21a3.23,3.23,0,0,0-.1.51c1.78-.34,1.1-1.86,1.44-2.88.89.07,1.53.45,1.24,1.38-1.29,4.14-1.52,8.52-3,12.62-.2.56-.63.83-.84,1.35-.35.9-1.07,1.67.12,2.46.35.23.15.54,0,.89-.8,2.68-1.62,5.33-2.65,8-.76,1.93-.48,4.27-.66,6.39,2.28-.81,3.07-2.76,3.82-4.66s1.29-3.9,1.93-5.88c-1.11-.21-.54,1-1.38.83,0-.17-.18-.43-.11-.57,1.44-2.68,1.45-5.76,2.41-8.56,1.17-3.39,1.52-7.06,3-10.29.74-1.66,1.29-3.32,1.86-5,.14-.41.42-1,1-.8s.24.72.19,1.19c-.24,2.11-.25,4.26-.57,6.36-.24,1.59-.4,3.46-1.34,4.61s-.81,2.44-1.23,3.62c-.27.74-1,.94-1.24,1.64-.52,1.32.42,2.62-.21,3.93-.37.77-.24,1.8-.65,2.54s-.84,1.46.19,2.14c.6.39-.61.75-.12,1.21-2.74,2.22-3.3,5.85-5.5,8.44a4,4,0,0,0-1,2.84c0,.31-.64.69.08.93.55.18.67-.3.81-.65.28-.7,1-1.14,1.13-1.94a4.86,4.86,0,0,1,0,3.36c-1.49,3.49-2.46,7.14-4.44,10.51-2.19,3.73-4.46,7.62-4.92,12.22-.1,1-.81,2.28-1,3.46-.15,1-.17,2-.26,2.9-.23,2.48-1.76,4.64-1.31,7.28-1.34-.73,0-2-.95-2.66-.25,1.2-1,2.61-.43,3.69,1.46,2.74-1.25,5.05-.32,7.65-.75-.66-.18-1.53-.6-2.28-.67,1.75.33,3.79-1.08,5.36.25.61.85-.67,1.08.17a1.61,1.61,0,0,1-.45,1.8c-.66.5-1.19.87-.23,1.54-.41.08.63,1.25-.55.75-.3-.13-.56-.34-1-.5.8.68.31,1.54.22,2.18a54.13,54.13,0,0,1-1.47,8.5c-1,3.25-.75,6.68-2,9.87-.4,1,.3,2.45-.85,3.4,1.16.78.26,1.79.18,2.62-.54,6.13-2.12,12.11-2.71,18.24-.36,3.8-1.32,7.5-1.9,11.26-.46,3-.41,6-1.22,8.91-1.09,3.88-1.17,7.89-1.89,11.81-.68,3.73-.83,7.57-1.52,11.33-.58,3.19-.71,6.43-1.17,9.62-.22,1.55-.82,3.24-1,4.79-.25,2.29-1.14,4.53-.78,6.89a9,9,0,0,1-.5,2.73,86.72,86.72,0,0,0-.74,9.13c-.12,2.53-1,5-.67,7.58a.46.46,0,0,1-.18.38c-.61.31-.84.61-.79,1,.26,2.38.59,4.73-.31,7.11-.36,1-1.63,1.48-1.16,2.89a12.14,12.14,0,0,1,.51,3.64c0,.92-.76,1.28-.77,2.26,0,1.49.1,3-.05,4.54a13.44,13.44,0,0,1-.27,1.34c.43-.08,1-.7,1,.43a40.92,40.92,0,0,1-.84,7.6,87.5,87.5,0,0,0-1.84,9.25c-.16,1.68.16,3.44-.06,5.21-.29,2.33-.27,4.71-.39,7.06a4,4,0,0,0,0,.69c.48,3.79.11,7.62.63,11.43.38,2.79.74,5.6,1.14,8.39s.82,5.46,1.36,8.17c.43,2.19,1,4.36,1.4,6.54.24,1.44,1.35,2.8.65,4.42-.41,1,.35,1.76.62,2.61a19.54,19.54,0,0,1,.76,3.62c.41,3.2.92,6.39,1.28,9.6.17,1.52-.27,3.18.18,4.57.92,2.83.25,5.83,1.27,8.67a8.73,8.73,0,0,1,.35,3.52c-.27,2.64.33,5.19.52,7.79.27,3.49.69,7,.88,10.45.21,3.75.58,7.5.72,11.26.11,2.92,0,5.86,0,8.79,0,1.46.35,2.92.06,4.38-.13.66,1.13,0,.8.78-.17.43-1,.36-.86,1.11.19,1.49-.08,3,.2,4.5a22,22,0,0,1,.5,6.59,2.23,2.23,0,0,0,.5,1.59A3.4,3.4,0,0,1,308,769c-.65,2.16.65,4.2.14,6.3a1.45,1.45,0,0,0,.44,1.25,13,13,0,0,1,3.37,8.27,2,2,0,0,0,.38,1.27,1.23,1.23,0,0,1-.09,2.09c-1,.48-.4.9-.34,1.43a3.18,3.18,0,0,0,.37,1.63h-8.64c.81-2.4.42-4.73-.11-7.15-.27-1.24-1.31-.57-1.53-1.06M323,423.43c-.23-.73.63-1,.77-1.68.61-2.92,2.45-5.33,3.35-8.22s1-5.79,1.73-8.64c.38-1.5.1-1.57-1.64-1.66.72,1.54,0,3-.29,4.42-.45,2.19-2.2,3.73-2.81,5.86a40.57,40.57,0,0,1-2,5.14C321.31,420.31,321,422.13,323,423.43Zm-47.62,61.94c-.51.6-.21,1.32-.74,1.95-.17.2-.74.88-.46,1.27a3.19,3.19,0,0,1,.51,3.2,1.93,1.93,0,0,0,.37,1.74c.57.93,1.27,2.36.63,3-1.39,1.34,0,2.35.28,3.16a7.82,7.82,0,0,1,.47,2.9c0,.38-.57.72,0,1.13a.76.76,0,0,0,1.08-.06c.39-.38.29-.74.06-1.22a11,11,0,0,1-.59-2.58c-.29-1.51.14-3-.14-4.47a29.89,29.89,0,0,1-.08-5.39c-.73-.32-.5.77-1,.55s.06-.67-.06-1A11.35,11.35,0,0,1,275.35,485.38Zm20.21,177.8a2.52,2.52,0,0,0-.3,1.75c.12,1.5.37,3,.56,4.47.33,2.58,1.07,5,1,7.77s.8,5.77,1,8.7c0,.79,0,1.57,1.24,1.83-1.54-2-.85-4.31-.72-6.3a19.59,19.59,0,0,0-.49-6.16,53.77,53.77,0,0,1-1.43-8.73A7.79,7.79,0,0,0,295.55,663.18ZM258.85,462.76c-3.78-8.56-6.94-17.36-10.71-26.21C248,438.82,256.32,459.4,258.85,462.76Zm12.73-101a16,16,0,0,1,.29,2.16c0,.79.46.84,1,.73.86-.17.16-.58.19-.9.12-1.23-.32-2.47,0-3.61s.5-2.08-.41-3c-.75-.76.4-2-.64-2.72.35-.16.86-.26.39-.8-.09-.1-.33-.21-.43-.16-.43.21-.37.64-.4,1A67.68,67.68,0,0,0,271.58,361.74Zm-7.11-175.91c-.57-4-.91-8-3.21-11.47C261.16,178.52,263.2,182.07,264.46,185.84Zm-36.37,97.55c.45,0,.08.75.55.6s.45-.5.38-.87c-.09-.54-.63-.85-.3-1.65.78-1.88-.2-3.95.26-5.92,0-.18-.54-.51-.81-.75-.92,2.14-.41,4.32-.55,6.46-.08,1.21-.9,2.49.13,3.64.21.24-.71.59.11.64.53,0,.57-.38.45-.69A1.9,1.9,0,0,1,228.09,283.39ZM302.19,754c-.9,2.56-.07,5.17-.57,7.72a24.4,24.4,0,0,0-.17,3.18c-.06.91.41,1.72,1.18,1.72s.29-.94.33-1.45C303.25,761.4,302,757.73,302.19,754ZM238.94,297.21c.47-.14.84-.14.94-.31a21.41,21.41,0,0,0,3.17-8.66.69.69,0,0,0-.35-.5c-.37-.19-.43.1-.53.39C241.13,291.1,240.07,294.06,238.94,297.21Zm77-111.66c-1.93.94-2.2,3.23-3.69,4.54-.42.37.09.59.06.9,0,.1.14.59.27.2.39-1.17,1.67-1,2.31-1.69.42-.47.59-1,1.31-1.37C317.85,187.27,316.35,186.37,315.94,185.55Zm-40.69,59.1c0,.1-.31.5.23.73.07,0,.35-.18.37-.3.4-2.88,1.93-5.43,2.47-8.27,0-.25.1-.48-.12-.57a.89.89,0,0,0-.62.05c-.16.95-1.15,1.44-1.33,2.3C275.86,240.51,275.61,242.45,275.25,244.65Zm-36,46.43a14.79,14.79,0,0,0,3.17-4.84c.42-.85.23-2,.68-2.94.25-.52-.34-.47-.58-.62-.46-.27-.4.24-.48.41C240.78,285.53,240.41,288.27,239.29,291.08Zm73.34,109.33c.56,2.34.88,4.71,2.64,7.08-.22-1.52-1.16-3-.41-3.51,1.82-1.23-.11-1.71-.22-2.5C313.7,401.7,313.52,400.5,312.64,400.41ZM262,181.73c-.46,4.41-.22,5.24,1.87,7,.14.12-.1.52.24.46.14,0,.38-.43.32-.53a11.65,11.65,0,0,1-.74-1.44C263.54,185.44,262.32,184,262,181.73ZM219.8,305.91c-.21,2.07.23,3.67-.05,5.29-.13.76-.44,1.61.32,2.31a1.84,1.84,0,0,1,.35.93c.08.35.22.74.58.66s.53-.58.45-1-.38-1.07-.53-1.63C220.39,310.44,220.68,308.27,219.8,305.91Zm53.9,126.77.42,0c0-3.7.48-7.4-.42-11.09Zm1.8-139.93a19.82,19.82,0,0,1,.24-4.7c.17-1.17.2-2.08-.88-2.9-.13,1.11.47,2.13,0,3C274,289.86,274.5,291.3,275.5,292.76Zm26.67,481.39c0,.32,0,.65.11,1,.29,1.37-.32,3,1,4.07.13.11-.14.53.28.38.12,0,.21-.26.27-.41C304.34,777.9,303.45,775.24,302.17,774.15ZM275.89,475.58c-.78,2.63-.1,5.3-.08,8C276.91,480.92,275.8,478.25,275.89,475.58Zm-5.21-281.45c-.15.1-.21.12-.24.17-.89,1.69.07,3.47-.25,5.2-.07.38.32.4.61.37s.23-.36.28-.62A9.75,9.75,0,0,0,270.68,194.13Zm24.47,422.53-.57-.12-2,9.32.45.1Zm-20-322.82c-.83,1.67-.3,3.53-1.37,5.35C275.79,297.63,276.2,295.83,275.17,293.84ZM270.9,187a11.42,11.42,0,0,1-.35,2.63,10,10,0,0,0-.38,2.49c0,.34.15.52.5.51s.42-.07.48-.35c.19-.93-1.13-2.24.69-2.76C270.92,188.91,271.92,187.7,270.9,187Zm40.68,14c-1.92,0-2.55,1.87-4,2.26-.06,0-.08.32,0,.48.09.38.31.13.48.07A7.34,7.34,0,0,0,311.58,200.94Zm-69.71,79c1.16-1.81,1.11-2.89-.2-4.42C241.16,277,241.94,278.4,241.87,279.92Zm34.58,91.51c-.17,1.87.26,3.51-1.52,4.34-.41.19.1.43.23.59s.26.32.58,0A4,4,0,0,0,276.45,371.44ZM277,244.76a9.75,9.75,0,0,0-.74,5.35C277.15,248.43,276.79,246.55,277,244.76ZM251.4,153.34c.85,1.3,1.19,3,3,3.92A7.91,7.91,0,0,0,251.4,153.34ZM284.08,605.7c.45-2.73.16-5.24-.76-6.41C283.47,601.52,284.19,603.55,284.08,605.7Zm-6.34-96.28c-.87,1.72-.86,3.52-.28,5.83C278.3,513,276.59,511.2,277.74,509.42Zm-.33-1.64c.07-.95.18-1.89.17-2.84,0-.15.35-.71-.3-.71-.46,0-.45.18-.5.61A3.85,3.85,0,0,0,277.41,507.78ZM221.27,295.54c.09-1.28,1.55-2.45.29-3.79C220.87,293,221.15,294.28,221.27,295.54Zm92.38,98.9a4.61,4.61,0,0,0-.47-3.35A2.92,2.92,0,0,0,313.65,394.44Z"/><path class="cls-1" d="M219.85,279.58a1.48,1.48,0,0,0-.23,1.72,3.14,3.14,0,0,1,.45,2c-.06.3-.1.56-.48.56s-.59-.1-.53-.48c.31-2-1-3.52-1.31-5.35a6.36,6.36,0,0,0-.74,2.91c.06,1,.49,1.91.2,3-.91-1.73-.88-3.76-2.16-5.31-.33-.41-.13-1.22-.27-1.83s-1.25-.24-1.48-1.05c1.66,0,1.09-1.38.79-1.91-1.42-2.47-2-5.3-3.42-7.74-.23-.38-.62-.76.36-.61.48.07.08-.57,0-.77-.78-2.61-.54-5.33-1-8-.14-.9-.39-1.77-.49-2.67.79.62,1.49.58,1.79-.44.24-.8-1.5-3.69-2.65-4.22,1,1.61.73,3.19.91,4.71-1.84-1.46-1.17-3.57-1.43-5.82-.44,1.57-1.05,2.74-.22,4.14-.95-.12-.66-.7-.75-1.06-.45-1.79-.9-3.58-1.31-5.38-.06-.24-.26-.77.41-.56.05-.49,1.59-1-.1-1.5-.74-.21-.73-1.05-.72-1.77s-.06-.62-.73-.33c-.32.14-1.07-.45-.92-.83.5-1.29-.21-2-.94-2.94a3.13,3.13,0,0,1-.86-2.67c.07-.33.18-.86-.46-.9-.45,0-.47-.24-.2-.51s1.26-.27,1.28-1.07-.76.34-1-.47c-.41-1.32-.56-1.27,0-3.14,1.07.38,1.3,1.63,2.24,2.13a.78.78,0,0,1,.36,1,.28.28,0,0,1-.39.19c-.46-.15-.11-.68-.4-1-.65.7-.2,1.08.2,1.49s.72.18,1-.25c.07-.11.59-.12.61-.06.49,1.24,2,1.57,2.5,2.81a7.65,7.65,0,0,0,2.2,2.57,8.22,8.22,0,0,1,2.76,4.75c.81,3.25,2.83,5.9,4.37,8.79a8.66,8.66,0,0,0,2.74,3c.2.14.68.53.8.15.19-.62.73-1.25.34-1.95a57.74,57.74,0,0,0-3.76-6.29c-.52-.69-.46-1.4-.92-2,2.17,2.21,4.47,4.33,5.27,7.45a4,4,0,0,0,1.41,2.06,7.43,7.43,0,0,1,2.62,6,5.3,5.3,0,0,0,1.11,3.64c.59.67-.32,1.11-.2,1.72l-1.06-3.13-.24,0a46.59,46.59,0,0,0,0,5.12c.27,2.44-.77,4.85-.09,7.28-1.54,1-.14,2.38-.35,3.6-1.19-1.36-.83-2.81-.67-4.34A29.58,29.58,0,0,0,223,263.76c-.32-1.26-.24-2.66-1.39-4.1,1.16,4.46-.16,8.56.44,12.71.56,3.9-.77,7.9-.35,11.93-.91-.76-.71-1.92-.7-2.78,0-.61-.43-1.17-.14-1.92.18-.44-.65-.56-1,0-.46-1.22.24-2.19.61-3.27a7.13,7.13,0,0,0,.42-4.66c-.63,2.11-.63,2.11-1.75,3.12,2.18-8,1.87-15.77-2.71-23.34,0,.79-.52.93-.2,1.64,1.07,2.37,1,5,1.72,7.54a16.44,16.44,0,0,1,.49,6.52c-.24,2.1.23,4.3-.18,6.34s.5,3.85.84,5.75C219.15,279.79,219.52,279.66,219.85,279.58Zm-8.06-34.82c-.05-.26,0-.78-.38-.58-1.18.69-1.24.16-1.18-.85a7,7,0,0,0-.37-1.57,1.07,1.07,0,0,0-1.06-.88c-.29,0-.61.61-.36,1.23.51,1.26-1.54,2.67.18,3.91-.61,2.23,1.31,2.66,2.6,3.56-.53-.52-.23-1.45-.86-1.83-1.17-.71-.21-1.35.12-1.81.18-.26.51.56.94.64.92,1.45.58,3.42,2,4.69a1.16,1.16,0,0,1,0,1.14c-.7.84-.26,1.63-.13,2.47s.14,2,.3,3c.07.45,0,.74-.41.6s-.42.46-.59.33a.48.48,0,0,1,.08-.82c.35-.24.2-.34-.08-.33-.86,0-.39.92-.79,1.31-.25.25,0,.82.55.71,1.43-.27,1.78.59,1.8,1.72a11.3,11.3,0,0,0,.78,4.58c.61,1.3-1,2.31,0,3.43-.21-.07-.57-.09-.6-.2-.57-2.25-1.14-4.5-1.64-6.76a4.32,4.32,0,0,0-.86-2.49c0,4.44,1.3,8.33,2.54,12.25-.08-1,.55-1.88.5-2.85.26,0,.79,0,.63.35-.75,1.38.2,2.84-.3,4.18-.67,1.79.65,2.43,1.85,3.57a21.94,21.94,0,0,0,.53-4.72,21.4,21.4,0,0,0-2-7.1c-.14-.28-.69-.66-.16-1s.74.15,1.24.41c-.61-2-.18-4-1.31-5.71-.14-.21-.24-.69-.12-.81,1.44-1.43-.07-2.82,0-4.21.09-1.72-2.34-3.14-.56-5,.23-.24-.13-.46-.27-.52-.72-.33-.29-1.73-1.64-1.63C212.53,247.08,212.13,245.57,211.79,244.76Zm-9.16-11.07c1,2.23,1.39,4.38,3.42,5.59a2.54,2.54,0,0,1,.9,1.58c.08.27-.71.8.19.81.66,0,.49-.49.43-.87-.18-1.22-1.09-2.08-1.62-3.13C205.23,236.25,204.52,234.67,202.64,233.69Zm22.1,27.68a25.2,25.2,0,0,0-2-6.24C222.2,256.58,223.54,260.79,224.74,261.36Z"/><path class="cls-1" d="M212.43,312.86a12.2,12.2,0,0,1-2.36-4.6c-.29-1.64-1.37-2.66-2.53-3.86-.38.89.45,1.48.13,2.26l-.86-.55,0,0c.43-.78-.5-1.07-.6-1.65s-1.68-1.13.17-1.52c.47-.1-.17-1.09-.21-1.11-1.9-1-1.67-3.16-2.57-4.68-.48-.81-.63-1.8-1-2.66a4.58,4.58,0,0,0-1.43-1.7,11.43,11.43,0,0,1-4.13-8.55c0-.33,0-.82-.17-.9-2.16-1.23-2.1-4.09-4.07-5.47-.59-.41-.38-1.27-.49-1.91-.05-.28.44-.74.79-1,.11-.07.69.14.74.72.19,2.5,2.15,4.08,3.25,6.12.07-1.93.09-3.8-1.57-5.2a10.33,10.33,0,0,1-3-5.18c-.14-.48-.22-1,.42-1.36a23,23,0,0,0,9.21,11.17c-.55-2-.26-3.62-1.54-5.35s-2.94-3.56-3.76-5.77c-.21-.55-.89-.86-1.31-1.29-.66-.66-1.64-1.36-.75-2.62.38-.55,0-1.3-.3-2.15,1.39.88,1,2.33,1.67,3.33a19.3,19.3,0,0,0,1.11,2c.42.53.36.51.92.24s.66.44,1.24.78c-.21-2.44-1.46-4.26-2.64-6-1.51-2.25-2.56-4.54-2.12-7.63,1.13,2.17.88,5.33,4.39,4.85l0-.05a4.42,4.42,0,0,0,.33,2.8,2.3,2.3,0,0,0,.1.32c.75.81.81,2.08,1.76,2.8a1.86,1.86,0,0,0,.21-1.4h.43c0,.6.71,1.27-.22,1.8-.3.17-.13.59.14.7.47.18.82.91,1.48.37.22-.18.51-.64.67,0a5.38,5.38,0,0,0,3,3.4c.43.25.82.91.53,1.25-.59.7-.8-.27-1.09-.51a4.54,4.54,0,0,0-1.89-1.17c0,.67.61.86.91,1.26l0,0c-.8,1.33-1.06-.47-1.66-.28-.37-1.94-1.59-.89-2.77-.83a30.56,30.56,0,0,0,7.43,7.46,7.62,7.62,0,0,0,2.24,1.49c.28.09.65.38.39.78s-.5.15-.77,0a11.05,11.05,0,0,0-1.82-.87c-.73-.2-1.26-1.7-1.86-.88s.75,1.38,1.36,2c.18.18.13.64.52.53s.06-.58.14-.67c.5-.53,1.15.44,1.69-.11-.3,1.43.69,2.65.66,4.1,0,1-.19,2.41,1.43,2.76.24.05.13.47-.26.54-1,.17-.06.94-.4,1.32.5.4,1.65.94,1.26,1.26-.68.55-.1,1.33-.94,1.94.84-2.67-1.65-2-2.61-3.18,0,1,.95,1.91-.33,2.42a1.61,1.61,0,0,1-.95-2.19c.25-.57.17-.75-.35-1-1.55-.76-2.89-2-4.77-1.95-.46,0-.7-1-1.19-.3-.37.54.05,1.12.33,1.63.58,1.07,1.18,2.13,1.78,3.2-2.09-1.46-3.1-3.71-4.29-5.91-.08.52-.8.73-.39,1.47a14.94,14.94,0,0,0,3.67,4.59c.15.12.9,1,.95-.2.68.14.61.82.83,1.22.48-.42,1-.82,1.42-1.24.3-.28-1-.59,0-.83.49-.12.88.31,1.07.83a1.65,1.65,0,0,0,1.53,1.08c0,.46,0,.92,0,1.38,0,.67.14,1,.52.11,0-.05.29-.07.3,0a37.32,37.32,0,0,1,1.85,4c.17.5-1.22.28-1.12.73a4.55,4.55,0,0,0-.28-2.21c-.34.42-.32,1-.82,1.3.47-2.26-1.56-3.23-2.26-5.07-.53,1,.35,2.07-.9,2.53-.19.07.13.59.26.91a10.52,10.52,0,0,0,2.72,3.66c.3.28.47.71,1,.05.29-.38.52.2.48.53-.06.54,1.07,1,0,1.61-.17.09-.21.43-.37,0-.06-.15-.08-.44-.15-.45-1.84-.32-2.34-2.36-3.95-3,1.22,1.78,1.61,4,3.76,5.29,1.2.72,1.54,2.62,2.86,3.56.22.15-.06.46-.38.47-.8,0-.81,0-.49.59l1.46,2.62Zm-15-34.1a.63.63,0,0,0-.07.78c.54.68.43,2.09,1.9,1.75.22,1.72,2.11,2.11,2.78,3.45.2.4.43.5.78.4.11,0,.27-.26.25-.36-.33-1.18-.46-2.41-1.79-3.11A11.18,11.18,0,0,1,197.44,278.77Zm6.86,4.55a13.72,13.72,0,0,0,4.74,6.37c.32.25.85.67,1.21.21s-.27-.78-.55-1.05A42.73,42.73,0,0,1,204.3,283.32Zm.88-.83,3.9,4.45C208.79,284.55,207.24,283.26,205.17,282.49Z"/><path class="cls-1" d="M360.42,227.65c0-.11,0-.29-.1-.32-1.64-.66-.36-2.07-.78-3a76.77,76.77,0,0,1-7,9.68c1.39-4.69,4.42-8.61,6.25-13.62-3.73,3.39-6.37,7.07-9.57,10.23-1.52.57-2.93,1.48-3.3,3a2.38,2.38,0,0,1-1.56,1.82,2.94,2.94,0,0,1,.56-3.54c.22-.21.66-.74.21-1-.7-.38-.48.56-.55.59-1,.38-1.22,1.31-1.72,2.07-1.06-1.27.93-2.47.07-3.73-.43.07-.21.41-.25.61s-.22.8-.57.66c-.87-.37.13-.46.16-.71.08-.67-.72-1.85,1-1.56.35.06.25-.18,0-.32-.79-.41-.09-.75,0-1.17.29-1.07,1,0,1.39-.34-.13-.43-1.56-.89,0-1.35.06,0,.11-.28.09-.29-1.69-.86-.26-1.64.23-2a9.57,9.57,0,0,0,2.58-2.86c.62-1.06,1.82-1.12,2.37-2.23.4-.8,1.53-2.26,3-.82.49.49.71,0,.92-.23,1.61-2.06,4-3.23,5.63-5.37a7.43,7.43,0,0,1,2.52-1.53c.69-.35-.31.63.39.74.6-.77.79-1.89,1.8-2.52.84-.52.79.53,1.27.47a3.1,3.1,0,0,1-.13,1.94c-.54-1.13-.9.45-1.44.14.18.19.37.56.54.56,1.85-.07.55,1.45,1.06,2-1.53.37-.55,1.67-.52,2.23a16.47,16.47,0,0,1-.12,3.31c-.38,2.61-1.65,4.87-2.71,7.51a1.54,1.54,0,0,1,.08-1.87c.93-1.21.62-2.85,1.58-4,.48-.6.83-1.46-.47-1.77-.29-.07-.3-.61-.09-.73,1-.61.37-1.54.59-2.35-1.33.67-1.07,2.53-2.62,3-.4.13-.38,1.32,0,1.74.53.66.19,1.47.7,2.17.38.54-.08,1.46-1.46,1,2.11,1.5.25,2.51,0,3.64Zm-13,1.46c2.14-.43,5.78-4.28,6-6.46-.2,1.33-1.95.82-2.26,2.24-.12.56-.52,1.71-1.24,1.69C348.21,226.54,347.9,227.68,347.44,229.11Zm15.38-16.19c.05,1.53-1.77.09-1.79,1.48l.13,1.62c1.17-.52,1.2-.52,1.06-1.3-.08-.4.24-.27.37-.38A1,1,0,0,0,362.83,212.92Z"/><path class="cls-1" d="M331.39,280.48a7.61,7.61,0,0,0-3.59,3.13c-.27.45-.58,1-1.29.58l-.37-1.09c-.32-.43,2.26-.36.19-1.13-.17-.06-.23-.68-.18-1,.15-1-.55-.92-1.13-1l.05.05c-.22-.94-1.51-1.91.16-2.79.39-.2.22-.68,0-1.06a1.28,1.28,0,0,0-1.06-.66c-.32,0-.43-.19-.39-.42.34-2.07-.33-4.12.42-6.3.48-1.38.5-3.14.94-4.69.15-.54.13-.5.84-.47.44,0,.68-.38.82-.71a11.69,11.69,0,0,0,.69-2.07c.08-.37.34-1.14-.31-1.06-.42.05-1.13-.51-1.5.47s-.34,2.12-1.2,3.21c.08-2.35.92-4.27,1.42-6.24a15.9,15.9,0,0,1,2.12-4.74c.24-.36.32-.89,1-.77.38.07.88-.14,1.08.32s-.57.23-.56.52c.06,2-.93,3.73-1,5.7.35-1.41,1.39-2.37,2.09-3.54a.7.7,0,0,0,.12-.71c-.27-.86-.2-.89.7-1.3.47-.21.41-.78.4-1,0-1.25,1.06-2.72-.74-3.73-.37-.21.06-1.31-.51-1.83.56-.29.7.6,1.14.18s-.43-.57-.3-.64c.85-.52-1.34-1.89.58-2.06.08,0,.23-.19.22-.24-1.05-2.6,1.05-4.89.74-7.39-.4-3.16,1-5.6,2.81-8a1.52,1.52,0,0,1,.89-.66c.6,0,1.31-1,1.78,0,.34.7-.61,1-.86,1.46a27.64,27.64,0,0,0-1.08,2.88c-.56,0-.08-.77-.64-.85-.88,1.42-1,3.11-1.56,4.69a.65.65,0,0,0,.24.74c.38.24.25-.31.49-.43,1.37-.68,1.61-2.11,2.25-3.32,1.57-2.95,2.17-6.35,4.38-9,.67-.81,1.65-1.16,2.45-2.43,0,2.07-1.57,3.45-.26,5.49-2-1.55-2.49-1.18-3.74,1.93.53.51,1-1.09,1.49-.07.31.68-.16,1.23-.64,1.73s-.15,1-.24,1.58c0,.24.31.71.25.75-1.29.92-1.23,2.87-2.8,3.62-.38.18-.33,1.1-.65,1.56a9.08,9.08,0,0,0-1.2,6.83c-1.3-.23,0-1.32-.72-1.75a21.24,21.24,0,0,1-2,5c-.19.31.59.45.37,1-.14.34.43.9-.23,1.14s-.14-.87-1-.79c.55,1.1-.57,2.36.63,3.41.21.19,0,.73-.16,1.13a2.86,2.86,0,0,0-.42,1.61c.46,2.08-2.28,2.77-2,4.74-2.62,1.46-2.62,4.21-3.3,6.64-.18.64-.85,1.39-.67,1.83,1,2.53-.08,5-.13,7.44,0,.53.25.35.44.43.05,1.58-.74,3.12-.16,4.72a.75.75,0,0,0,.89-.28c1-1.69,2.92-2.74,3.46-4.76.19-.73.73-.77,1.33-.72a2.69,2.69,0,0,1-1.33,2.41,1.93,1.93,0,0,0,.11,2.9Z"/><path class="cls-1" d="M320.75,374.87c-.85-1.81-1.22-3.84-3-5.23-1.37-1.1-1.88-2.91-2.81-4.38-.67-1.05-1.66-1.82-1.29-3.24a2.69,2.69,0,0,1,.18-.4c.77,0,.34.77.71,1,.62.47-.93.94-.11,1.24s.68-.93,1.28-1.13l.48-.16c-.89,1.79-.68,2.44,2,6.34a5.88,5.88,0,0,0,.06-4.37,60.83,60.83,0,0,1-2.81-7.53,1.15,1.15,0,0,1,.15-1.29c.46-.41,1-.26,1.54.35,0-2,0-3.7,0-5.4,0-.46.3-1.05.58-1a1,1,0,0,1,.8,1.15c-.13,1.76-.25,3.52-.39,5.27-.09,1.15-.18,2.3-.31,3.45-.1.9.13,1.3,1.16,1.34,1.21.05.86-1.06.82-1.28-.67-3.34.61-6.89-1.07-10.11a2.76,2.76,0,0,1-.08-1.9,3.51,3.51,0,0,1,1.95,3.1c0,1.69-.32,3.43,1,5a39.6,39.6,0,0,1-.31-4.81c0-1-1.14-2.3.62-3.15.54-.26-.19-1.24-.3-1.9s-.73-1.07.28-1.26c.68-.13,1.05,0,1.21.92.55,3.21,1.57,6.31,2,9.54a11.1,11.1,0,0,1-.39,5.4,4,4,0,0,0,.06,1.81,40.49,40.49,0,0,1,.32,5.63,1.49,1.49,0,0,0,0,.5c2.43.31,1,2.17,1.16,3.24.15,1.31.62,2.69.06,4.07a1.67,1.67,0,0,0,.19,1.44c1.15,1.31.45,3.17.07,3.91-1.51,2.94-.54,6.25-1.85,9.13-.13.3,0,.67-.53.68s-.2-.48-.35-.71c-1-1.51.06-3.08,0-4.63s-.13-3.21,1.34-4.36c.48-.38,0-.77-.31-1-1.45-1-1.92-2.87-3.56-3.72-.39-.2-.42-1.1-.62-1.67Zm3.58-2.17c-.51-1,0,1.34-.74,0a1.18,1.18,0,0,1-.17-1c.29-.91-.76-1.9.19-2.76-1.83-1.12-1-3.15-1.57-4.72-.1-.3.22-.82-.32-.9s-.42.56-.51.86c-.54,1.8,0,3.66-.28,5.49-.16,1.21.75,2.29.92,3.4.38,2.61,1.94,4.37,3.61,6.13.35.37.8.1.61-.14-.67-.84.18-1.81-.58-2.83S323.62,374.05,324.33,372.7Zm-2.64-23.76a30.7,30.7,0,0,0,.6,7.24,8.88,8.88,0,0,1-.51,2.8c-.22,1.29.55,2.75.88,4.14.05.22.06.54.36.45s.61-.34.6-.5c-.13-1.78.85-3.39.74-5.14s.65-3.57-1.45-4.61c-.35-.17-.13-.67-.27-.94C322.12,351.32,322.71,350,321.69,348.94Z"/><path class="cls-1" d="M250.43,176.73c-.9.44-.8-.59-1.23-.84.34-.59.18-1.27-.44-1.11a1.28,1.28,0,0,0-.73,1.84c.38.87.81,1.72,1.26,2.55a1,1,0,0,1,.08.82l-.94-.34c.61,2.17,1.39,4.23,2.14,6.33a13.14,13.14,0,0,1-2.39-3.38c-.54-1.19-.8-2-.16-3.22.33-.6-.09-.81-.83-1.54a2.3,2.3,0,0,1-.52-1.87,8,8,0,0,0,.28-3c-.67-2.31.15-5-1.84-7-1.19-1.18-1.17-3.09-2.47-4.25-.3-.27-.31-.62-.88-.34s-1.37.33-1.33-.79c0-.5-.44-.53-.74-.37-.51.26-.08.53.08.8a30.76,30.76,0,0,0,2.26,3.74,2.87,2.87,0,0,1,.72,2.85c-.47-1.14-1.18-.61-2-.27.61-3-1.92-4.46-2.79-6.71-.86.65.7,1.61-.5,2.09v0c-.13-.9-1.17-1.71-.2-2.74.22-.23-.15-.76-.47-.78-1.49-.12-1.1-1.63-1-2.08.15-1.21,1-.81,1.55,0,.54-1.41-.49-2.59-.09-3.88,1.38,2.35,2.18,5,4.44,6.73a1,1,0,0,0,0-1.09A15.31,15.31,0,0,1,239,148.71c.1-.88-.82-1.19-.85-1.91,0-.5-.44-1.28.38-1.43s.45.69.6,1.1c.54,1.42.41,3.1,1.9,4.15.5.35.56.85,1.27.25.22-.19,1.59.05,1.45.92a1.61,1.61,0,0,0,.51,1.42c.44-.78,1.9.3,1.88-1.16.89.85-.71,1.58,0,2.39.71-.44.28-1.6,1.48-1.91-1.23,1.86,2.1,2.17,1,4-.81,0-1.63-.69-2.66-.19,1.47,1.49,3.16,2.74,4.24,4.69-1.65.61-2.35-.81-3.43-1.48-.15.93.74,1.95-.5,2.73a24.89,24.89,0,0,0-6-10.84c-.39.93.54,1.65.41,2.53,0,.05-.08.13-.07.15a9.23,9.23,0,0,1,2.31,4.12,9.17,9.17,0,0,0,2.22,4.3,1.63,1.63,0,0,1,.56,1.36c0,.35,0,.75.35.91,2.44,1.08,2.66,3.67,3.92,5.56a6.92,6.92,0,0,1,1.23,2.9,1.46,1.46,0,0,0,.5,2.29,15.07,15.07,0,0,1,4,3.46c.29.35.44.69.15,1.05a1.49,1.49,0,0,1-.82-.46c-1.2-1.77-3.33-2.29-4.87-3.63Z"/><path class="cls-1" d="M360.37,227.6a8.35,8.35,0,0,0,0,1c1.37.14.65,1.19.45,1.51-.32.52-.72.05-1-.34a.66.66,0,0,0-.62-.09.7.7,0,0,0-.23.92c.56,1.48-.1,2.31-1.42,2.84-.38.15-.82.36-.59.85.47,1,.2,1-.51.4-.25,1.09-1.75,1.06-2,2.17,0,.12.13.31.24.42s.27,0,.44-.15c.72-.61,2-.15,2,.78s.5,1.92-.58,2.58a.75.75,0,0,0-.34.56c.38,3.56-2.57,5.11-4.41,7.32a10.9,10.9,0,0,1-2.14,1.83c-.77.55-1.63,1.2-1.17,2.5.13.36-.25,1.1-1,.68,0,0-.22.11-.22.14.25,1-.78,1.4-.94,2.44,5.38-.39,6.57-4.88,8.61-8.51.75,1.7.93,2.32,0,3.86-.7,1.19-.22,2.33-.37,3.47-.12,1,1-.48,1.22.31-.62.57-.66.42-1.78.75-.43.13-.59,1.09-1.25,1.45-.41.22-.57,1.16-1.09.08-.22-.45-.31,0-.29.15.08.77-.85.85-1,1.42-.38,1.8-2.58.62-3.27,2-.17.34-.63-.27-.76-.63a1.29,1.29,0,0,1,.57-1.67,2.14,2.14,0,0,0,1.38-1.42c-1.49.63-2.5-.82-3.93-.48-.39.09-.31-.66,0-1.05.53-.61,1.7-1.17.24-2,.8-.84-.68-2.52,1.38-3.09,1.36-.37,2.16-2,3.26-3a49.27,49.27,0,0,0,5.41-6.36c.13-.17,0-.58.53-.44.35.1.63-.17.36-.59a.45.45,0,0,0-.72-.15,11.15,11.15,0,0,0-3.38,3.76,9.76,9.76,0,0,1-3.08,3.59c-.51.33-.64-.49-1-.72s-.2-1,.17-1.5c.85-1.24,1.75-2.5,2.61-3.68s.8-2.66,1.16-3.84a7.72,7.72,0,0,1,3.65-4.2,8.4,8.4,0,0,0,3.51-5.24c.41-1.56,1-1.14,1.92-.65Z"/><path class="cls-1" d="M290.92,167.79c1.19-1,1.35-2.64,2.54-3.76a4,4,0,0,0,1.27-3.22c-.19-1.27,1.34-1.41,1.93-2.26.95-1.36,1.15-2.4,0-3.65-.1-.1-.18-.36-.12-.43.69-.85,1.37-1.7,2.12-2.49.43-.47.06-.91.31-1.6-1.55.64-2.14,2-3.39,2.57-.24.1-.44.46-.71.16a.86.86,0,0,1-.12-.64c.16-.94.36.11.54,0a5.22,5.22,0,0,0,1.78-2.23c.31-.6-.78-.19-.89-.69,1.51-.18,3.3-2.6,3-4.11-.07-.42-.4-1-.71-.5-.91,1.3-.55-.72-1-.34l0,0a6,6,0,0,1,1.48-3.55,25.83,25.83,0,0,0,3-6.9c.45-1.44.79-2.92,1.2-4.38a1.36,1.36,0,0,1,1.21-.95c-.27,1.29-.09,2.37,1.45,2.56.49.06.3.4.28.6-.07.86-.19,1.72-.29,2.58h-.67c-.14-.72-.29-1.43-.4-2.15-.08-.53-.91-.43-.87-1.06a1.55,1.55,0,0,0-.52,1,19.21,19.21,0,0,1-1.29,4.51c-.26.64-.71,1.43.23,2.08.66.46-.13.72-.33,1-.62.93-2.2,1.42-1.35,3,.08.15.05.13,0,.24-.92,1-.92,1.24,0,2.73a18.3,18.3,0,0,0,1.94-5c.36-1.79-.2-3.93,1.25-5.51a8.79,8.79,0,0,1,.24,4.33c-.43.83-1,1.5-.22,2.48.08.1.51,1.45-.37,2-.07,0,0,.59.1.59,2.11.22,0,1.3.39,1.85-1,.8.25,1.45.16,2.26a12.07,12.07,0,0,1-1.8,4.31,34.89,34.89,0,0,1-3.55,5.84c1.43-1.08,3.18-1.69,4.37-3.17-.62,1.52-1.18,3-2.71,3.94-.75.46-2,.58-1.88,2,.05.5-.5.45-.77.31a.56.56,0,0,0-.84.23c-1.14,1.81-2.88,3.09-4.23,4.73-.25.3-.92,1.1-1.73.62Z"/><path class="cls-1" d="M293.28,114.25c1.66-1.54,3.17-3.05,3.7-5.52a5,5,0,0,1,1.36-3c1.18.69,1,1.6.18,2.67l1.19-.19a7.63,7.63,0,0,0-1.53,3c-.14.45-.74.89-.06,1.23a1,1,0,0,0,1.41-.58,4,4,0,0,0,.17-3.66c.89-1.25,1.13-2.89,2.35-4.1.55,1.05-.16,1.7-.55,2.26-.82,1.21-.81,1.39.33,2.39.51.44.05,1.27-.22,1.62-1.08,1.39-1.64,3.17-3.14,4.23-.61.43-.44.81,0,1.24.77.79.55,1.49-.3,2-1.27.73-2.13,1.54-1.82,3.25.1.56-.68,1.24-.95,1.91-.12.29-.53.33-.3,1,1,2.86,1.36-.19,2-.12l.4.4a7.2,7.2,0,0,1-2,1.84c-.67.4-.57.38-1.33,0s-.67.52-1,.82c.63.63-.23,1-.39,1a3.58,3.58,0,0,0-2.67,2.94c-.07.26-.29.59-.6.39-1.39-.9-1.62.37-2,1.12-.21.39-.26.68-.79.89a1.46,1.46,0,0,0-1,1.74c.07.3.15.71-.26.9a.61.61,0,0,1-.5,0c-.58-.37,0-.7.1-1a9.33,9.33,0,0,1,3.33-4.75c1.88-1.67,2.78-4.07,4.46-5.9.25-.27.35-1.16.75-1.73.21-.29.36-1-.24-1.34s-.86-.13-1.37.34c-1.5,1.38-2.35,3.21-3.63,4.74a11.93,11.93,0,0,1-4.15,3.76c2.11-3.76,5.12-6.5,5.86-10.47-2.09-.34-1.2,2.6-3,2.56,0-2.6,2.26-3.54,3.61-5.17.82-1,2.11-1.5,2.64-2.75Zm1.73,2.8c-1-.22-.32-1.07-1-1.14.25.57-1,.47-.48,1.4.43.73-.12,1.78-.89,2.26-.26.16-.4.23-.38.48s.36.41.64.37a2.34,2.34,0,0,0,2.08-1.89c.11-.48,0-1,.41-1.42,1.23-1.18,1-2.79,1.19-4.29C296.55,114.43,293.82,114.87,295,117.05Z"/><path class="cls-1" d="M265.31,101.05c-.46.58,1.34,1-.06,1.9-1.23.78-1.48-.13-2.22-.46a17.48,17.48,0,0,1-5.72-4.76,2.59,2.59,0,0,1-.59-1c-1.13-4.46-4-8-6.27-12.18a5,5,0,0,0,.7,4.86c1.31,2.1,1.62,4.46,2.41,6.69.16.46-.08,1.2.83.63.12-.08.38-.15.37.27,0,2,1.07,3.45,2.2,4.87.81,1-.58.42-.49.92l1.16.83c-.28.42-.63.21-.93.23-.81-.69-2.29-.88-1.77-2.53.14-.45-.29-.55-.65-.53s-.6-.23-.73-.69c-.69-2.43-2.52-4.11-4-6.39l-.11,1.23.05,0c-1.08-.41.5-1.72-.7-2.09-.48-1.18,1-2.33,0-3.47.36-.31,1.19.9,1.06-.42a1.71,1.71,0,0,0-.35-.75c-1.37-2.28-2.08-4.59-.25-7a1,1,0,0,0,.11-1.1c-.34-1.05-.58-2.13-.88-3.26a2.46,2.46,0,0,1,2.57,2,23.31,23.31,0,0,0,1.89,3.6c.3.56.94,1.24.43,1.65-.78.62-.59-.82-1.31-1a3.53,3.53,0,0,0,1,2.92c1.25,1.37,1.52,3.28,2.73,4.56,1.95,2,1.87,5,3.45,7.16a12.89,12.89,0,0,0,4.89,3.88c.3.15.89-.31,1.35-.48Z"/><path class="cls-1" d="M336.12,362.33a8.67,8.67,0,0,1,.88-6.6c.33-.61-.26-.93-.19-1.45s.06-.56.6-1a.81.81,0,0,0,.28-.7,2.31,2.31,0,0,1,1.41-3.27c.73-.34.51-1.06.42-1.7-.57.25.06,1.52-.93,1.21-.44-.14-.37-.92-.23-1.45a25.87,25.87,0,0,0,.54-8.41c0-.32.07-.63-.27-.92-.88-.75-.65-1.51.12-2.21A9.94,9.94,0,0,1,340,339c.79-.22.54-.77.68-1.26-.1,1.39.79,2.73.5,3.88a13.85,13.85,0,0,0-.07,4.11c0,1.24-.31,2.43-.17,3.65.09.79,0,.7.91,1.38a2.05,2.05,0,0,1,.7,2.07c-1.21,3.34-.8,7-2.13,10.31-.47,1.19.34,2.79-.51,4s-1.19,2.9-2,4.3a7.17,7.17,0,0,1,1-5.28,5.84,5.84,0,0,0,.63-1.68c.22-1.17-.45-.39-1-.19.47-.95.31-1.72-.73-2.63,1.38.41,2,.32,2.17-.9a30.25,30.25,0,0,0,.71-3.81c0-.31.14-.5-.28-.52s-.27.29-.32.53c-.17.88-.41,1.74-.67,2.8-.82-1.35-.39-2.67-.57-4Z"/><path class="cls-1" d="M285.86,103c-2.28,1.41-4.4,2.74-5.72,5-.6-.6.43-1-.18-1.55a10.29,10.29,0,0,0-.76,1.41,1.65,1.65,0,0,0,.48,1.69c.54.32.86-.45,1.2-.9.62-.84,1.28-1.66,2-2.45.19-.22.36-.65.8-.41a.78.78,0,0,1,.32.91,2.1,2.1,0,0,1-.84,1.32c-1.57,1.37-3.29,2.68-4,4.8a2.42,2.42,0,0,0,.09,1.9c-1.28-1.09-.65-1.84-.31-2.54a.91.91,0,0,0,0-1c-.29.21-1,.17-.83.62.43,1.08-1.58,1-.92,2.08,0,0-.28.24-.3.22s-.47-.41-.43-.48a2,2,0,0,0,0-2.14c-.05-.09.4-.63.44-.61,1.6.79,1.08-.75,1.06-1.15-.12-3.11,1.86-5.31,3.09-7.87,1-2.06,3.41-3.29,3.27-6,0-.88,1.16-1.17,1.57-2a23.53,23.53,0,0,0,1.19-3.84,9.57,9.57,0,0,1-4,3.74c1.1-1.83,2-3.49,3.06-5a15.2,15.2,0,0,0,1.4-2.11.73.73,0,0,1,.87-.4c.56.15.31.47.14.77s0,.42.1.62c1.92,3.13.59,6-.7,8.87-.07.16-.4,0-.37.39.17,2.75.14,2.73-2.44,4.07-.18.1-1,.3-.74,1.09C284.6,102.64,284.51,102.72,285.86,103Zm2.77-12.74c-1.64.87,0,2.95-1.83,3.7a.44.44,0,0,0,0,.3c1.22.42.08.84,0,1.24-.16.77-1.37,1.75-.75,2.06.89.45.81-.92,1.13-1.53,0-.08.23-.1.27-.18C288.31,94.09,289.09,92.27,288.63,90.3Z"/><path class="cls-1" d="M294.84,145.48a15.4,15.4,0,0,0-3,5.28c-.61,1.91-2.08,3.35-3,5-.71,1.34-1.59,2.56-2.26,3.9-.67-.22-.32-.62-.18-1a107,107,0,0,1,5-10,29.35,29.35,0,0,0,1.5-3.2c.78-2,3.19-2.84,3.56-5.15a2.73,2.73,0,0,0,.07-1.73c-1.47,2.58-4.08,3.71-5.92,5.71-.72.78-2.14.87-2.31,2.32,0-3.71,3.86-6.35,2.3-10.51.79.36,1,1.21,1.69.25s2.18-1.46,2.53-2.86c.12-.49.35-.24.55-.09.59.46.44,1.14.44,2.14,1.36-1.19,2.24-2.28,2.3-3.88,0-.54.09-1.28.67-1.14s1.29-.53,1.67.16,0,1-.55,1.39-.68.9-1.07,1.31c-.65.67-.59,1.24.29,1.48.59.16.34.21.24.62-.72,2.87-1.6,5.65-3.67,7.87-.58.62-1.11,1.17-.87,2.09Zm.38-9.88c-3.12,1.4-3.74,2.44-3.81,6.19C292.37,139.55,294.31,138.12,295.23,135.6Z"/><path class="cls-1" d="M330.78,343.77c-1.67-1.73-.3-3.91-1-5.8-1.78,1.84-1.73,3.63-.31,5.76.81,1.22.66,2.92.74,4.42.11,1.91-.12,3.83.52,5.7s.07,3.57-.43,5.26c-.15.51-1,.83-.73,1.77-.08-6.15.47-12.28-2-18.44,0,2.73,1.12,5,.72,7.41l-1.58-6c-.4,2,.5,3.87.45,5.84,0,.65.28,1.42-.4,1.76s-.67-.56-1-.87c-1.25-1.21-1.3-2-.67-4.17.33-1.14-.36-2.26-.54-3.39a8,8,0,0,1-.17-1.68c0-.4-.31-1.05.36-1.13s.58.61.85,1-.14,1.21.69,1.56c.31-1.61.91-3.15.18-4.81-.22-.5-.46-1.38.35-1.49s.63.77.71,1.31c0,.09.13.16.22.27.47-.85,1-1.66,1.39-2.54.46-1,.09-1.59-1-1.75-.52-.08-.21-.32-.11-.54a7.12,7.12,0,0,0,.08-4.56c-.11-.49.08-.71.15-1.24.38.68.38,1.34,1,1.67.78-.61-.34-2.08,1.31-2.41-.55,1-.25,2.09-.75,3.07-.82,1.61.39,3.12.4,4.71,0,.53.33.64.83.29.16-.12.11-.85.56-.33.18.2.24.84.16.88-2,1.07-.77,2.77-.8,4.19A35.45,35.45,0,0,0,330.78,343.77Z"/><path class="cls-1" d="M265.37,101.1a45,45,0,0,1-3.82-8.1c-.05-.16-.21-.28-.24-.44-.66-4.22-2.9-7.79-4.78-11.51a1.65,1.65,0,0,0-1.58-1c.53,1.45,1.93,2.23,2.27,3.7.19.83.3,1.87,1.26,2.38.26.14.2.37,0,.53s-.3-.12-.45-.24a12.36,12.36,0,0,1-3.08-4.27A21.51,21.51,0,0,0,251.79,77a1.49,1.49,0,0,0-.37-.36c-1.17-.58-2.72-1.12,0-1.68.59-.12.51-.93.36-1.37-.59-1.75-.19-3.51-.22-5.27.8,2.32.46,4.89,1.43,7.2.74-.24-.13-.79.42-1s.49.38.63.6c.66,1.05,1.24,2.16,1.89,3.21.14.23.39.73.77.33.54-.56-.3-.35-.39-.59-.78-1.94-1.63-3.85-2.39-5.8a16.29,16.29,0,0,0-1.48-2.4c.64-.38,1.95-.14,1.39-1.64.69.47,1,.65.92,1.53-.13,2,1.1,3.67,1.53,5.56.34,1.49,1.52,2.77,1.08,4.45-.16.59.5.65.72,1,1.36,2.31,1.73,5,2.73,7.37,0,.05,0,.13,0,.17,2.09,2.4,1.93,5.66,3.19,8.36a35.26,35.26,0,0,0,2.74,4.26c.22.33.45.65.66,1s.45.48.11.72a.52.52,0,0,1-.85-.19,3.76,3.76,0,0,0-1.4-1.46Z"/><path class="cls-1" d="M293.33,114.2c-1,.21-2,.49-1.65-1.35.79,1.18,1,.86,1.46-.22.57-1.24,1.42-2.33,1.42-4a2.68,2.68,0,0,0-1.25,1.63c-.08.49-.42.59-.72.42s.11-.39.16-.6a2.47,2.47,0,0,1,.22-.8c.94-1.36,1.36-2.73.1-4.14-.36.92-1.57,1.2-2.17,2.15,1.65-3.5,3.83-6.8,4.15-10.84-.79,0-1.2.94-2.48.58,1.65-.87,1.27-3.13,3.35-3.32.06,0,.06-.32.15-.47.26-.44.17-1.34,1-1.09s.58,1.18.34,1.68c-.77,1.63.16,3.4-.79,5.33,2.09-1.1,1.95-2.69,1.61-4.56,1.28,1.73,1.61,4.39.53,4.64-2.32.54-.41,2.59-1.61,3.32-.06,0-.55,1.35.71,1s.86.92,1.81,1.51c-2.56-.86-3,1.12-3.48,2.22-1,2.3-1.69,4.76-2.91,7Z"/><path class="cls-1" d="M327.51,275.85a1.89,1.89,0,0,0,.29-1.54c1.07.76.81.37,1.35,0,1.15-.89.45-2.58,1.92-3.34a2.63,2.63,0,0,0,1.3-3.09c-.25-1,.89-1.64.71-2.71a5.82,5.82,0,0,1,1.17-4.2c.25-.39.65-1.22-.48-1.46-.52-.11-.2-.5,0-.77,1-1.26,1.31-3.11,3-3.86a7.59,7.59,0,0,1,1.57-.61c-.91,1-.87,2.62-2.38,3.1l-.25,2.64c-.52.63,0,1.38-.25,2.05-.28.91.27,1.2,1.14,1.2-.54.45-1.1.12-1.59.41.76,0,1.54,1.22,2.15.27s.57-2.12,1-3.17c.34,1.95.55,3.79-.57,5.65-1.38,2.29-2.49,4.75-3.73,7.13-.25.48-.38,1.14-1.18,1l.26-1.76c-1.38,1-3.17,1.27-3.18,3.29,0,.4-.32.56-.68.56a.61.61,0,0,1-.44-.16C328.3,276,327.83,275.7,327.51,275.85Z"/><path class="cls-1" d="M251.66,130.9c2,1.12,2.17,3,3.41,4.16a13.79,13.79,0,0,0,4.6,2.64c-1.09-2.46-4.09-3-4.81-5.55,1.31.11,1.62,1.36,2.7,1.86.21-2.07-1.65-3.15-1.91-4.86-.06-.38-.29-.23-.32.05-.09.63-.5.48-.54.11-.25-2.07-1.93-3.47-2.39-5.41-.08-.32-.17-.37-.36-.3-.86.32-.45-.39-.5-.64s-.11-.71.41-.78a.84.84,0,0,1,.86.45c.2.33.56.8.46,1.06-.55,1.42,2,1.64,1.14,3.11.2.06.51.22.57.15.29-.32,1-.67.77-1-.66-.88.69-1.64-.44-2.64,1.4.61,1,1.52,1.13,2.19a36.65,36.65,0,0,0,3.46,9.92,29.4,29.4,0,0,1,1.14,3.35c.62,1.83,2.59,2.4,3.83,3.67.3.31.67.5.9.94s.34.72-.08,1a.78.78,0,0,1-1.09,0c-1.37-1.25-2.91-2.29-4.36-3.44s-2.45-2.54-4.57-2.68a2.43,2.43,0,0,1-2.07-2.82c.12-1-.71-1.58-1-2.38C252.33,132.47,252.07,131.89,251.66,130.9Z"/><path class="cls-1" d="M286.31,78.42a9.42,9.42,0,0,1-1.3,4.64c-.62,1.16-.31,1.64.62,2.25a18.12,18.12,0,0,0,.26-1.79c0-.2-.39-.46.1-.56a1.78,1.78,0,0,1,.94,0c.13.05.23.6.11.77-1.1,1.62-1.09,3.62-1.9,5.32-.13.27-.13.73-.64.65a2.94,2.94,0,0,1-.31-.08l.77-1.39c-1.51-.07-1.48,1.69-2.54,2.22-.37-.95.85-1.47.36-2.34-1.82,1.21-1.17,4.06-3.32,5.06-.32-.94-.32-.94.89-3.83.24-.57.36-1.19.57-1.75.37-1,.17-1.14-.76-.83s-1.26-.37-1-1c1.93-4,1.61-8.45,3-12.6,1.3.8,1.19,2.12,1.06,3.38s-1,2.25-1,3.54c.51-.09.23-.9.82-.71s.62.95.73,1.44-.29.91-.42,1.38-.68.92.14,1.22.89-.39,1-.8c.42-1.15.75-2.34,1.1-3.51A.91.91,0,0,1,286.31,78.42Zm-5.47,4.78a5.6,5.6,0,0,1-.12,2.3c1.75-1.1.47,1.39,1.26,1.2C283.46,84.89,280.74,84.58,280.85,83.2Z"/><path class="cls-1" d="M320.74,374.85c-.54.23-.45.62-.41,1.13a40.05,40.05,0,0,1,0,4.95,38.56,38.56,0,0,0,.21,4.28,3.43,3.43,0,0,1,.07.68,13.5,13.5,0,0,1-.34,1.54s-.4,0-.47,0a1.68,1.68,0,0,1-.08-1.6c.52-1.82,0-3.58-.43-5.33-.2-.77-.7-1.43-1.59-1.24s-.24,1-.36,1.45c-.51,2,0,4.17-.71,6.15-.5-.31.29-1.31-.58-1.35s0,1-.64,1.33c-.71-1,0-2.14-.45-3.08-1.24-2.66-1.11-5.51-1.26-8.33-.06-1.18.3-2.3.14-3.55-.14-1,1.2-1.68,2.39-2.31-.94,4.44-1.83,8.71,0,13.26,1-2.81-.68-5.7,1.31-8.35,0,1.25,0,2.23,0,3.21,0,.64.17,1.24.93,1.12s.41-.78.33-1.24c-.3-1.62-.58-3.25-.94-4.86-.12-.52-.19-.95.21-1.28l2.74,3.47Z"/><path class="cls-1" d="M222,197.72c.79,1.74,1.31,3.58,2.11,5.33.61,1.33.15,3,.71,4.47.08.2-.32.65-.51.48-.39-.35-1.09.31-1.12-.22-.08-1.95-1.32-3.35-2.11-5a2.73,2.73,0,0,1-.06-1c-.45.12-.37.71-.89.6a.81.81,0,0,1-.09-.37c.35-1.72-.69-2.74-1.78-3.8-2.35-2.29-4.64-4.64-8.18-5-.53,0-.48-.49-.35-.77s.48-.8.65,0l1.74-1c.2-.57.5-.31.75-.07,2.11,2.07,5,3.12,6.79,5.67.53.77.73,2,2,2.18.4-.42-1-1.43.42-1.61Z"/><path class="cls-1" d="M209.88,194.3c1.93.77,1.86,3.45,3.84,4.08.27-.45-.24-.65-.2-1,.06-.57-.84-1.24,0-1.68s1.53.24,1.84.73a40.1,40.1,0,0,0,3,3.68c.45.54.84,1.37-.21,1.83-.82.36-.12.76,0,1.09.27,1.2,1.17,2.24.93,3.76-.85-.95-1.66-1.74-2.33-2.64-.45-.6-.71-1.25-1.66-.83-.43.19-.62-.23-.88-.56-1.14-1.44-2.67-2.78-3.33-4.32C210.27,197.39,209.26,196,209.88,194.3Z"/><path class="cls-1" d="M237.48,162.74c-.85.46,0,.67.16.64,1.74-.45,1.77,1.43,1.64,1.8-.32.91.37,1.34.44,2,.09.84.84,1,1.24,1.56,0,0,.28,0,.38-.13.87-.78,1.19-.7,1.58.4.81,2.27,1.2,4.71,2.82,6.76a8.24,8.24,0,0,1-2.8-2.66c-.5-1.06-1-2.13-1.43-3.2-.12-.27.08-.8-.49-.67s-.42.51-.26.92a3.51,3.51,0,0,1,.24,1.54c-1.38-1.24-1.31-3.55-3.26-4.5.16,2.54,1.76,4.5,2.52,6.74a6.53,6.53,0,0,0,2.16,1.46c.72.32,1.45.89.45,1.77-.6-.12-1.38-.66-1.4.6a28.73,28.73,0,0,1-2.67-4.14c-.39-.88-1.17-1.51-1.27-2.62a17.57,17.57,0,0,0-1.17-4.7,5.59,5.59,0,0,1,0-3.64c.11-.42.14-.41,1.15.11Z"/><path class="cls-1" d="M344.44,383.26c.58.67.14,1.21.23,1.71.68.09.25-.71.73-.8a1.61,1.61,0,0,1,.33,2c-.66,1.69-1.06,3.49-2.3,5a8.86,8.86,0,0,0-1.08,2.56c-.14.37-.4.62.42.58.65,0-.08.88-.12.91-1.11.69-1.44,2-2.3,2.88-.27.28-.35.54-.74.26s-.28-.49,0-.67c.93-.58.89-2,2.17-2.35.71-.21-.86-.32-.24-1.14a18.18,18.18,0,0,0,1.65-3.85,1.17,1.17,0,0,0,.11-1c-.54.67-1.33,1.22-1.43,1.87-.14,1-.73.85-1.17.7s-.41-.52-.27-1.18c.34-1.53,1.29-2.83,1.46-4.39a11,11,0,0,0,.07-1.7c0-.27-.32-.28-.54-.24s-.05.21-.07.31a8.51,8.51,0,0,1-1.76,3.49.57.57,0,0,1-.86.19c-.27-.16-.11-.4,0-.58,1.21-1.51,1.42-3.56,3-5,.62-.57.36-2.1,1.28-2.92.28-.25.49-.86.83-.62a1,1,0,0,1,.43,1.3c-1,2.49-1,5.27-2.23,7.7-.09.17,0,.43,0,.69C343.43,387.32,343.72,385.25,344.44,383.26Z"/><path class="cls-1" d="M319.67,274.41a28.8,28.8,0,0,1,.2-4.91,61.3,61.3,0,0,1,1.23-9.44c.78-3.43,2.7-6.38,4.52-9.33a5.29,5.29,0,0,1,3.13-2.38c.17.37.31.88,0,1.12-1.7,1.31-2.64,3.25-4.08,4.76-.5.52-.76.58,0,1.1s.56.85-.41,1.25c-.67.27-.44,1-.52,1.44-.38,2.37-.38,5-1.56,7a12.74,12.74,0,0,0-1.48,4.44c-.23,1.24-.32,2.5-.44,3.76C320.21,273.66,320.29,274.14,319.67,274.41Z"/><path class="cls-1" d="M335,335.37c-1.32,1.74-1.12,3.72-2.55,5.08.62-4.15.05-8.24-.14-12.4a13.36,13.36,0,0,0,2.31,5.42l.36-.22a4.87,4.87,0,0,1,.82-4.56c.17-.25.06-.76.59-.54a.87.87,0,0,1,.48.85c.11,3.21.66,6.41.18,9.62a7,7,0,0,1-1.09,2.31C335.88,339.12,335.14,337.46,335,335.37Z"/><path class="cls-1" d="M242.88,223c1.85,3.64,1.26,7.37.37,11.1h-.77a10,10,0,0,1-1.53-5.46,11.85,11.85,0,0,0-1.86-5.63c-1-1.65-1.16-3.53-2-5.21.9,2.63,3.69,3.45,5.1,5.55C242.53,223.51,242.72,223.27,242.88,223Z"/><path class="cls-1" d="M317.81,258.23c-.8-1.48.31-2.48,1.24-2.9a1.22,1.22,0,0,0,.8-.9c.12-1.9,1.35-3.45,1.56-5.33a2.67,2.67,0,0,1,1.33-1.71,3,3,0,0,1,.26,3.24,43.26,43.26,0,0,0-3.42,15.8c0,.65-1,1.29-.05,2,0,0,0,.34-.14.43s-.4,0-.58-.12c-.43-.36-.28-.85-.28-1.28,0-2.58,0-5.17,0-7.75Z"/><path class="cls-1" d="M200.19,244.49c.39,1.55-.91,3.14.23,4.58.07.09.12.25.2.27,1.86.4,2,2.36,3.16,3.42.57.53-.21.74-.36,1-.25.42-.79.06-.87-.21a4.59,4.59,0,0,0-.79-1.67,47.91,47.91,0,0,0-6.16-6.52c-.51-.41-1.07-.77-1.6-1.16l.46-.5a18.58,18.58,0,0,1,3.38,2.74c.42.53.77.76,1.08.46s.85-1.28.19-1.56a1.23,1.23,0,0,1-.72-1.26,7.3,7.3,0,0,0-1.54-4.45c.95.86,1.46.82,1.59-.34.07-.64.77-.38,1.14-.6.57-.33.3.51.51.76a1,1,0,0,1,.26,1c-1,2.79,1.52,4,2.82,5.51,1,1.15,1.68,2.46,2.65,3.6a.73.73,0,0,1-.17,1.06,1.83,1.83,0,0,1-2.34-.36l1.94-.09C203.7,248.14,202.32,246.06,200.19,244.49Z"/><path class="cls-1" d="M240.8,247.5c1.08.52,1.89,1.15,1.07,2.5-.11.18-.11.5.38.51s.27.53.23.79c-.08.55-.46.16-.73.2a11.2,11.2,0,0,1-3.73-.34c-1.46-.24-2.66-1.2-3.93-1.81-1.45-.69-3-.83-4.79-1.72l1,1.49c-.95.59-3.71-1.63-3.86-3.11l0,0c1.12.83,2.13,1.59,3.76.9.46-.2,1.74.28,2.62.58a2.26,2.26,0,0,0,1.75,0,2,2,0,0,0,2.13,0c.45.18.59-.3.9-.47-.11,1.77.14,1.87,1.86,1.79C240.55,248.82,240.14,247.73,240.8,247.5Z"/><path class="cls-1" d="M226.83,221.81c1.24,1.52.93,2.92,1.13,4.18A4.21,4.21,0,0,0,229,228.4a16.87,16.87,0,0,1,3.47,4.65c.16.36.5.44.67.31,1.36-1.12,1.21.47,1.67.91,1.15,1.12.36,2.9,1.44,4.1-2-2.24-4.85-3.06-7.27-4.52-.65-.39-.71-.79-.16-1.3.3-.28,0-.45-.12-.67s-.81-.15-.7-.63c.8-3.48-2.15-5.3-3.45-7.84-.06-.12,0-.32.05-.52,1.08.89,1.36,2.36,2.92,3.45C226.38,224.77,227.48,223.5,226.83,221.81Zm2.64,9c-.44,2.17,1.56,2.56,2.64,3.74C232.14,232.64,230.61,231.91,229.48,230.85Z"/><path class="cls-1" d="M243.2,137.4l-1.13-.86c.31-.58,1.41.23,1.37-.6a1.58,1.58,0,0,0-.95-1.2c-.44-.15-.39-.83-.39-.89,0-1.52-1.33-2.35-1.78-3.62-.15-.42-1-.71-.27-1.26a1.29,1.29,0,0,1,1.79.12c-.3-.93-.54-1.89-.91-2.79a.61.61,0,0,1,.39-.94c.56-.19.42.32.5.62.17.65.4,1.28.52,1.93,0,.19-.06.57.14.54,2.64-.28,3,2.27,3.57,3.6a11.91,11.91,0,0,0,4.23,4.72,18.29,18.29,0,0,1,2.29,2.44c-1.33,0-2.12-1.06-2.84-1.65a19.18,19.18,0,0,1-4.78-5.31,2,2,0,0,0-.35-.57c-.55-.47-.74-1.81-1.42-1.44s.45,1.33.36,2c-.22,1.73.49,3.25.82,4.87.09.43-.53.11-.79.27Z"/><path class="cls-1" d="M333,354.55c.92,1,1.27.58,1.39-.1.47-2.82,1.37-5.58,1.43-8.47,0-.79,1.12-1.57.08-2.39,0,0,.09-.24.15-.24a.63.63,0,0,1,.45.08,2.74,2.74,0,0,1,.74,2c.08,4.29-1.57,8.16-2.9,12.1a21.17,21.17,0,0,0-.24,2.68c-.35,1.58-1.28,3-1.37,4.65,0,.44-.28.85-.73.77s-.62-.39-.51-1a30.5,30.5,0,0,1,1.44-6.37C333.28,357.29,333,356,333,354.55Z"/><path class="cls-1" d="M202.12,258.92c1.29.56,1.57,2.08,2.77,3-.35-2.29,1.55-3.89,1-6,1,2.87,2.92,5.33,3,8.58-1.13-1.25-.9-3.11-2.49-3.86-.56,1.77.3,3.76.38,5.74s1.43,3.73,2.18,5.62c-1-.36-1.34-1.11-1.82-1.9-.89-1.47-2.2-2.72-1.57-4.69.07-.22-.07-.4-.27-.56-1.8-1.43-1.75-4-3.45-5.54Z"/><path class="cls-1" d="M360.92,242.54c-.53-.7.11-1.55-.72-2.09-.34.35.26,1.1-.43,1.28-.2.05-.05.46-.39.39A1.1,1.1,0,0,0,358,243.5c.23,1-.43.65-.75.91s-.24.36-.45.11c-.35-.42.08-.74.22-1.05a9.7,9.7,0,0,0,1-4c0-1.83,0-4,1.63-5.57.45-.44-.18-.94,0-1.43.1-.3-.07-.74.46-.75s.81.1.76.65c-.08,1,.46,1.88.16,2.87-.22.72-.15.69.58.75.19,0,.56.11.57.74C362.18,238.75,361,240.44,360.92,242.54Z"/><path class="cls-1" d="M266.6,80.06a60.22,60.22,0,0,0-2.68-6.81c-.15-.29-.16-1.38-.77-.19-.11.22-.24-.21-.24-.38,0-.57,0-1.15,0-1.72,0-.21,0-.46-.27-.55-1.25-.35-2.12-.77-2.28-1.85-.48-3.19-2.68-6.07-1.74-9.51.25-.91.95-1.76.33-2.82.37.19,1.05-.06.63.82a2.77,2.77,0,0,0,1.1,3,.93.93,0,0,1,.39.72c-.11.5-.42.58-.72.08a1,1,0,0,0-.51,1,9.81,9.81,0,0,0,1,3.35c1.74,2.55,2.54,5.51,3.95,8.18A22.91,22.91,0,0,1,266.6,80.06Z"/><path class="cls-1" d="M211.39,212.63a13.16,13.16,0,0,1,.73,4c.08.95.1.84.89,1.06a2.1,2.1,0,0,1,1.09,1.05c1.46,2.93,4,5,5.77,7.73.26.4.7.33,1.06.47s.53.32.47.64-.28.53-.38.51a1.44,1.44,0,0,1-.82-.41c-.89-1.15-2.21-1.67-3.33-2.49-.47.57.4.9.11,1.23-.11.16-.13.23-.17.24a11.72,11.72,0,0,1-1.66-2.34c-.3-1.17-.35-2.42-1.75-3.06s-1.7-2.09-1.95-3.27-.82-2.57-1-3.9c-.11-.72-.26-1.6,1-1.38Z"/><path class="cls-1" d="M264.25,56.55c-.52.24-.58-.71-1-.45s0,.73,0,1.06c.13.77-.77,1.87,1.18,2.13.92.12,1.46,2.53,1.51,4a19.49,19.49,0,0,1-.61,6.71c-.15-3.75.45-7.22-1.27-10.36-.72.06-.43.6-.51.93a.46.46,0,0,1-.47.39c-.26,0-.52-.06-.51-.32.07-1.9-1.07-3.51-1.14-5.44-.11-2.95,1-5.48,2-8.08a14.94,14.94,0,0,1-.35,4c-.57,2.13-.22,3.7,1.5,5Z"/><path class="cls-1" d="M257,61.65c.51.61.94,1.22.64,1.78-.83,1.54.73,3.1-.14,4.64-.15.27.56.43.62.62.59,1.87,1.67,3.53,2.19,5.44A16.16,16.16,0,0,0,261.8,78a7.38,7.38,0,0,1,.58,3.37c-1.12-1.09-.9-2.77-1.8-4-.27-.36,0-1-.93-.63s-.87-.44-.88-1a7.3,7.3,0,0,0-1.7-5.16,1.52,1.52,0,0,1-.35-1.43,4.16,4.16,0,0,0-.42-3.11c-.18-.3-.48-.63-.07-.88C257.7,64.3,256.76,62.94,257,61.65Z"/><path class="cls-1" d="M232.75,217.25c-1.83,0-2.47-1.77-3.77-2.56-.63-.38-1.11-1.32-2.27-1.83,2.63-.63,2.9,1.78,4.46,2.27.3-2.06-2-3.24-2-5.48s-2.57-3.71-2.78-6.15c.71-.27,1,.32,1.22.67,1.41,2.76,3.37,5.21,4.1,8.35.25,1.06.93,1.95.58,3.17-.13.45,1.58.67.45,1.61Z"/><path class="cls-1" d="M217.59,310.86a16.31,16.31,0,0,1-1.66-5.81,7.92,7.92,0,0,0-1.19-3.89c-.91-1.41-1-3.2-2.21-4.5-.44-.47-.6-1.46.69-1.18.52.11.84,0,.81-.48s0-.59.42-.64c-.1.62.94.08.78.76-.81,3.53,1.55,6.36,2.15,9.6.38,2.09-.07,4.13.17,6.19Z"/><path class="cls-1" d="M235.19,226.14c.45.25.79,1,1.47.64s-.2-.93-.07-1.49a5.45,5.45,0,0,0-.27-1.74c-.06-.4.23-.76.56-.71s.71.1.78.53c.11.66-.32,1.59.86,1.73-1.56,1.19.67,1.46.59,2.4a6.44,6.44,0,0,0,.94,3.26,1.86,1.86,0,0,1-.13,1.81c-.16.2-.75.07-1.15.09.09-1.08-1.45-.89-1.49-2a4,4,0,0,0-.87-1.79c-.16-.25-.33-.76-.92-.39-1,.6-.79,0-.59-.61A12.84,12.84,0,0,0,235.19,226.14Z"/><path class="cls-1" d="M279.94,65.87c.46,0,1.36,2.14.89,2.61a4.32,4.32,0,0,0-1.06,3.32c.53,2.56-1.74,3.91-2,6-.08.62-.48,1-1.06.78s-.34-.77-.21-1.19c.85-2.73,2-5.37,2.15-8.31,0-.75-.18-1.45-.09-2.21C278.67,65.89,279.27,66,279.94,65.87Z"/><path class="cls-1" d="M227.31,238.85c-.06.44-.32.5-.69.23-1.23-.89-2.86-1-3.66-2.85-.43-1-2.08-2.11-3.57-2.71-2-.81-3.2-2.61-4.47-4.26-.09-.12-.49-.48,0-.64.3-.1.83-.18.94.14.52,1.44,2.36,1.67,2.8,3.14.1.33.31.56.6.45,2.07-.77,2.72,1.37,4.09,1.88.86.33.31.86.49,1.14a8,8,0,0,0,2.76,2.34A1.21,1.21,0,0,1,227.31,238.85Z"/><path class="cls-1" d="M207.31,314.89c-1.25.35-1-1-1.36-1.42-1.61-1.87-3.23-3.83-3.43-6.47-.08-1,.76-2.06-.07-3.14a4,4,0,0,1-.47-4.55c.22-.42.34-1.14,1-.86s.59.92.38,1.5a4.54,4.54,0,0,0-.3,3.58c.28.68,1,1,1.12,1.79a6.11,6.11,0,0,1,.29,2.33c-.21.07-.61-.08-.41.44.28.77.52,1.55.87,2.31.7,1.56,2.16,2.72,2.32,4.54Z"/><path class="cls-1" d="M230.1,250.15c2.12,1.33,3.4,3.22,5.64,3.7.67.14,1.07.47,1.75-.23s4.92.19,5.6,1c.14.17.38.63-.21.69-.1,0-.24-.14-.31-.1-.48.23-1.19.38-1.37.77-.34.75,1.07.07.91.92a1.94,1.94,0,0,1-2-.58,3.86,3.86,0,0,0-2.74-1.11,14.77,14.77,0,0,1-5.56-2.14A3.26,3.26,0,0,1,230.1,250.15Z"/><path class="cls-1" d="M331.43,280.52c0-.22-.12-.55,0-.64,3.52-3.19,5.39-7.22,6.45-11.78.48-2,1.42-4,1.27-6.15,0-.1.26-.28.43-.33.54-.16.27.31.38.5.88,1.67.24,3.43-.21,4.91a30.82,30.82,0,0,1-4.59,9.79,16.87,16.87,0,0,1-3.76,3.66Z"/><path class="cls-1" d="M236.69,247.55a2,2,0,0,1-2.13,0,27,27,0,0,0-4.12-2.41c-1.57-1-2.91-2.38-4.78-2.81a4.37,4.37,0,0,1-2.16-.94c-.33-.3-.38-.57-.21-.86s.48-.05.71.06c2.5,1.26,5,2.37,7.66,3.39,1.66.65,3.07,1.84,5,1.54l-.05,0c.12.54.7.23.94.5C237.41,246.58,236.49,246.75,236.69,247.55Z"/><path class="cls-1" d="M266.62,48.78c-.33,1.65,1.2,2.94.82,4.61-.11.49.65.36.82.74.1.22.55.31.32.66-1.45,2.23.12,4.42.12,6.64a29.28,29.28,0,0,1-.47,7.41c-.57-1.14-.25-2.39-.32-3.54a76.23,76.23,0,0,0-.6-8.34c-.28-1.67-1.27-3.09-1.46-4.81A4.52,4.52,0,0,1,266.62,48.78Z"/><path class="cls-1" d="M304.37,181.54l-.4.4c-.78-.29.32-.88-.14-1.23-.34.12-.59.36-.49.63.64,1.7-.67,2.52-1.44,3.67-.38.57-1.8.95-.92,2.15a7.65,7.65,0,0,1-.72.67c-.78-1.84.51-6.28,2.42-8.55,1.61-1.92,1.61-1.92,3.16-1.59A4.48,4.48,0,0,0,304.37,181.54Z"/><path class="cls-1" d="M297.49,124.25l-.4-.4c.2-.51.79-.72.51-1.6-.2-.64.7-1.6,1-2.45a8.87,8.87,0,0,1,1.73-2.91c.29-.31,0-.4-.19-.63-.55-.86-.5-1,.56-1.05.69-.06.61-.57.37-.79-.44-.43-1-.69-.16-1.24a1.44,1.44,0,0,1,1.74-.1c.69.46.58,1,.26,1.59C301.25,117.93,299.91,121.4,297.49,124.25Z"/><path class="cls-1" d="M347.89,233.44c.68.17.69-.62,1.16-.83s.55-.83,1-.51.26.87.18,1.3c-.26,1.4-1.59,1.85-2.51,2.64-1.09.94-2.39,1.59-2.34,3.4a3.08,3.08,0,0,1-1.66,1.94l-1.07-1.11a14.62,14.62,0,0,0,2.1-4.42C346.27,235.63,346.78,234.14,347.89,233.44Z"/><path class="cls-1" d="M233.29,210.4c.36-2.18-.91-3.48-2.08-4.64a7.81,7.81,0,0,1-2-4c2.07,1.94,3.92,3.55,4.57,6.23.23.94,1.32,1.72,1.92,2.7a25.83,25.83,0,0,1,3.22,8c-.44-1.16-1.32-2.1-1.68-3.26a21.19,21.19,0,0,0-3.09-5.43C233.63,209.28,233.52,209.93,233.29,210.4Z"/><path class="cls-1" d="M245.19,225.91a3.61,3.61,0,0,1,1.15,2.53c0,1,.09,1,1.07.79.47-.09.55.44.55.57-.07,2.53,1.23,5,.23,7.62a7.08,7.08,0,0,1-1.41-4.81l-.63,2.52a2.14,2.14,0,0,1-.11-2,3.79,3.79,0,0,0-1.18-4.51.77.77,0,0,1-.18-.94l.88.36c0-.78-.73-1.42-.32-2.22Z"/><path class="cls-1" d="M270.67,58.72a3,3,0,0,1,1.13,2.37c.13,1.7,1.13,3.15,1.16,4.87a1.11,1.11,0,0,0,1.43.92c1-.41.82.49.88.71.21.7-.31.41-.67.37-.91-.09-.59.62-.64,1.06-.12,1.07.59,2.1.2,3.19-.1.28-.11.73-.51.69s-.38-.36-.39-.68c-.05-1.77-.85-3.45-.7-5.25,0-.33,0-.68-.46-.76-.93-.17-.94-1.22-.84-1.6C271.82,62.54,270.52,60.73,270.67,58.72Z"/><path class="cls-1" d="M250.34,118.61c-1.43-1-1.52-2.64-2.07-4-.2-.51.24-.73.67-.62,1.36.37,2.53,1.41,4.09,1.11.1,0,.35.41.44.66a1.75,1.75,0,0,0,1.63,1.38c1,.1.93.39.63,1.48-.18.66,1,1.35,0,2.12-.71-2-2.34-3.21-3.93-4.48-.4-.32-.67-.75-1.23-.58-.73.23-.28.87-.39,1.32S250.3,118,250.34,118.61Z"/><path class="cls-1" d="M286,167.14c.63-1,1.29-1.67,1-2.9-.39-1.58,1.19-2.65,1.67-4.06.41-1.2,1.59-2,1.69-3.44a.81.81,0,0,1,1.27-.63c.48.26,0,.62-.1,1-.58,1.7-1.15,3.36-2.72,4.41-.3.2-.19.32,0,.49a.23.23,0,0,0,.4,0c.28-.5.82-.93,1.21-.56s-.08,1.31-.42,1.44c-1.81.72-1.93,2.62-2.9,3.9C286.77,167.18,286.51,167,286,167.14Z"/><path class="cls-1" d="M267.59,140.46a41.87,41.87,0,0,0-3-9.11c-.59-1.24-1.75-2-2.41-3.1-.29-.49-1.17-1.11-.32-1.73s1.12.38,1.44.78c1.77,2.26,3.32,4.59,3.62,7.62C267.12,136.63,268,138.26,267.59,140.46Z"/><path class="cls-1" d="M208.51,319.36c-6.13-1.6-10.38-7.82-8.07-11.55.9.55.42,1.55.48,2.18.26,2.45,1.78,4.2,2.93,6.14a2.33,2.33,0,0,0,2.14,1.29A3.22,3.22,0,0,1,208.51,319.36Z"/><path class="cls-1" d="M232.7,217.29c1.22-.13,1.61-.58,1.06-1.87a21.36,21.36,0,0,1-1.3-2.53c-.06-.2-.26-.36-.06-.6s.46,0,.7.08c.95.29,1.16,1.16,1.49,1.89a32.16,32.16,0,0,1,2.35,6.91c.09.47.28,1-.48,1.23-1,.25-.29-.57-.52-.82a2.8,2.8,0,0,1-.71-2c0-1.59-1.74-1.45-2.48-2.33Z"/><path class="cls-1" d="M268.3,96.6a5.63,5.63,0,0,1-.43-4.29,21.39,21.39,0,0,0,.55-5.57c0-1.12-1-2.07-.68-3.27.06-.26-.05-.63.38-.61s.46.57.43.62c-.56,1.05.36,1.72.77,2.35.74,1.13.52,2.37.79,3.55.15.67-.11.3-.44.11-.65-.38-.53.78-1.12.7.27.27,0,1,.8.81s.6.65.54.69c-.65.54-.43,1.63-.79,1.93C268.14,94.41,268.59,95.42,268.3,96.6Z"/><path class="cls-1" d="M287.19,102A8.89,8.89,0,0,0,290,98c.05-.14-.08-.41,0-.47,1.48-1.19,1.5-2.93,1.52-4.55,0-1,.83-.53,1.11-.92s.49-.33.64,0,.55.82.25,1.42c-.91,1.8-1.83,3.61-2.57,5.48-.46,1.16-1.45,1.87-2.07,2.88C288.59,102.26,287.86,102.88,287.19,102Z"/><path class="cls-1" d="M271.25,114l2.3-.58c-1.63,1.32-.48,2.67-.48,3.92a6.18,6.18,0,0,0,.2,1.09c.71,3.12-.89,6.3.21,9.43.07.2-.29.55-.65,1.18-.23-1.53-.45-2.71-.58-3.89a30.37,30.37,0,0,1-.32-4.57c0-.87.51-1.75.28-2.65a3.55,3.55,0,0,1,0-2.76C272.44,114.7,272.36,113.81,271.25,114Z"/><path class="cls-1" d="M244.86,104.14c.61-.15.64,1.63,1.34.2.13.11.34.2.36.33.18,1,1,1.53,1.6,2.26s.41.68-.26,1c-.41.2-.17.52,0,.8.76,1.32,2,2.11,3.08,3.15.28.28,1,.53.58,1s-.65-.39-1-.43c-2.14-.24-3-2.13-4.07-3.48S245.37,105.77,244.86,104.14Z"/><path class="cls-1" d="M242.76,120c.32,1.53,1.42,2.78,1.55,4.39,0,.19.37.48.59.51.42.07.43-.36.35-.59a1,1,0,0,1,.23-1.24l1.52,2.9c.19.37.14.56-.21.9s-.35.75.46.41c.42-.18.48.64.41,1.07-.09.62-.63.46-1,.37-.69-.19-1-.81-1.46-1.35-1.61-2.07-2.28-4.61-3.43-6.9-.09-.18-.19-.52-.12-.58.39-.3.73.07,1.09.16Z"/><path class="cls-1" d="M262.73,138.79c-.76-3.21-2.7-5.79-3.8-8.73a33.62,33.62,0,0,1-1.09-4.5c-.14-.61.08-1.26.7-1.26.93,0,.11.66.19,1,.64,2.77,1.21,5.56,2.74,8,.7,1.13.89,2.49,1.89,3.51C263.64,137.12,262.58,138,262.73,138.79Z"/><path class="cls-1" d="M297.14,128.77c1-1.12,2.39-2,3-3.36.5-1.19,1.62-1.87,1.92-3.25.38-1.77,1.59-3.33,1.4-5.3,0-.45.58-.69,1.08-.5s.09.53.08.83c0,2.62-1.25,4.68-2.68,6.79C299.16,128,299.27,128.09,297.14,128.77Z"/><path class="cls-1" d="M272.35,98.88c0-2.47-1.45-4.7-1.12-7.2a38.54,38.54,0,0,0,.63-7.35c1.13,2.35.78,4.85.65,7.37S272.76,96.48,272.35,98.88Z"/><path class="cls-1" d="M243.92,146l-.4.4c-1.44.6.11,1.25,0,2.09a12.31,12.31,0,0,1-4-4.86,13.77,13.77,0,0,1-1.05-3c-.06-.21-.54-.6,0-.81a.7.7,0,0,1,.87.39,10.27,10.27,0,0,1,.59,1.22c.44,1,.52,2.24,1.29,3.16.41-.63.75-1.39,1.43-.17A10.18,10.18,0,0,0,243.92,146Z"/><path class="cls-1" d="M332.61,344.8c.76.26.91-.34,1.36-.35.94,2.69-.58,5-1,7.43-.8-.15-.7-.62-.69-.88a64.14,64.14,0,0,0-.24-9c0-.27.25-.83.38-.83.44,0,.57.48.57.82C333,342.9,333.26,343.87,332.61,344.8Z"/><path class="cls-1" d="M211.44,212.68c.32-1.85-.78-3.32-1.51-5.32,2.18,2.1,4,4,4.81,6.54,0,.12-.12.3-.18.45l-.74,1.09c-1-.2-.75-1.37-1.37-1.89-.36-.3-.34-1-1.05-.92Z"/><path class="cls-1" d="M316.42,276.25c1.74,1.25,1.26,3.3,1.68,5a18.84,18.84,0,0,0,.64,3.14c.18-1,.11-1.92,1-2.55.05,1.26-1.14,2.45-.08,3.7.09.11-.81.66-1.13.06s-1-.74-1.45-1.08l0,.06a3.4,3.4,0,0,0,.08-1.11,31.81,31.81,0,0,1-.77-7.24Z"/><path class="cls-1" d="M242.81,120c.08-.68.11-1.44,1-.52a21.54,21.54,0,0,0,1.93,1.65c1.15.93,1.4,0,1.56-.72a13.07,13.07,0,0,0,0-2.4c0-.27,0-.6.35-.66a.69.69,0,0,1,.49.07c.3.26.08.5-.12.71-.85.9.28,1.55.44,2.27.21,1,0,2.11.53,3.07a.48.48,0,0,1-.27.7.6.6,0,0,1-.73-.24c-1.34-1.89-3.5-2.68-5.3-4Z"/><path class="cls-1" d="M242.88,223c-.17.27-.35.51-.72.35.06-2.13-1.55-3.7-1.84-5.77.2,0,.66-.13.71,0,1.43,2.76,4.63,4.66,4.17,8.37l0-.05c-1.11-.7-1.12-2-1.68-3-.1-.18-.07-.5-.39-.23A1.91,1.91,0,0,0,242.88,223Z"/><path class="cls-1" d="M253.25,151.84l-.4.4c-.57-.27-1-.88-.8-1.32.33-.77-.25-.84-.57-.94-1.74-.58-2.59-2.2-3.88-3.29a6.54,6.54,0,0,1-1.47-2.7c.78.85,2.07.83,2.7,1.9,1.09,1.84,3.31,2.72,4.14,4.82A4,4,0,0,1,253.25,151.84Z"/><path class="cls-1" d="M279.76,123.78c1.67,1.31,0,2.78.56,4.14,1.52-.73.94-2.44,1.65-3.5,1.42,1.35,1.26,2.77.12,4.16a.8.8,0,0,1-1,.23c-.45-.25-.89-.55-1.55-.15s-.89-.24-.63-.75C279.49,126.65,279.15,125.22,279.76,123.78Z"/><path class="cls-1" d="M342.68,240.27l1.07,1.11c-.18.5-1.1.78-.44,1.59.07.09.23,1.23-.79,1.15s-1.29.71-1.12,1.44a3.5,3.5,0,0,1-.57,2.27,1.63,1.63,0,0,1-.73-2.06A21.31,21.31,0,0,1,342.68,240.27Z"/><path class="cls-1" d="M346.84,240.72c1.56,1.29,0,2.29-.3,3.29-.45,1.69-1.12,3.36-1.62,5.09C344,245.28,343.9,245.38,346.84,240.72Z"/><path class="cls-1" d="M216.65,296.28l-.4-.4c.84-3.17,0-6.39-.18-10C218.05,287.93,218.16,293.8,216.65,296.28Z"/><path class="cls-1" d="M213.55,290.75c.28-3.07-.88-5.45-1.27-8-.08-.53,0-.74.36-.91a.62.62,0,0,1,.86.23C214.62,283.49,214.86,288.89,213.55,290.75Z"/><path class="cls-1" d="M224.81,217.25c.31-.15.72-.65,1.13.25a21.8,21.8,0,0,0,3.59,4.76c.25.3.45.82,1.07.5.38-.2,1-.12,1,.34s-.55.55-1,.61l-.89.12a1.37,1.37,0,0,1,.64,1c0,.16.33.28.5.42-.08,0-.16.13-.24.14-.49.07-1,0-1.13-.52C228.65,221.89,226,220,224.81,217.25Z"/><path class="cls-1" d="M269.54,54c-1.59-1.24-2.47-5.91-1.66-7.57.52.89.58,2,1.65,2.55.76.43-.13,1.44-.07,1.86C269.6,51.84,269.2,52.74,269.54,54Z"/><path class="cls-1" d="M262.54,159.65c2,3.39,3.55,6.76,3.94,10.6l-1.67-4.76c-.56,1.11.75,2,.19,3-.12.22.05.63-.38.63s-.45-.42-.44-.62a16.91,16.91,0,0,0-1.91-8.31C262.24,160.11,262.36,160,262.54,159.65Z"/><path class="cls-1" d="M202.12,258.92l-.3.37c-1.44-1.84-2.11-4.07-3.13-6.12-.44-.89.22-1.85,0-2.89-.34,2.19,1.79,2,2.89,2.79-.9.69-1.06-.53-1.78-.17C200.69,254.85,202,256.66,202.12,258.92Z"/><path class="cls-1" d="M214.44,205.63c.28,1.81,1.3,3.37,1.77,5.18-1.78-.86-2.41-2.77-3.91-3.87-.86-.63.24-1.61.63-2.38.33.22,1.16,0,.79.81-.16.36.06.36.27.37a2.76,2.76,0,0,0,.5-.06Z"/><path class="cls-1" d="M254.32,148c2.23.23,4,1.46,5.88,2.51a5.53,5.53,0,0,0,2.9.56c.29,0,.53-.87.8-.11.2.58-.42.47-.76.6a4.05,4.05,0,0,1-4.83-.79A16.73,16.73,0,0,0,254.32,148Z"/><path class="cls-1" d="M259.65,82a2,2,0,0,1,3,1.1c.59,1.67,1.38,3.27,2.06,5.26C262,86.86,262.12,83.56,259.65,82Z"/><path class="cls-1" d="M222.3,225.43c-1-1.11-.34-2.14,0-3.42-.59.56-.85,1.37-1.33.11a21.88,21.88,0,0,0-2.6-4C221.26,218.58,223.34,222.33,222.3,225.43Z"/><path class="cls-1" d="M226.46,246c-2,.71-2.76-1.27-3.79-2.16-1.6-1.36-3.17-2.78-4.74-4.18a3.33,3.33,0,0,1-.61-.8c-.09-.16-.18-.5-.12-.54a.5.5,0,0,1,.75.1c.49,1,1.86,1.18,2.24,1.92.75,1.44,2.35,1.18,3.25,2.07-.25.57-.69-.1-.84.17s.16.84.39,1c1.11.86,2.28,1.64,3.44,2.44Z"/><path class="cls-1" d="M253,138.24c-1.74.07-1.45-1.87-2.48-2.56-.3-.2-.22-.81-.73-1.27-1.19-1.05-.8-3.24.67-4.53-.64,3.35,1,5.85,2.52,8.39Z"/><path class="cls-1" d="M241.56,112.52c.1.06.17.07.2.12a14.24,14.24,0,0,0,4.08,4.12c.27.19.29.7-.25.95s-.74.43-1.18,0a49.08,49.08,0,0,1-3.15-4.29.88.88,0,0,1,0-.65C241.23,112.64,241.45,112.58,241.56,112.52Z"/><path class="cls-1" d="M328.4,371.67c-1.15-2.64-1.24-8.66,0-9.71C327.63,365.18,329,368.38,328.4,371.67Z"/><path class="cls-1" d="M212.43,312.86l.75-.74c.77,2.06,3.07,2.5,4.81,4.24C215.12,316.11,213.41,315,212.43,312.86Z"/><path class="cls-1" d="M317.81,258.23l.69,1.46c-.66.54-.24,1.26-.32,1.9a8.74,8.74,0,0,1-1.17,3.87C317.44,263.07,316.34,260.53,317.81,258.23Z"/><path class="cls-1" d="M322.7,284.88l-1.09,0c-.69-.72.07-1.41.37-1.62a5.07,5.07,0,0,0,2.08-2.79.81.81,0,0,0,1-.43l-.05-.05c-.11.74,1.23,1.91-.86,2.13C323.58,282.12,323.18,283.89,322.7,284.88Z"/><path class="cls-1" d="M225.46,213.34c.78.26.54,1.26,1,1.55,1.23.8,1.32,2.21,2,3.27.24.37-.07.5-.28.63s-.38,0-.51-.23a23.3,23.3,0,0,0-2.69-4.39.83.83,0,0,1,0-.65C225,213.43,225.28,213.41,225.46,213.34Z"/><path class="cls-1" d="M342.21,235.55c1.13,1.81-.87,2.78-1.08,4.2,0,.33.08.75-.33.74-.25,0-.51-.39-.74-.62-.07-.07-.12-.27-.08-.31C341.15,238.52,340.64,236.58,342.21,235.55Z"/><path class="cls-1" d="M284.66,157.48c.68-2.5,1.54-4.61,1.46-7C287.47,151.35,286.63,155.53,284.66,157.48Z"/><path class="cls-1" d="M277.09,283.17c-.77-.85-.29-1.75-.05-2.52-.43-.65-1,.59-1.31-.26.85-1.35.83-3,1.28-4.43.75,1.47.44,3.44-1.18,4,2.14-.14,1.66,1,1.55,1.78C277.31,282.19,277,282.63,277.09,283.17Z"/><path class="cls-1" d="M278,82.72c-.08.74-.11,1.49-.26,2.21a.74.74,0,0,1-.9.59c-.61-.12-.43-.53-.31-.92.28-.92.07-1.92.56-2.81.14-.25-.09-.78.48-.65.32.07.58.29.33.74a2.08,2.08,0,0,0-.08.81Z"/><path class="cls-1" d="M297.42,144.58c0,.46.14,1.25,0,1.32-1.29.53-1.67,1.93-2.72,2.67-.2.14-.32,0-.42-.09s-.23-.19,0-.38c.78-.73.21-1.79.61-2.62h0c.11.53.38,1,.93,1s-.21-.69.16-.8c.64-.2.74-1.14,1.54-1.05Z"/><path class="cls-1" d="M243.2,137.4h.38c2,.62,3,2.31,4,4-.48-1.4-3.07-1-2.86-3.24C244.27,138,243,139.09,243.2,137.4Z"/><path class="cls-1" d="M262.45,107.18c-1.29-1.48-2.33-2.69-3.4-3.89-.35-.4-.44-.8,0-1.19s.79.13.87.35C260.49,104,262,105.09,262.45,107.18Z"/><path class="cls-1" d="M227.31,234.51c-1.28-1.42-2.56-2.85-3.86-4.25-.27-.3,0-.39.12-.49s.46-.24.59,0c1,1.63,2.74,2.65,3.48,4.45Z"/><path class="cls-1" d="M280.19,547.44l.35-2.15c.59.35.17,1.26.91,1.5a2.51,2.51,0,0,1,.74-1.31,4.78,4.78,0,0,1-.42,3.11C281.39,548,280.36,548.3,280.19,547.44Z"/><path class="cls-1" d="M290.87,167.74a1.24,1.24,0,0,1-.45,1.22c-1.08.79-2.32,1.39-3.11,2.94a4.88,4.88,0,0,1,3.61-4.11Z"/><path class="cls-1" d="M245.06,113.84c0,.46-.49.88-.77.84a1.74,1.74,0,0,1-1.32-1.5c-.09-.54.68-1.29,1.15-1.19C244.92,112.14,245,113,245.06,113.84Z"/><path class="cls-1" d="M199,261.76a21.76,21.76,0,0,0-.41-2.47c-.19-.68-1.06-1.12-.66-2.07.63,1.71,2.47,2.79,2.4,4.86l.05,0c-.26,0-.64.11-.68-.25-.13-1.34-.54.19-.76-.09Z"/><path class="cls-1" d="M291.72,100.43a6.92,6.92,0,0,1-.14,3.67c-.26.67-.65,1-1.28.68s0-.69.13-1.05C290.84,102.65,291.94,101.83,291.72,100.43Z"/><path class="cls-1" d="M218.45,209.79c.3.73-.5,1.37-.19,2.18.17.44-.42.79-.93.66s-.39-.59-.21-1c.3-.61.83-1.25.45-1.9s0-.71.49-.78C219.2,208.82,217.94,209.67,218.45,209.79Z"/><path class="cls-1" d="M213.81,215.45l.74-1.09.16,0c-.11,1.46,1.62,2.24,1.52,3.9C214.79,217.7,214.52,216.39,213.81,215.45Z"/><path class="cls-1" d="M264.25,56.55l.4-.4c.52-.09,1.51-1.14,1.08.64-.16.65.3,1.46.54,2.47A3.3,3.3,0,0,1,264.25,56.55Z"/><path class="cls-1" d="M253,138.27a8.88,8.88,0,0,0,1.85,2.61c.36.33.62.7.35,1.2-.07.14-.25.22-.38.33-.1-.51-.91-.43-.88-1a1.26,1.26,0,0,0-.34-1.1c-.63-.51-.2.57-.57.42s-.59-.36-.41-.63c.39-.57.14-1.24.41-1.81Z"/><path class="cls-1" d="M269.66,106.8c1.1,1.68-.08,3.13-.28,4.76C268.53,109.87,269,108.37,269.66,106.8Z"/><path class="cls-1" d="M247.67,93.86c.29.8.6,1.6.87,2.42.16.48-.33.25-.48.39-.73-.23-1.15,0-1.29.88A4.63,4.63,0,0,1,247.67,93.86Z"/><path class="cls-1" d="M205.3,273.37c1,1.14,1.42,2.65,2.65,3.71-1.88,0-2.7-1.21-2.61-3.75Z"/><path class="cls-1" d="M201.8,266.23h-.43c-.18-1.43-1.09-2.68-1-4.18l-.05,0A4.39,4.39,0,0,1,201.8,266.23Z"/><path class="cls-1" d="M257.53,170.38c-2,.82-1.76-1.57-3-1.91,1.89-.59,2.1,1.1,2.93,1.95Z"/><path class="cls-1" d="M326.13,283.1l.37,1.09c-.21.36.29,1-.41,1.1-.26,0-1.11,0-.92-.4.31-.66-1-1.17.09-1.91C325.86,282.58,325.88,282.69,326.13,283.1Z"/><path class="cls-1" d="M321.83,393.52c.72-.55,0-1.06,0-1.58-.12-.75-.59-1.52.36-2.65a17.7,17.7,0,0,0,1.06,5.43l-1.38-1.22Z"/><path class="cls-1" d="M232.12,375c-.65-1.33-.15-2.75-.29-4.12,1.15,1.07.77,2.43.69,3.72Z"/><path class="cls-1" d="M331,267.61c.85-1.43-.24-3.5,1.5-4.63C331.79,264.46,332.25,266.3,331,267.61Z"/><path class="cls-1" d="M256,177.11c-1.45.24-1.67-1.31-2.64-1.81a8.56,8.56,0,0,1-1.52-1.28C253.85,174.25,254.87,175.77,256,177.11Z"/><path class="cls-1" d="M257.68,179.87c-.47-1-1.84-1.45-1.71-2.81,1,.51,2.29.83,2.11,2.41Z"/><path class="cls-1" d="M310.93,390.88l-.3.37c-.12-1.1-.21-2.21-.36-3.3-.08-.57,0-.91.67-.81l-.05,0C311.23,388.35,311.61,389.61,310.93,390.88Z"/><path class="cls-1" d="M218.1,236.47a11.85,11.85,0,0,0,3.27,2.42c.31.2.88.25.49.77s-.57-.07-.78-.26C220,238.5,218.37,238.18,218.1,236.47Z"/><path class="cls-1" d="M294.25,212.69c-.69,1.32-2.35.27-3.25,1.21,0,0-.37-.2-.56-.31.42-.3.42-.8.61-1.21.06-.12.28-.17.43-.25C292,214.26,293.47,211.77,294.25,212.69Z"/><path class="cls-1" d="M224.81,216.69c-.66-.71-1.21-1.38-1.84-2-.48-.44-.35-.72.07-1s.77,0,.79.38C223.89,215,225.06,215.42,224.81,216.69Z"/><path class="cls-1" d="M264.65,175.74c.13-1.23-.55-2.44-.16-3.84a10,10,0,0,1,1.17,3.43c-.33.18-.61.49-1,.36Z"/><path class="cls-1" d="M214.49,205.69c.19-.28.19-1.4.62-.64.64,1.15,1.68,2.05,2.31,3.59-1.63-.69-1.84-2.3-3-3Z"/><path class="cls-1" d="M322.18,387.73c0-1.9-.54-3.84-.1-5.92C323,383.84,322,385.78,322.18,387.73Z"/><path class="cls-1" d="M243.2,249.6h.38c.4.09.25.78.8.73s.59.22.54.63c-.73-.26-1,.45-1.42.72a.39.39,0,0,1-.6-.35C242.94,250.74,242.58,250.08,243.2,249.6Z"/><path class="cls-1" d="M305.1,134.6h.67c.51,1.4-.87,2.43-.67,3.78C305.17,137.1,304.66,135.84,305.1,134.6Z"/><path class="cls-1" d="M290.64,107.79c.61,2,.07,3.2-1.47,3.95C290.07,110.71,290.08,109.3,290.64,107.79Z"/><path class="cls-1" d="M225,199.11l3.15,3.31c-1.67-.36-2.23-1.94-3.45-2.79,0,0,.22-.36.34-.56Z"/><path class="cls-1" d="M281.28,142.45a4.4,4.4,0,0,1,2.07-3.29C282.86,140.33,282.68,141.69,281.28,142.45Z"/><path class="cls-1" d="M242.54,179.2c1.24.13.86,1.57,1.67,2l1.11,2.17A11.85,11.85,0,0,1,242.54,179.2Z"/><path class="cls-1" d="M258.84,153.25c-1.32-.16-1.46-1.42-2.33-1.76a.3.3,0,0,1,0-.55c.19-.08.54-.11.63,0A6.9,6.9,0,0,1,258.84,153.25Z"/><path class="cls-1" d="M225.05,199.07c-1.46.58-1.8-1.35-3-1.35l.05.05c0-.3-.08-.6-.12-1a9.72,9.72,0,0,1,3,2.36Z"/><path class="cls-1" d="M242.48,234.1h.77c0,.85,1.24,1.1.95,2.08C243.46,235.62,242.46,235.29,242.48,234.1Z"/></svg>
