<?xml version="1.0"?>
<svg xmlns="http://www.w3.org/2000/svg" xmlns:svg="http://www.w3.org/2000/svg" viewBox="20 -10 180 100">
 <style type="text/css">
  .st1{fill:#302255;}</style>
 <g>
  <title>Layer 1</title>
  <g id="svg_2">
   <path class="st1" d="m15.2,33.8c0,0.9 0.2,1.6 0.5,2.5c0.8,0.5 1.7,0.8 2.7,1l0,1.2c-1.5,0 -3,-0.1 -4.5,-0.1c-1.6,0 -3,0 -4.6,0.1l0,-1.2c0.8,-0.2 1.4,-0.3 2.1,-0.7c0.3,-1.1 0.4,-2 0.5,-3.8l0,-11.8c0,-0.9 -0.1,-1.7 -0.3,-2.5c-0.8,-0.4 -1.5,-0.7 -2.5,-1l0,-1.2c1.3,0.1 3.1,0.1 4.6,0.1l5.4,0c3.8,0 7.2,1.3 7.2,5.7c0,3.2 -2.4,5.2 -5.4,5.9l5.6,7.7l1.9,1.5l0,1.1l-4.4,0c-0.4,-0.8 -0.9,-1.6 -1.5,-2.5l-5,-7.4l-2.3,0l0,5.4zm3.1,-7.1c2.7,0 4.3,-1.3 4.3,-4.3c0,-2.8 -1.7,-4.3 -4.5,-4.3l-2.5,0c-0.1,0.9 -0.2,1.8 -0.3,2.7l0,5.8l3,0l0,0.1z" id="svg_3"/>
   <path class="st1" d="m39.5,36.5c-0.7,0.6 -1.6,1.3 -2.2,1.7c-0.5,0.3 -1.3,0.6 -2.7,0.6c-1.9,0 -4.3,-1 -4.3,-4.2c0,-1.5 0.5,-2.4 1.2,-3.1c1.5,-0.7 4.2,-1.6 7.9,-2.4l0,-1.7c0,-2.3 -0.5,-3.4 -3.2,-3.4c-1.2,0 -2,0.2 -2,0.2c-0.4,0.9 -0.4,2 -0.3,3l-1.5,0.4l-0.7,0c-0.1,-1.2 -0.3,-2.4 -0.5,-3.6c1.8,-1 4.9,-1.8 6.6,-1.8c3.3,0 4.5,1.6 4.5,4.6l0,7c0,1 0.3,2.2 0.5,2.8c0.8,0.4 1.5,0.7 2.5,0.9l0,1.1c-0.9,0 -1.8,-0.1 -2.7,-0.1c-0.8,0 -1.7,0 -2.5,0.1c-0.1,-0.7 -0.2,-1.3 -0.4,-2l-0.2,-0.1zm0,-6.2c-2.3,0.5 -4,1 -4.9,1.7c-0.7,0.5 -0.9,1.4 -0.9,2.1c0,1.6 0.8,2.4 2.3,2.4c1.5,0 2.6,-0.8 3.5,-1.6l0,-4.6z" id="svg_4"/>
   <path class="st1" d="m49.1,27.5c0,-1 -0.1,-1.9 -0.3,-2.6c-0.5,-0.3 -1.3,-0.5 -2.2,-0.6l-0.1,-1c1.9,-0.3 3,-0.7 4.5,-1.3l0.7,0.4c-0.1,0.6 -0.1,1.3 0,1.9l0.2,0.1c0.9,-0.8 1.6,-1.4 2.4,-2.1c0.5,-0.2 1.1,-0.3 1.7,-0.3c1.7,0 2.8,0.9 3.2,1.6l-2.1,2.6l-0.6,0c-0.4,-1.1 -1.1,-1.6 -2,-1.6c-0.9,0 -1.5,0.4 -2.3,1.1l0,8.9c0,0.6 0.1,1.1 0.4,1.8c0.9,0.4 1.9,0.7 3.2,0.9l0,1.2c-1.4,-0.1 -2.8,-0.1 -4.1,-0.1c-1.5,0 -2.9,0 -4.3,0.1l0,-1.1c0.5,-0.1 1.2,-0.3 1.5,-0.6c0.2,-0.9 0.4,-1.5 0.4,-2.8l0,-6.5l-0.2,0z" id="svg_5"/>
   <path class="st1" d="m73.6,36c-0.9,0.7 -2.9,2 -3.5,2.3c-1,0.3 -1.9,0.4 -3,0.4c-4.2,0 -7.6,-3 -7.6,-8.1c0,-5 3.2,-8.6 8.1,-8.6c4.2,0 6.1,2.9 6.1,6.6l-1.1,0.7l-9.8,0.3c0,3.9 1.7,6.7 5.6,6.7c1.8,0 2.8,-0.4 4.5,-1.4l0.7,1.1zm-3.3,-8.1c0,-2.3 -0.8,-4.3 -3.2,-4.3c-2.4,0 -4.1,1.7 -4.3,4.9l7.5,-0.6z" id="svg_6"/>
   <path class="st1" d="m33.4,59c0,0.9 0.2,1.6 0.5,2.5c0.8,0.5 1.7,0.8 2.7,1l0,1.2c-1.5,0 -3,-0.1 -4.5,-0.1c-1.6,0 -3,0 -4.6,0.1l0,-1.2c0.8,-0.2 1.4,-0.3 2.1,-0.7c0.3,-1.1 0.4,-2 0.5,-3.8l0,-11.8c0,-0.9 -0.1,-1.7 -0.3,-2.5c-0.8,-0.4 -1.5,-0.7 -2.5,-1l0,-1.2c1.3,0.1 3.1,0.1 4.6,0.1l5.4,0c3.8,0 7.2,1.3 7.2,5.7c0,3.2 -2.4,5.2 -5.4,5.9l5.6,7.7l1.9,1.5l0,1.1l-4.5,0c-0.4,-0.8 -0.9,-1.6 -1.5,-2.5l-5,-7.4l-2.3,0l0,5.4l0.1,0zm3,-7.1c2.7,0 4.3,-1.3 4.3,-4.3c0,-2.8 -1.7,-4.3 -4.5,-4.3l-2.5,0c-0.1,0.9 -0.2,1.8 -0.3,2.7l0,5.8l3,0l0,0.1z" id="svg_7"/>
   <path class="st1" d="m59.3,52.4c0,-1 -0.1,-1.6 -0.3,-2.3c-0.6,-0.3 -1.1,-0.5 -1.8,-0.6l-0.2,-0.9c1.9,-0.3 3.3,-0.7 4.8,-1.3l0.7,0.4c-0.2,0.6 -0.3,1.1 -0.4,1.9l0,9.3c0,1 0.3,2.2 0.5,2.8c0.8,0.4 1.5,0.7 2.5,0.9l0,1.2c-0.9,-0.1 -1.8,-0.1 -2.7,-0.1c-0.8,0 -1.6,0 -2.5,0.1c-0.1,-0.7 -0.1,-1.2 -0.4,-1.9l-0.3,-0.1c-0.9,0.6 -1.7,1.2 -2.7,1.9c-0.7,0.3 -1.6,0.4 -2.4,0.4c-3.4,0 -5.3,-1.8 -5.3,-5.2l0,-6.5c0,-1 -0.1,-1.6 -0.3,-2.3c-0.5,-0.3 -1.1,-0.5 -1.7,-0.6l-0.2,-0.9c1.9,-0.3 3.3,-0.7 4.8,-1.3l0.7,0.4c-0.2,0.6 -0.3,1.1 -0.4,1.9l0,8.7c0,2.4 0.8,3.7 3.4,3.7c1.9,0 3.9,-1.5 3.9,-1.5l0,-8.1l0.3,0z" id="svg_8"/>
   <path class="st1" d="m69.1,52.6c0,-1 -0.1,-1.7 -0.3,-2.4c-0.6,-0.3 -1.5,-0.5 -2.2,-0.6l-0.1,-1c2,-0.3 3.2,-0.6 4.5,-1.3l0.7,0.3c0,0.6 0,1.2 0.1,1.8l0.2,0.1l2.4,-1.7c0.8,-0.3 1.7,-0.5 2.6,-0.5c1.9,0 3.4,0.7 4.3,2.3l2.9,-1.8c0.8,-0.4 1.8,-0.5 2.7,-0.5c3.1,0 4.9,1.9 4.9,5.2l0,7.5c0.1,0.6 0.2,1.1 0.4,1.8c0.9,0.4 1.5,0.6 2.5,0.8l0,1.2c-1.3,-0.1 -2.6,-0.1 -3.9,-0.1c-1.3,0 -2.6,0 -4,0.1l0,-1.1c0.6,-0.1 1.4,-0.3 1.7,-0.6c0.2,-0.9 0.3,-1.5 0.4,-2.8l0,-6.2c0,-2.4 -0.9,-3.7 -3.2,-3.7c-2,0 -3.8,1.4 -3.8,1.4c0.1,0.5 0.2,1.2 0.2,1.8l0,6.8c0.1,0.9 0.2,1.8 0.4,2.4c0.7,0.4 1.5,0.6 2.4,0.8l0,1.1c-1.2,-0.1 -2.4,-0.1 -3.6,-0.1c-1.3,0 -2.6,0 -3.9,0.1l0,-1.1c0.5,-0.1 1.2,-0.3 1.5,-0.6c0.2,-0.9 0.3,-1.5 0.4,-2.8l0,-6.2c0,-2.4 -0.9,-3.7 -3.3,-3.7c-2.1,0 -3.6,1.5 -3.6,1.5l0,9.2c0,0.6 0.1,1.1 0.4,1.8c0.8,0.4 1.5,0.6 2.5,0.8l0,1.2c-1.3,-0.1 -2.6,-0.1 -3.8,-0.1c-1.3,0 -2.6,0 -3.9,0.1l0,-1.1c0.5,-0.1 1.2,-0.3 1.5,-0.6c0.2,-0.9 0.3,-1.5 0.4,-2.8l0,-6.7l-0.4,0z" id="svg_9"/>
   <path class="st1" d="m101.3,60c0,0.6 0.1,1.1 0.4,1.8c0.9,0.4 1.5,0.6 2.5,0.8l0,1.2c-1.5,-0.1 -2.8,-0.1 -4.1,-0.1c-1.2,0 -2.5,0 -3.8,0.1l0,-1.1c0.5,-0.1 1.4,-0.3 1.7,-0.6c0.2,-0.9 0.4,-1.5 0.4,-2.8l0,-6.5c0,-1 -0.1,-1.8 -0.3,-2.5c-0.5,-0.3 -1.1,-0.5 -2,-0.7l-0.2,-1c2,-0.3 3.6,-0.7 5.2,-1.3l0.7,0.3c-0.2,0.6 -0.5,2.5 -0.5,3.2l0,9.2z" id="svg_10"/>
   <path class="st1" d="m107.9,52.8c0,-1 -0.1,-1.8 -0.3,-2.5c-0.5,-0.3 -1.3,-0.5 -2.2,-0.6l-0.1,-1c1.9,-0.3 3,-0.6 4.5,-1.3l0.7,0.3c0,0.6 0,1.3 0.1,1.8l0.2,0c0.9,-0.6 1.7,-1.3 2.7,-1.8c0.8,-0.3 1.8,-0.4 2.6,-0.4c3.7,0 5.3,1.9 5.3,5.1l0,7.6c0,0.6 0.1,1.1 0.4,1.8c0.9,0.4 1.5,0.6 2.5,0.8l0,1.2c-1.3,-0.1 -2.5,-0.1 -3.8,-0.1c-1.3,0 -2.6,0 -3.9,0.1l0,-1.1c0.5,-0.2 1.2,-0.3 1.5,-0.6c0.2,-0.9 0.4,-1.5 0.4,-2.8l0,-6.3c0,-2.4 -1,-3.5 -3.4,-3.5c-1.7,0 -3.3,0.8 -4.2,1.6l0,8.9c0,0.6 0.1,1.1 0.4,1.8c0.9,0.4 1.5,0.6 2.5,0.8l0,1.2c-1.3,-0.1 -2.6,-0.1 -3.9,-0.1c-1.3,0 -2.5,0 -3.8,0.1l0,-1.1c0.5,-0.1 1.2,-0.3 1.5,-0.6c0.2,-0.9 0.4,-1.5 0.4,-2.8l0,-6.5l-0.1,0z" id="svg_11"/>
   <path class="st1" d="m135.3,61.7c-0.7,0.6 -1.6,1.3 -2.2,1.7c-0.5,0.3 -1.3,0.6 -2.7,0.6c-1.9,0 -4.3,-1 -4.3,-4.2c0,-1.5 0.5,-2.4 1.2,-3.1c1.5,-0.7 4.2,-1.6 7.9,-2.4l0,-1.7c0,-2.3 -0.5,-3.4 -3.2,-3.4c-1.2,0 -2,0.2 -2,0.2c-0.4,0.9 -0.4,2 -0.3,3l-1.5,0.4l-0.7,0c-0.1,-1.2 -0.3,-2.4 -0.5,-3.6c1.8,-1 4.9,-1.8 6.6,-1.8c3.3,0 4.5,1.6 4.5,4.6l0,7c0,1 0.3,2.2 0.5,2.8c0.8,0.4 1.5,0.7 2.5,0.9l0,1.1c-0.9,0 -1.8,-0.1 -2.7,-0.1c-0.8,0 -1.7,0 -2.5,0.1c-0.1,-0.7 -0.2,-1.3 -0.4,-2l-0.2,-0.1zm0,-6.2c-2.3,0.5 -4,1 -4.9,1.7c-0.7,0.5 -0.9,1.4 -0.9,2.1c0,1.6 0.8,2.4 2.3,2.4c1.5,0 2.6,-0.8 3.5,-1.6l0,-4.6z" id="svg_12"/>
   <path class="st1" d="m144.9,52.8c0,-1 -0.1,-1.9 -0.3,-2.6c-0.5,-0.3 -1.3,-0.5 -2.2,-0.6l-0.1,-1c1.9,-0.3 3,-0.7 4.5,-1.3l0.7,0.4c-0.1,0.6 -0.1,1.3 0,1.9l0.2,0.1c0.9,-0.8 1.6,-1.4 2.4,-2.1c0.5,-0.2 1.1,-0.3 1.7,-0.3c1.7,0 2.8,0.9 3.2,1.6l-2.1,2.6l-0.6,0c-0.4,-1.1 -1.1,-1.6 -2,-1.6c-0.9,0 -1.5,0.4 -2.3,1.1l0,8.9c0,0.6 0.1,1.1 0.4,1.8c0.9,0.4 1.9,0.7 3.2,0.9l0,1.2c-1.4,-0.1 -2.8,-0.1 -4.1,-0.1c-1.5,0 -2.9,0 -4.3,0.1l0,-1.1c0.5,-0.1 1.2,-0.3 1.5,-0.6c0.2,-0.9 0.4,-1.5 0.4,-2.8l0,-6.5l-0.2,0z" id="svg_13"/>
   <path class="st1" d="m169.4,61.3c-0.9,0.7 -2.9,2 -3.5,2.3c-1,0.3 -1.9,0.4 -3,0.4c-4.2,0 -7.6,-3 -7.6,-8.1c0,-5 3.2,-8.6 8.1,-8.6c4.2,0 6.1,2.9 6.1,6.6l-1.1,0.7l-9.8,0.3c0,3.9 1.7,6.7 5.6,6.7c1.8,0 2.8,-0.4 4.5,-1.4l0.7,1.1zm-3.3,-8.2c0,-2.3 -0.8,-4.3 -3.2,-4.3c-2.4,0 -4.1,1.7 -4.3,4.9l7.5,-0.6z" id="svg_14"/>
   <path class="st1" d="m102.6,37.3c0.1,0.1 0.1,0.2 0.2,0.5c0,0.2 0,0.3 0.1,0.5c0,0 0,0.1 0,0.2c0.1,1.3 -0.3,2.4 -0.3,2.4c-0.2,0.6 -0.4,1.4 -1.1,2.2c-0.4,0.5 -0.8,0.6 -0.9,0.7c-0.6,0.2 -1.2,0.1 -1.4,0c0.3,-0.5 0.7,-1 1.1,-1.6c0.9,-1.4 1.5,-2.7 1.4,-2.7c-0.1,0 -0.8,1.3 -2.1,2.9c-0.3,0.4 -0.7,0.7 -1,1c-0.3,-0.3 -0.6,-0.7 -0.7,-1.1c-0.2,-0.8 0.2,-1.4 0.6,-1.9c0.3,-0.5 0.6,-0.8 1.3,-1.4c0,0 0.7,-0.6 2.3,-1.5c0,-0.2 0.3,-0.3 0.5,-0.2z" id="svg_15"/>
  </g>
 </g>
</svg>
