<svg xmlns="http://www.w3.org/2000/svg" viewBox="0 0 30 30"><defs><style>.cls-1{fill:#200d63;}</style></defs><title>rr_icon</title><g id="Home"><path class="cls-1" d="M23.89.68c.39.26.55.86.72,2.06.12.81.19,1.5.22,2,0,0,0,.4,0,.79a37.68,37.68,0,0,1-1.1,10.67,23.2,23.2,0,0,1-4.86,9.72,9.91,9.91,0,0,1-4,3,9.11,9.11,0,0,1-6.23-.09c1.46-2,3.08-4.41,4.75-7.14C17.2,15.65,19.82,10.16,19.56,10s-3.29,5.83-9.24,12.74c-1.46,1.69-2.86,3.15-4.18,4.45a9.28,9.28,0,0,1-2.9-4.88c-.69-3.29.9-5.88,2.49-8.48,1.2-2,2.74-3.4,5.82-6.25A51.58,51.58,0,0,1,21.42,1.1C21.92.83,23.16.2,23.89.68Z"/></g></svg>