<?xml version="1.0" encoding="utf-8"?>
<!-- Generator: Adobe Illustrator 20.1.0, SVG Export Plug-In . SVG Version: 6.00 Build 0)  -->
<svg version="1.1" id="Blue" xmlns="http://www.w3.org/2000/svg" xmlns:xlink="http://www.w3.org/1999/xlink" x="0px" y="0px"
	 viewBox="0 0 266.9 266.9" style="enable-background:new 0 0 266.9 266.9;" xml:space="preserve">
<style type="text/css">
	.st0{fill:#200D63;}
</style>
<title>facebook</title>
<path class="st0" d="M252.2,0H14.7C6.6,0,0,6.6,0,14.7c0,0,0,0,0,0v237.4c0,8.1,6.6,14.7,14.7,14.7c0,0,0,0,0,0h127.8V163.5h-34.8
	v-40.3h34.8V93.6c0-34.5,21.1-53.2,51.8-53.2c10.4,0,20.8,0.5,31.1,1.6v36h-21.3c-16.7,0-20,7.9-20,19.6v25.7H224l-5.2,40.3h-34.7
	v103.4h68c8.1,0,14.7-6.6,14.7-14.7c0,0,0,0,0,0V14.7C266.9,6.6,260.3,0,252.2,0z"/>
</svg>
