<?xml version="1.0" encoding="utf-8"?>
<!-- Generator: Adobe Illustrator 20.0.0, SVG Export Plug-In . SVG Version: 6.00 Build 0)  -->
<svg version="1.1" id="Layer_1" xmlns="http://www.w3.org/2000/svg" xmlns:xlink="http://www.w3.org/1999/xlink" x="0px" y="0px"
	 viewBox="0 0 180 100" style="enable-background:new 0 0 180 100;" xml:space="preserve">
<style type="text/css">
	.st0{fill:#302255;}
	.st1{fill:#FFFFFF;}
</style>
<rect x="0" class="st0" width="100%" height="100%"/>
<g>
	<path class="st1" d="M15.2,62.8c0,0.9,0.2,1.6,0.5,2.5c0.8,0.5,1.7,0.8,2.7,1v1.2c-1.5,0-3-0.1-4.5-0.1c-1.6,0-3,0-4.6,0.1v-1.2
		c0.8-0.2,1.4-0.3,2.1-0.7c0.3-1.1,0.4-2,0.5-3.8V50c0-0.9-0.1-1.7-0.3-2.5c-0.8-0.4-1.5-0.7-2.5-1v-1.2c1.3,0.1,3.1,0.1,4.6,0.1
		h5.4c3.8,0,7.2,1.3,7.2,5.7c0,3.2-2.4,5.2-5.4,5.9l5.6,7.7l1.9,1.5v1.1H24c-0.4-0.8-0.9-1.6-1.5-2.5l-5-7.4h-2.3V62.8z M18.3,55.7
		c2.7,0,4.3-1.3,4.3-4.3c0-2.8-1.7-4.3-4.5-4.3h-2.5c-0.1,0.9-0.2,1.8-0.3,2.7v5.8H18.3z"/>
	<path class="st1" d="M39.5,65.5c-0.7,0.6-1.6,1.3-2.2,1.7c-0.5,0.3-1.3,0.6-2.7,0.6c-1.9,0-4.3-1-4.3-4.2c0-1.5,0.5-2.4,1.2-3.1
		c1.5-0.7,4.2-1.6,7.9-2.4v-1.7c0-2.3-0.5-3.4-3.2-3.4c-1.2,0-2,0.2-2,0.2c-0.4,0.9-0.4,2-0.3,3l-1.5,0.4h-0.7
		c-0.1-1.2-0.3-2.4-0.5-3.6c1.8-1,4.9-1.8,6.6-1.8c3.3,0,4.5,1.6,4.5,4.6v7c0,1,0.3,2.2,0.5,2.8c0.8,0.4,1.5,0.7,2.5,0.9v1.1
		c-0.9,0-1.8-0.1-2.7-0.1c-0.8,0-1.7,0-2.5,0.1c-0.1-0.7-0.2-1.3-0.4-2L39.5,65.5z M39.5,59.3c-2.3,0.5-4,1-4.9,1.7
		c-0.7,0.5-0.9,1.4-0.9,2.1c0,1.6,0.8,2.4,2.3,2.4c1.5,0,2.6-0.8,3.5-1.6V59.3z"/>
	<path class="st1" d="M49.1,56.5c0-1-0.1-1.9-0.3-2.6c-0.5-0.3-1.3-0.5-2.2-0.6l-0.1-1c1.9-0.3,3-0.7,4.5-1.3l0.7,0.4
		c-0.1,0.6-0.1,1.3,0,1.9l0.2,0.1c0.9-0.8,1.6-1.4,2.4-2.1c0.5-0.2,1.1-0.3,1.7-0.3c1.7,0,2.8,0.9,3.2,1.6l-2.1,2.6h-0.6
		c-0.4-1.1-1.1-1.6-2-1.6c-0.9,0-1.5,0.4-2.3,1.1v8.9c0,0.6,0.1,1.1,0.4,1.8c0.9,0.4,1.9,0.7,3.2,0.9v1.2c-1.4-0.1-2.8-0.1-4.1-0.1
		c-1.5,0-2.9,0-4.3,0.1v-1.1c0.5-0.1,1.2-0.3,1.5-0.6c0.2-0.9,0.4-1.5,0.4-2.8V56.5z"/>
	<path class="st1" d="M73.6,65c-0.9,0.7-2.9,2-3.5,2.3c-1,0.3-1.9,0.4-3,0.4c-4.2,0-7.6-3-7.6-8.1c0-5,3.2-8.6,8.1-8.6
		c4.2,0,6.1,2.9,6.1,6.6l-1.1,0.7l-9.8,0.3c0,3.9,1.7,6.7,5.6,6.7c1.8,0,2.8-0.4,4.5-1.4L73.6,65z M70.3,56.9c0-2.3-0.8-4.3-3.2-4.3
		c-2.4,0-4.1,1.7-4.3,4.9L70.3,56.9z"/>
	<path class="st1" d="M33.4,88c0,0.9,0.2,1.6,0.5,2.5c0.8,0.5,1.7,0.8,2.7,1v1.2c-1.5,0-3-0.1-4.5-0.1c-1.6,0-3,0-4.6,0.1v-1.2
		c0.8-0.2,1.4-0.3,2.1-0.7c0.3-1.1,0.4-2,0.5-3.8V75.2c0-0.9-0.1-1.7-0.3-2.5c-0.8-0.4-1.5-0.7-2.5-1v-1.2c1.3,0.1,3.1,0.1,4.6,0.1
		h5.4c3.8,0,7.2,1.3,7.2,5.7c0,3.2-2.4,5.2-5.4,5.9l5.6,7.7l1.9,1.5v1.1h-4.5c-0.4-0.8-0.9-1.6-1.5-2.5l-5-7.4h-2.3V88z M36.4,80.9
		c2.7,0,4.3-1.3,4.3-4.3c0-2.8-1.7-4.3-4.5-4.3h-2.5c-0.1,0.9-0.2,1.8-0.3,2.7v5.8H36.4z"/>
	<path class="st1" d="M59.3,81.4c0-1-0.1-1.6-0.3-2.3c-0.6-0.3-1.1-0.5-1.8-0.6L57,77.6c1.9-0.3,3.3-0.7,4.8-1.3l0.7,0.4
		c-0.2,0.6-0.3,1.1-0.4,1.9v9.3c0,1,0.3,2.2,0.5,2.8c0.8,0.4,1.5,0.7,2.5,0.9v1.2c-0.9-0.1-1.8-0.1-2.7-0.1c-0.8,0-1.6,0-2.5,0.1
		c-0.1-0.7-0.1-1.2-0.4-1.9l-0.3-0.1c-0.9,0.6-1.7,1.2-2.7,1.9c-0.7,0.3-1.6,0.4-2.4,0.4c-3.4,0-5.3-1.8-5.3-5.2v-6.5
		c0-1-0.1-1.6-0.3-2.3c-0.5-0.3-1.1-0.5-1.7-0.6l-0.2-0.9c1.9-0.3,3.3-0.7,4.8-1.3l0.7,0.4c-0.2,0.6-0.3,1.1-0.4,1.9v8.7
		c0,2.4,0.8,3.7,3.4,3.7c1.9,0,3.9-1.5,3.9-1.5V81.4z"/>
	<path class="st1" d="M69.1,81.6c0-1-0.1-1.7-0.3-2.4c-0.6-0.3-1.5-0.5-2.2-0.6l-0.1-1c2-0.3,3.2-0.6,4.5-1.3l0.7,0.3
		c0,0.6,0,1.2,0.1,1.8l0.2,0.1l2.4-1.7c0.8-0.3,1.7-0.5,2.6-0.5c1.9,0,3.4,0.7,4.3,2.3l2.9-1.8c0.8-0.4,1.8-0.5,2.7-0.5
		c3.1,0,4.9,1.9,4.9,5.2V89c0.1,0.6,0.2,1.1,0.4,1.8c0.9,0.4,1.5,0.6,2.5,0.8v1.2c-1.3-0.1-2.6-0.1-3.9-0.1c-1.3,0-2.6,0-4,0.1v-1.1
		c0.6-0.1,1.4-0.3,1.7-0.6c0.2-0.9,0.3-1.5,0.4-2.8v-6.2c0-2.4-0.9-3.7-3.2-3.7c-2,0-3.8,1.4-3.8,1.4c0.1,0.5,0.2,1.2,0.2,1.8v6.8
		c0.1,0.9,0.2,1.8,0.4,2.4c0.7,0.4,1.5,0.6,2.4,0.8v1.1c-1.2-0.1-2.4-0.1-3.6-0.1c-1.3,0-2.6,0-3.9,0.1v-1.1
		c0.5-0.1,1.2-0.3,1.5-0.6c0.2-0.9,0.3-1.5,0.4-2.8v-6.2c0-2.4-0.9-3.7-3.3-3.7c-2.1,0-3.6,1.5-3.6,1.5V89c0,0.6,0.1,1.1,0.4,1.8
		c0.8,0.4,1.5,0.6,2.5,0.8v1.2c-1.3-0.1-2.6-0.1-3.8-0.1c-1.3,0-2.6,0-3.9,0.1v-1.1c0.5-0.1,1.2-0.3,1.5-0.6
		c0.2-0.9,0.3-1.5,0.4-2.8V81.6z"/>
	<path class="st1" d="M101.3,89c0,0.6,0.1,1.1,0.4,1.8c0.9,0.4,1.5,0.6,2.5,0.8v1.2c-1.5-0.1-2.8-0.1-4.1-0.1c-1.2,0-2.5,0-3.8,0.1
		v-1.1c0.5-0.1,1.4-0.3,1.7-0.6c0.2-0.9,0.4-1.5,0.4-2.8v-6.5c0-1-0.1-1.8-0.3-2.5c-0.5-0.3-1.1-0.5-2-0.7l-0.2-1
		c2-0.3,3.6-0.7,5.2-1.3l0.7,0.3c-0.2,0.6-0.5,2.5-0.5,3.2V89z"/>
	<path class="st1" d="M107.9,81.8c0-1-0.1-1.8-0.3-2.5c-0.5-0.3-1.3-0.5-2.2-0.6l-0.1-1c1.9-0.3,3-0.6,4.5-1.3l0.7,0.3
		c0,0.6,0,1.3,0.1,1.8l0.2,0c0.9-0.6,1.7-1.3,2.7-1.8c0.8-0.3,1.8-0.4,2.6-0.4c3.7,0,5.3,1.9,5.3,5.1V89c0,0.6,0.1,1.1,0.4,1.8
		c0.9,0.4,1.5,0.6,2.5,0.8v1.2c-1.3-0.1-2.5-0.1-3.8-0.1c-1.3,0-2.6,0-3.9,0.1v-1.1c0.5-0.2,1.2-0.3,1.5-0.6
		c0.2-0.9,0.4-1.5,0.4-2.8v-6.3c0-2.4-1-3.5-3.4-3.5c-1.7,0-3.3,0.8-4.2,1.6V89c0,0.6,0.1,1.1,0.4,1.8c0.9,0.4,1.5,0.6,2.5,0.8v1.2
		c-1.3-0.1-2.6-0.1-3.9-0.1c-1.3,0-2.5,0-3.8,0.1v-1.1c0.5-0.1,1.2-0.3,1.5-0.6c0.2-0.9,0.4-1.5,0.4-2.8V81.8z"/>
	<path class="st1" d="M135.3,90.7c-0.7,0.6-1.6,1.3-2.2,1.7c-0.5,0.3-1.3,0.6-2.7,0.6c-1.9,0-4.3-1-4.3-4.2c0-1.5,0.5-2.4,1.2-3.1
		c1.5-0.7,4.2-1.6,7.9-2.4v-1.7c0-2.3-0.5-3.4-3.2-3.4c-1.2,0-2,0.2-2,0.2c-0.4,0.9-0.4,2-0.3,3l-1.5,0.4h-0.7
		c-0.1-1.2-0.3-2.4-0.5-3.6c1.8-1,4.9-1.8,6.6-1.8c3.3,0,4.5,1.6,4.5,4.6v7c0,1,0.3,2.2,0.5,2.8c0.8,0.4,1.5,0.7,2.5,0.9v1.1
		c-0.9,0-1.8-0.1-2.7-0.1c-0.8,0-1.7,0-2.5,0.1c-0.1-0.7-0.2-1.3-0.4-2L135.3,90.7z M135.3,84.5c-2.3,0.5-4,1-4.9,1.7
		c-0.7,0.5-0.9,1.4-0.9,2.1c0,1.6,0.8,2.4,2.3,2.4c1.5,0,2.6-0.8,3.5-1.6V84.5z"/>
	<path class="st1" d="M144.9,81.8c0-1-0.1-1.9-0.3-2.6c-0.5-0.3-1.3-0.5-2.2-0.6l-0.1-1c1.9-0.3,3-0.7,4.5-1.3l0.7,0.4
		c-0.1,0.6-0.1,1.3,0,1.9l0.2,0.1c0.9-0.8,1.6-1.4,2.4-2.1c0.5-0.2,1.1-0.3,1.7-0.3c1.7,0,2.8,0.9,3.2,1.6l-2.1,2.6h-0.6
		c-0.4-1.1-1.1-1.6-2-1.6c-0.9,0-1.5,0.4-2.3,1.1v8.9c0,0.6,0.1,1.1,0.4,1.8c0.9,0.4,1.9,0.7,3.2,0.9v1.2c-1.4-0.1-2.8-0.1-4.1-0.1
		c-1.5,0-2.9,0-4.3,0.1v-1.1c0.5-0.1,1.2-0.3,1.5-0.6c0.2-0.9,0.4-1.5,0.4-2.8V81.8z"/>
	<path class="st1" d="M169.4,90.3c-0.9,0.7-2.9,2-3.5,2.3c-1,0.3-1.9,0.4-3,0.4c-4.2,0-7.6-3-7.6-8.1c0-5,3.2-8.6,8.1-8.6
		c4.2,0,6.1,2.9,6.1,6.6l-1.1,0.7l-9.8,0.3c0,3.9,1.7,6.7,5.6,6.7c1.8,0,2.8-0.4,4.5-1.4L169.4,90.3z M166.1,82.1
		c0-2.3-0.8-4.3-3.2-4.3c-2.4,0-4.1,1.7-4.3,4.9L166.1,82.1z"/>
	<path class="st1" d="M102.6,66.3c0.1,0.1,0.1,0.2,0.2,0.5c0,0.2,0,0.3,0.1,0.5c0,0,0,0.1,0,0.2c0.1,1.3-0.3,2.4-0.3,2.4
		c-0.2,0.6-0.4,1.4-1.1,2.2c-0.4,0.5-0.8,0.6-0.9,0.7c-0.6,0.2-1.2,0.1-1.4,0c0.3-0.5,0.7-1,1.1-1.6c0.9-1.4,1.5-2.7,1.4-2.7
		c-0.1,0-0.8,1.3-2.1,2.9c-0.3,0.4-0.7,0.7-1,1c-0.3-0.3-0.6-0.7-0.7-1.1c-0.2-0.8,0.2-1.4,0.6-1.9c0.3-0.5,0.6-0.8,1.3-1.4
		c0,0,0.7-0.6,2.3-1.5C102.1,66.3,102.4,66.2,102.6,66.3z"/>
</g>
</svg>
