<svg id="Layer_1" data-name="Layer 1" xmlns="http://www.w3.org/2000/svg" viewBox="0 0 99.96 99.96"><defs><style>.cls-1{fill:#302255;}</style></defs><title>rr_organic_trust_01</title><path class="cls-1" d="M98.95,50A49,49,0,0,1,52.31,98.88,47.66,47.66,0,0,1,16.22,85.4,47.29,47.29,0,0,1,1,51.31,47.29,47.29,0,0,1,14.65,16.09,47.45,47.45,0,0,1,50.37,1,48.94,48.94,0,0,1,98.95,50ZM21.23,33.11c-.08.17-.14.26-.18.37-.47,1.24-1,2.47-1.38,3.73a26.12,26.12,0,0,0-1.26,10.64,20.9,20.9,0,0,0,2.22,7.55A25.53,25.53,0,0,0,28,63.92a40.66,40.66,0,0,0,9,5.2,20.42,20.42,0,0,1,4.83,2.72,15.27,15.27,0,0,1,4,4.33c.6,1,1.21,2.08,1.81,3.12a3.16,3.16,0,0,0,.35.5c.07.07.2.16.28.13s.14-.16.16-.27a1.86,1.86,0,0,0,0-.47c0-1-.07-1.91-.1-2.87a26.41,26.41,0,0,0-.48-5.2A14.57,14.57,0,0,0,45.67,66a19,19,0,0,0-3-3.14c-3-2.64-6.19-4.94-9.38-7.29a35.72,35.72,0,0,1-7.8-7.6,16.64,16.64,0,0,1-3.29-8.58c-.11-1.29-.2-2.58-.33-3.87A7,7,0,0,0,21.23,33.11Zm57,.47h-.16a7.43,7.43,0,0,0-.41,1.3c-.19,1.48-.33,3-.47,4.46A16.37,16.37,0,0,1,75.66,45,23.19,23.19,0,0,1,71,51.27a72.65,72.65,0,0,1-7.11,6.12c-2.7,2.08-5.42,4.15-7.91,6.48a12.14,12.14,0,0,0-3.64,5.18,23.71,23.71,0,0,0-1.21,5.58C51.07,75.82,51,77,51,78.18a15.52,15.52,0,0,0,0,1.75c0,.29.2.33.41.13a1.14,1.14,0,0,0,.19-.23l1-1.63c.71-1.15,1.37-2.33,2.16-3.42a15.93,15.93,0,0,1,4.32-3.84,15.52,15.52,0,0,1,2.22-1.35,59.33,59.33,0,0,0,5.84-2.88,32.73,32.73,0,0,0,8.52-6.83,21.81,21.81,0,0,0,4.43-7.81A21.37,21.37,0,0,0,81,44.46a27.19,27.19,0,0,0-1.52-7.51C79.11,35.81,78.65,34.7,78.22,33.58ZM55.14,47.27a15.82,15.82,0,0,0-.56-4.34,8.51,8.51,0,0,0-2.22-4.07,3,3,0,0,0-4-.46A6.7,6.7,0,0,0,46.83,40a12.65,12.65,0,0,0-2,6.72,13.07,13.07,0,0,0,.74,5,8.79,8.79,0,0,0,2.31,3.72,3.07,3.07,0,0,0,4.13.23,5.92,5.92,0,0,0,1.74-2.12A13.42,13.42,0,0,0,55.14,47.27ZM17.31,25.5a7.43,7.43,0,0,0,.12-1.62A2.24,2.24,0,0,0,15.68,22a2,2,0,0,0-2.34.68c-.7.88-1.32,1.82-2,2.73-.34.48-.67,1-1,1.49l7.18,4.9,1-1.5-2.93-2a1.9,1.9,0,0,1,2-1.24c.8,0,1.6,0,2.4,0a1,1,0,0,0,1.13-.6A14.3,14.3,0,0,1,22,25.27C20.35,25.33,18.78,24.92,17.31,25.5ZM72.17,9.73,67.33,17l1.52,1,2-3a2,2,0,0,1,1.27,2.06c0,.93,0,1.87,0,2.8,0,.12,0,.28.09.34.55.38,1.11.74,1.73,1.15-.07-1.65.34-3.25-.34-4.8l.46.16a2.49,2.49,0,0,0,1.56,0,2.41,2.41,0,0,0,.61-4.2C74.91,11.58,73.55,10.69,72.17,9.73Zm.93,79.43c-1.46-.8-2.62-1.94-4.31-2.18l.28-.23a2.43,2.43,0,0,0-.57-4.14,2.61,2.61,0,0,0-2.09.15c-1.21.54-2.41,1.11-3.61,1.67l-.59.29,3.69,7.84,1.65-.78L66,88.57a1.89,1.89,0,0,1,2.38,0c.8.51,1.62,1,2.44,1.44a.49.49,0,0,0,.36.08C71.82,89.78,72.4,89.5,73.09,89.17ZM14.83,72l.08,0,.21.21a2.26,2.26,0,0,0,1.68.75A2.38,2.38,0,0,0,19,69.55c-.44-.91-1-1.78-1.45-2.67-.31-.56-.63-1.11-1-1.7l-7.53,4.3L10,71.07,13,69.31a1.86,1.86,0,0,1,.3,2.2c-.47.88-.88,1.8-1.32,2.7-.05.11-.12.26-.08.34.32.6.66,1.19,1,1.86C13.67,74.89,14.72,73.65,14.83,72ZM36.52,9.55l.08,0,.2.17,4.31,3.89c.09.08.24.19.34.16.54-.13,1.07-.3,1.64-.47L40.67,4.92,39,5.4l1.58,5.45-.33-.27-4.42-4c-.08-.08-.22-.17-.31-.15-.53.13-1,.29-1.59.45l2.41,8.34L38,14.73l-.75-2.59ZM23.77,15.23a3,3,0,0,0-2.05-.61A4.31,4.31,0,0,0,19.06,16a4,4,0,0,0-1.31,2.73,4.68,4.68,0,0,0,1.87,3.87,4,4,0,0,0,3.61,1,5.71,5.71,0,0,0,4-4.46.51.51,0,0,0-.07-.38c-.73-.82-1.48-1.63-2.25-2.46L22,18.9l1,1.13,1.48-1.35a5.64,5.64,0,0,1,.53.59.62.62,0,0,1,.09.44,3.09,3.09,0,0,1-1.06,1.72,2.06,2.06,0,0,1-1.77.54A3.91,3.91,0,0,1,20,20.24a2.24,2.24,0,0,1-.42-2.16c.36-1,1.76-2.19,3-1.47a.27.27,0,0,0,.25-.07C23.1,16.13,23.42,15.69,23.77,15.23Zm-13,15.35A6.88,6.88,0,0,0,9.34,31,4.34,4.34,0,0,0,7,34.46a3.6,3.6,0,0,0,1.57,3.73,5.88,5.88,0,0,0,2.89,1.11A3.64,3.64,0,0,0,14.83,38a5.17,5.17,0,0,0,1.11-2.5,3.56,3.56,0,0,0-1.06-3.36A6,6,0,0,0,10.75,30.58ZM75,77.78a5.8,5.8,0,0,0-.64.05,4.92,4.92,0,0,0-3,1.89,3.52,3.52,0,0,0-.63,3.37,5.68,5.68,0,0,0,2.34,3.12,3.41,3.41,0,0,0,1.93.64,4.69,4.69,0,0,0,4.09-2.44,3.21,3.21,0,0,0,.43-2.24,5.48,5.48,0,0,0-2.09-3.47A3.76,3.76,0,0,0,75,77.78Zm8,3.31a.88.88,0,0,0,.13-.1c.73-.92,1.49-1.83,2.2-2.78a3.38,3.38,0,0,0,0-4.44,6.23,6.23,0,0,0-2.58-2,3.26,3.26,0,0,0-4.11.89c-.81,1-1.59,2-2.37,3,0,0,0,.06,0,.12ZM43.62,86.24l-.69,8.68c1.44.09,2.82.21,4.2.25a3,3,0,0,0,2.93-1.8,6.07,6.07,0,0,0,.41-4.21,3,3,0,0,0-2.6-2.5C46.48,86.47,45.08,86.38,43.62,86.24ZM14.23,58,6,60.63,8,67l1.45-.46L8,61.91l2.15-.68,1.32,4.17L12.88,65l-1.31-4.18,1.76-.55,1.42,4.49,1.45-.45ZM36.7,89.36l4.2,1.27.43-1.45-4.19-1.27.54-1.76,4.51,1.36.43-1.45-6.25-1.89-2.52,8.3,6.4,1.94.44-1.45L36,91.53ZM88.28,30a2.33,2.33,0,0,0,1.23-2.19,4.68,4.68,0,0,0-1.64-3.19,2.31,2.31,0,0,0-3.66.56A2.66,2.66,0,0,0,84,27.09c.2.81.46,1.6.67,2.4.14.52,0,.87-.34,1.05a1.26,1.26,0,0,1-.74.11,2,2,0,0,1-1.14-2.88c.13-.18.29-.34.45-.53l-1.05-1.4a3,3,0,0,0-1.33,3.08,5.35,5.35,0,0,0,1.69,2.85,2.54,2.54,0,0,0,2.18.66A2.42,2.42,0,0,0,86.56,30a13.48,13.48,0,0,0-.41-2.1c-.11-.51-.27-1-.38-1.53a.62.62,0,0,1,.35-.71.6.6,0,0,1,.75.12,4.63,4.63,0,0,1,.78,1,1.17,1.17,0,0,1-.2,1.6.36.36,0,0,0,0,.33C87.68,29.11,88,29.53,88.28,30Zm-60-10.41c.56-.31,1.07-.58,1.57-.88a.34.34,0,0,0,.08-.28c-.07-.54-.17-1.09-.24-1.63a.38.38,0,0,1,.16-.3c.86-.49,1.73-1,2.59-1.46a.3.3,0,0,1,.41,0c.4.35.8.69,1.22,1a.38.38,0,0,0,.31.08c.54-.28,1.06-.58,1.61-.89l-.18-.16-3.31-2.67c-1.18-1-2.37-1.9-3.55-2.86a.39.39,0,0,0-.53,0c-.38.23-.79.43-1.17.67a.43.43,0,0,0-.18.34c.08.71.18,1.43.28,2.14L28,17.52Zm52-3.95c-.51.49-1.07,1-1.62,1.54-.9.88-1.82,1.74-2.67,2.67a2.6,2.6,0,0,0-.22,3.57,6,6,0,0,0,1.73,1.73,2.5,2.5,0,0,0,2.94-.06,6.81,6.81,0,0,0,.69-.55c.88-.82,1.76-1.64,2.62-2.48.48-.47.93-1,1.45-1.5l-1.33-1.16-1.42,1.36c-.91.86-1.8,1.73-2.73,2.57a1.28,1.28,0,0,1-2,0,1.54,1.54,0,0,1-.26-2.45c.9-.9,1.83-1.77,2.73-2.66.45-.45.87-.93,1.32-1.41Zm3.2,48.91.24.13,3.62,1.73a17.2,17.2,0,0,1,1.61.85,1.15,1.15,0,0,1,.51,1.54,3.64,3.64,0,0,1-.45.86,1.3,1.3,0,0,1-1.62.46c-.68-.27-1.33-.59-2-.9l-3.38-1.61-.78,1.63.23.13c1.11.54,2.22,1.08,3.35,1.6a21.2,21.2,0,0,0,2.2.94,2.49,2.49,0,0,0,3-.93A6,6,0,0,0,91,68.79a2.48,2.48,0,0,0-1.3-3.16c-1.06-.59-2.16-1.1-3.25-1.63l-2.3-1.1ZM56.79,94.93l1.77-.4-.71-3.16,1.05-.24,1.2-.32a2.58,2.58,0,0,0,1.81-3.62,2.36,2.36,0,0,0-2.75-1.64c-.71.13-1.41.28-2.11.43l-2.18.5ZM53.18,9.64c-.08.23-.14.41-.22.58a1.9,1.9,0,0,1-3.49.07,4.61,4.61,0,0,1,.08-3.65,1.93,1.93,0,0,1,3.27-.39,5.1,5.1,0,0,1,.42.78L55,6.68a3.26,3.26,0,0,0-.7-1.51,4.14,4.14,0,0,0-6.07.32,5.34,5.34,0,0,0-.49,5.24,3.75,3.75,0,0,0,4.15,2.21,3.27,3.27,0,0,0,2.94-2.41c0-.14.13-.28-.09-.35ZM88.53,55.23a3,3,0,0,0-3,1.91A4,4,0,0,0,86,61.54,4.93,4.93,0,0,0,89,63.13a4.41,4.41,0,0,0,3.26-.5,4,4,0,0,0,1.77-3.15,3.3,3.3,0,0,0-1.84-3.39c-.08,0-.27,0-.3,0-.29.47-.56.95-.83,1.43.21.14.41.25.58.39a1.72,1.72,0,0,1,.77,1.84,1.78,1.78,0,0,1-1.39,1.53,4.61,4.61,0,0,1-3.6-.76,2,2,0,0,1-.23-3A2,2,0,0,1,88.53,57Zm-77,2.15a3.2,3.2,0,0,0,1.57-1,3.84,3.84,0,0,0,.7-2.61,3.74,3.74,0,0,0-3-3.64,6.08,6.08,0,0,0-3.1.1A4.3,4.3,0,0,0,6,51.13a4.18,4.18,0,0,0-.63,5A3.31,3.31,0,0,0,8,57.71l.37-1.78-.46-.11a1.91,1.91,0,0,1-.37-3.62,5,5,0,0,1,3.27-.27,1.88,1.88,0,0,1,1.42,1.77,1.76,1.76,0,0,1-1.14,1.88,1,1,0,0,0-.14.1ZM27.74,79.21l-.07,0-4.57,7c-.1.16-.07.23.07.32.34.21.7.42,1,.67s.38.15.54-.11c.57-.91,1.17-1.81,1.77-2.73l.3.18,2.52,1.63c.12.07.23.21.36,0,.23-.37.47-.73.72-1.11l-3.06-2,1.07-1.65L32,83.77l.82-1.28Zm-6.92-4.68-5.38,4.7,1.2,1.37L22,75.91c.53.6,1,1.17,1.53,1.73.06.07.26.12.31.08.34-.27.66-.57,1-.88l-4.6-5.26-1.15,1Zm67-27.1H86.29l-.12,6.95h1.54V51.83l7.17.12v-1.8L87.78,50ZM62.66,15.05c.5.2.94.37,1.37.56.23.1.34.08.44-.18C65,14,65.62,12.54,66.19,11.1l.81-2L69.4,10,70,8.61,63.47,6l-.55,1.42,2.39,1ZM91.55,35.36l.16.4.65,1.77c0,.13.08.26.28.18l1.24-.47L91.46,30.7,90,31.23l.89,2.42L84.2,36.13l.63,1.71ZM33.63,82.78l-3.69,7.85,1.65.78,3.69-7.85Zm-8.22-5.65-5.69,6.55,1.38,1.19,5.68-6.55ZM43.31,4.59,44.4,13.2,46.2,13,45.11,4.36Z"/><path class="cls-1" d="M14.41,27.49l-1.78-1.21c.51-.72,1-1.45,1.51-2.12A.89.89,0,0,1,15.46,24a.9.9,0,0,1,.33,1.32C15.37,26,14.89,26.74,14.41,27.49Z"/><path class="cls-1" d="M72.83,12c.74.52,1.47,1,2.15,1.51a.88.88,0,0,1,.19,1.26.89.89,0,0,1-1.26.41c-.77-.42-1.51-.91-2.28-1.38Z"/><path class="cls-1" d="M65.4,87.21l-.91-1.93c.87-.38,1.72-.77,2.58-1.1a.88.88,0,0,1,1,.52A.94.94,0,0,1,68,85.83a1.78,1.78,0,0,1-.45.35c-.64.33-1.29.64-1.93,1Z"/><path class="cls-1" d="M14.34,68.59a1,1,0,0,1,.12-.1l1.72-1c.43.8.88,1.57,1.26,2.37A.88.88,0,0,1,17,71.06a.89.89,0,0,1-1.29-.2,16.46,16.46,0,0,1-.88-1.39C14.66,69.18,14.51,68.88,14.34,68.59Z"/><path class="cls-1" d="M11.07,32.43a4.46,4.46,0,0,1,2.58,1.11,2.14,2.14,0,0,1,.53,2.5A2.21,2.21,0,0,1,12,37.48a4.38,4.38,0,0,1-2.61-1,2.09,2.09,0,0,1-.68-2.65A2.19,2.19,0,0,1,11.07,32.43Z"/><path class="cls-1" d="M77.76,82.86a2.3,2.3,0,0,1-3.37,2,4.18,4.18,0,0,1-2-2.61A2.31,2.31,0,0,1,75.9,79.9a4.37,4.37,0,0,1,1.79,2.46A3.14,3.14,0,0,1,77.76,82.86Z"/><path class="cls-1" d="M82.91,78.74,78.45,75.2c.55-.59,1.05-1.2,1.63-1.73a1.35,1.35,0,0,1,1.52-.19,6.17,6.17,0,0,1,2.55,2,1.46,1.46,0,0,1,0,1.87C83.73,77.7,83.33,78.2,82.91,78.74Z"/><path class="cls-1" d="M44.86,93.55l.45-5.62a7.35,7.35,0,0,1,2.47.36,1.75,1.75,0,0,1,1,1.64,6.45,6.45,0,0,1-.3,2.59A1.51,1.51,0,0,1,47,93.67C46.27,93.68,45.58,93.59,44.86,93.55Z"/><path class="cls-1" d="M31.35,13.85l-2,1.11-.51-3.23Z"/><path class="cls-1" d="M57.53,89.93,57,87.53c.7-.13,1.36-.3,2-.38A1.11,1.11,0,0,1,60.2,88a1,1,0,0,1-.57,1.31C59,89.55,58.27,89.71,57.53,89.93Z"/></svg>